  0
SECTION
  2
HEADER
  9
$ACADVER
  1
AC1009
  9
$FILLMODE
 70
0
  9
$EXTMIN
 10
-0.7112
 20
0.5080
 30
0.0000
  9
$EXTMAX
 10
42.6212
 20
33.0200
 30
0.0000
  0
ENDSEC
  0
SECTION
  2
TABLES
  0
TABLE
  2
LTYPE
 70
1
  0
LTYPE
  2
CONTINUOUS
 70
64
  3
Solid line
 72
65
 73
0
 40
0
  0
ENDTAB
  0
TABLE
  2
LAYER
 70
255
  0
LAYER
  2
16
 70
64
 62
175
  6
CONTINUOUS
  0
LAYER
  2
17
 70
64
 62
82
  6
CONTINUOUS
  0
LAYER
  2
18
 70
64
 62
82
  6
CONTINUOUS
  0
LAYER
  2
19
 70
64
 62
53
  6
CONTINUOUS
  0
LAYER
  2
20
 70
64
 62
7
  6
CONTINUOUS
  0
ENDTAB
  0
ENDSEC
  0
SECTION
  2
BLOCKS
  0
BLOCK
  8
0
  2
RECT
 70
64
 10
0.0000
 20
0.0000
 30
0.0000
  3
RECT
  0
SOLID
  8
0
 10
-0.5000
 20
-0.5000
 30
0.0000
 11
0.5000
 21
-0.5000
 31
0.0000
 12
-0.5000
 22
0.5000
 32
0.0000
 13
0.5000
 23
0.5000
 33
0.0000
  0
ENDBLK
  8
0
  0
BLOCK
  8
0
  2
PIE
 70
64
 10
0.0000
 20
0.0000
 30
0.0000
  3
PIE
  0
CIRCLE
  8
0
 10
0.0000
 20
0.0000
 30
0.0000
 40
0.5000
  0
ENDBLK
  8
0
  0
BLOCK
  8
0
  2
OCTAGONP
 70
64
 10
0.0000
 20
0.0000
 30
0.0000
  3
OCTAGONP
  0
POLYLINE
  8
0
 66
1
 10
0.0000
 20
0.0000
 30
0.0000
 40
0.0000
 41
0.0000
 70
1
  0
VERTEX
  8
0
 10
-0.5000
 20
-0.2071
 30
0.0000
  0
VERTEX
  8
0
 10
-0.5000
 20
0.2071
 30
0.0000
  0
VERTEX
  8
0
 10
-0.2071
 20
0.5000
 30
0.0000
  0
VERTEX
  8
0
 10
0.2071
 20
0.5000
 30
0.0000
  0
VERTEX
  8
0
 10
0.5000
 20
0.2071
 30
0.0000
  0
VERTEX
  8
0
 10
0.5000
 20
-0.2071
 30
0.0000
  0
VERTEX
  8
0
 10
0.2071
 20
-0.5000
 30
0.0000
  0
VERTEX
  8
0
 10
-0.2071
 20
-0.5000
 30
0.0000
  0
SEQEND
  8
0
  0
ENDBLK
  8
0
  0
BLOCK
  8
0
  2
SQUAREP
 70
64
 10
0.0000
 20
0.0000
 30
0.0000
  3
SQUAREP
  0
SOLID
  8
0
 10
-0.5000
 20
-0.5000
 30
0.0000
 11
0.5000
 21
-0.5000
 31
0.0000
 12
-0.5000
 22
0.5000
 32
0.0000
 13
0.5000
 23
0.5000
 33
0.0000
  0
ENDBLK
  8
0
  0
BLOCK
  8
0
  2
ROUNDP
 70
64
 10
0.0000
 20
0.0000
 30
0.0000
  3
ROUNDP
  0
CIRCLE
  8
0
 10
0.0000
 20
0.0000
 30
0.0000
 40
0.5000
  0
ENDBLK
  8
0
  0
BLOCK
  8
0
  2
ANNULUSP
 70
64
 10
0.0000
 20
0.0000
 30
0.0000
  3
ANNULUSP
  0
CIRCLE
  8
0
 10
0.0000
 20
0.0000
 30
0.0000
 40
0.5000
  0
ENDBLK
  8
0
  0
BLOCK
  8
0
  2
THERMALP
 70
64
 10
0.0000
 20
0.0000
 30
0.0000
  3
THERMALP
  0
POLYLINE
  8
0
 66
1
 10
0.0000
 20
0.0000
 30
0.0000
 40
0.0000
 41
0.0000
 70
1
  0
VERTEX
  8
0
 10
-0.2379
 20
0.4000
 30
0.0000
  0
VERTEX
  8
0
 10
0.2379
 20
0.4000
 30
0.0000
 42
1.0000
  0
VERTEX
  8
0
 10
0.2379
 20
0.5000
 30
0.0000
  0
VERTEX
  8
0
 10
-0.2379
 20
0.5000
 30
0.0000
 42
1.0000
  0
SEQEND
  8
0
  0
POLYLINE
  8
0
 66
1
 10
0.0000
 20
0.0000
 30
0.0000
 40
0.0000
 41
0.0000
 70
1
  0
VERTEX
  8
0
 10
0.4000
 20
0.2379
 30
0.0000
  0
VERTEX
  8
0
 10
0.4000
 20
-0.2379
 30
0.0000
 42
1.0000
  0
VERTEX
  8
0
 10
0.5000
 20
-0.2379
 30
0.0000
  0
VERTEX
  8
0
 10
0.5000
 20
0.2379
 30
0.0000
 42
1.0000
  0
SEQEND
  8
0
  0
POLYLINE
  8
0
 66
1
 10
0.0000
 20
0.0000
 30
0.0000
 40
0.0000
 41
0.0000
 70
1
  0
VERTEX
  8
0
 10
0.2379
 20
-0.4000
 30
0.0000
  0
VERTEX
  8
0
 10
-0.2379
 20
-0.4000
 30
0.0000
 42
1.0000
  0
VERTEX
  8
0
 10
-0.2379
 20
-0.5000
 30
0.0000
  0
VERTEX
  8
0
 10
0.2379
 20
-0.5000
 30
0.0000
 42
1.0000
  0
SEQEND
  8
0
  0
POLYLINE
  8
0
 66
1
 10
0.0000
 20
0.0000
 30
0.0000
 40
0.0000
 41
0.0000
 70
1
  0
VERTEX
  8
0
 10
-0.4000
 20
-0.2379
 30
0.0000
  0
VERTEX
  8
0
 10
-0.4000
 20
0.2379
 30
0.0000
 42
1.0000
  0
VERTEX
  8
0
 10
-0.5000
 20
0.2379
 30
0.0000
  0
VERTEX
  8
0
 10
-0.5000
 20
-0.2379
 30
0.0000
 42
1.0000
  0
SEQEND
  8
0
  0
ENDBLK
  8
0
  0
BLOCK
  8
0
  2
OCTAGONV
 70
64
 10
0.0000
 20
0.0000
 30
0.0000
  3
OCTAGONV
  0
POLYLINE
  8
0
 66
1
 10
0.0000
 20
0.0000
 30
0.0000
 40
0.0000
 41
0.0000
 70
1
  0
VERTEX
  8
0
 10
-0.5000
 20
-0.2071
 30
0.0000
  0
VERTEX
  8
0
 10
-0.5000
 20
0.2071
 30
0.0000
  0
VERTEX
  8
0
 10
-0.2071
 20
0.5000
 30
0.0000
  0
VERTEX
  8
0
 10
0.2071
 20
0.5000
 30
0.0000
  0
VERTEX
  8
0
 10
0.5000
 20
0.2071
 30
0.0000
  0
VERTEX
  8
0
 10
0.5000
 20
-0.2071
 30
0.0000
  0
VERTEX
  8
0
 10
0.2071
 20
-0.5000
 30
0.0000
  0
VERTEX
  8
0
 10
-0.2071
 20
-0.5000
 30
0.0000
  0
SEQEND
  8
0
  0
ENDBLK
  8
0
  0
BLOCK
  8
0
  2
SQUAREV
 70
64
 10
0.0000
 20
0.0000
 30
0.0000
  3
SQUAREV
  0
SOLID
  8
0
 10
-0.5000
 20
-0.5000
 30
0.0000
 11
0.5000
 21
-0.5000
 31
0.0000
 12
-0.5000
 22
0.5000
 32
0.0000
 13
0.5000
 23
0.5000
 33
0.0000
  0
ENDBLK
  8
0
  0
BLOCK
  8
0
  2
ROUNDV
 70
64
 10
0.0000
 20
0.0000
 30
0.0000
  3
ROUNDV
  0
CIRCLE
  8
0
 10
0.0000
 20
0.0000
 30
0.0000
 40
0.5000
  0
ENDBLK
  8
0
  0
BLOCK
  8
0
  2
ANNULUSV
 70
64
 10
0.0000
 20
0.0000
 30
0.0000
  3
ANNULUSV
  0
CIRCLE
  8
0
 10
0.0000
 20
0.0000
 30
0.0000
 40
0.5000
  0
ENDBLK
  8
0
  0
BLOCK
  8
0
  2
THERMALV
 70
64
 10
0.0000
 20
0.0000
 30
0.0000
  3
THERMALV
  0
POLYLINE
  8
0
 66
1
 10
0.0000
 20
0.0000
 30
0.0000
 40
0.0000
 41
0.0000
 70
1
  0
VERTEX
  8
0
 10
-0.2379
 20
0.4000
 30
0.0000
  0
VERTEX
  8
0
 10
0.2379
 20
0.4000
 30
0.0000
 42
1.0000
  0
VERTEX
  8
0
 10
0.2379
 20
0.5000
 30
0.0000
  0
VERTEX
  8
0
 10
-0.2379
 20
0.5000
 30
0.0000
 42
1.0000
  0
SEQEND
  8
0
  0
POLYLINE
  8
0
 66
1
 10
0.0000
 20
0.0000
 30
0.0000
 40
0.0000
 41
0.0000
 70
1
  0
VERTEX
  8
0
 10
0.4000
 20
0.2379
 30
0.0000
  0
VERTEX
  8
0
 10
0.4000
 20
-0.2379
 30
0.0000
 42
1.0000
  0
VERTEX
  8
0
 10
0.5000
 20
-0.2379
 30
0.0000
  0
VERTEX
  8
0
 10
0.5000
 20
0.2379
 30
0.0000
 42
1.0000
  0
SEQEND
  8
0
  0
POLYLINE
  8
0
 66
1
 10
0.0000
 20
0.0000
 30
0.0000
 40
0.0000
 41
0.0000
 70
1
  0
VERTEX
  8
0
 10
0.2379
 20
-0.4000
 30
0.0000
  0
VERTEX
  8
0
 10
-0.2379
 20
-0.4000
 30
0.0000
 42
1.0000
  0
VERTEX
  8
0
 10
-0.2379
 20
-0.5000
 30
0.0000
  0
VERTEX
  8
0
 10
0.2379
 20
-0.5000
 30
0.0000
 42
1.0000
  0
SEQEND
  8
0
  0
POLYLINE
  8
0
 66
1
 10
0.0000
 20
0.0000
 30
0.0000
 40
0.0000
 41
0.0000
 70
1
  0
VERTEX
  8
0
 10
-0.4000
 20
-0.2379
 30
0.0000
  0
VERTEX
  8
0
 10
-0.4000
 20
0.2379
 30
0.0000
 42
1.0000
  0
VERTEX
  8
0
 10
-0.5000
 20
0.2379
 30
0.0000
  0
VERTEX
  8
0
 10
-0.5000
 20
-0.2379
 30
0.0000
 42
1.0000
  0
SEQEND
  8
0
  0
ENDBLK
  8
0
  0
BLOCK
  8
0
  2
LONGP100
 70
64
 10
0.0000
 20
0.0000
 30
0.0000
  3
LONGP100
  0
POLYLINE
  8
0
 66
1
 10
0.0000
 20
0.0000
 30
0.0000
 40
0.0000
 41
0.0000
 70
1
  0
VERTEX
  8
0
 10
-0.5000
 20
-0.5000
 30
0.0000
  0
VERTEX
  8
0
 10
0.5000
 20
-0.5000
 30
0.0000
 42
1.0000
  0
VERTEX
  8
0
 10
0.5000
 20
0.5000
 30
0.0000
  0
VERTEX
  8
0
 10
-0.5000
 20
0.5000
 30
0.0000
 42
1.0000
  0
SEQEND
  8
0
  0
ENDBLK
  8
0
  0
ENDSEC
  0
SECTION
  2
ENTITIES
  0
LINE
  8
20
 10
2.5400
 20
4.6482
 30
0.0000
 11
38.1562
 21
4.6482
 31
0.0000
  0
LINE
  8
20
 10
38.1562
 20
4.6482
 30
0.0000
 11
38.0927
 21
28.7530
 31
0.0000
  0
LINE
  8
20
 10
38.0927
 20
28.7530
 30
0.0000
 11
2.5400
 21
28.7530
 31
0.0000
  0
LINE
  8
20
 10
2.5400
 20
28.7530
 30
0.0000
 11
2.5400
 21
4.6482
 31
0.0000
  0
INSERT
  8
17
  2
LONGP100
 10
6.2230
 20
23.3680
 30
0.0000
 41
1.3208
 42
1.3208
 43
1.0000
 50
180.0000
  0
INSERT
  8
17
  2
LONGP100
 10
13.8430
 20
23.3680
 30
0.0000
 41
1.3208
 42
1.3208
 43
1.0000
 50
180.0000
  0
INSERT
  8
17
  2
LONGP100
 10
6.3500
 20
7.1120
 30
0.0000
 41
1.3208
 42
1.3208
 43
1.0000
 50
180.0000
  0
INSERT
  8
17
  2
LONGP100
 10
13.9700
 20
7.1120
 30
0.0000
 41
1.3208
 42
1.3208
 43
1.0000
 50
180.0000
  0
INSERT
  8
17
  2
LONGP100
 10
17.7800
 20
7.1120
 30
0.0000
 41
1.3208
 42
1.3208
 43
1.0000
 50
180.0000
  0
INSERT
  8
17
  2
LONGP100
 10
25.4000
 20
7.1120
 30
0.0000
 41
1.3208
 42
1.3208
 43
1.0000
 50
180.0000
  0
INSERT
  8
17
  2
LONGP100
 10
28.3210
 20
7.1120
 30
0.0000
 41
1.3208
 42
1.3208
 43
1.0000
 50
180.0000
  0
INSERT
  8
17
  2
LONGP100
 10
35.9410
 20
7.1120
 30
0.0000
 41
1.3208
 42
1.3208
 43
1.0000
 50
180.0000
  0
INSERT
  8
17
  2
LONGP100
 10
28.3210
 20
23.3680
 30
0.0000
 41
1.3208
 42
1.3208
 43
1.0000
 50
180.0000
  0
INSERT
  8
17
  2
LONGP100
 10
35.9410
 20
23.3680
 30
0.0000
 41
1.3208
 42
1.3208
 43
1.0000
 50
180.0000
  0
INSERT
  8
17
  2
LONGP100
 10
17.7800
 20
23.3680
 30
0.0000
 41
1.3208
 42
1.3208
 43
1.0000
 50
180.0000
  0
INSERT
  8
17
  2
LONGP100
 10
25.4000
 20
23.3680
 30
0.0000
 41
1.3208
 42
1.3208
 43
1.0000
 50
180.0000
  0
INSERT
  8
17
  2
LONGP100
 10
6.9088
 20
21.3106
 30
0.0000
 41
1.5240
 42
1.5240
 43
1.0000
 50
0.0000
  0
INSERT
  8
17
  2
LONGP100
 10
13.4112
 20
21.3106
 30
0.0000
 41
1.5240
 42
1.5240
 43
1.0000
 50
0.0000
  0
INSERT
  8
17
  2
LONGP100
 10
6.9088
 20
16.7894
 30
0.0000
 41
1.5240
 42
1.5240
 43
1.0000
 50
0.0000
  0
INSERT
  8
17
  2
LONGP100
 10
13.4112
 20
16.7894
 30
0.0000
 41
1.5240
 42
1.5240
 43
1.0000
 50
0.0000
  0
INSERT
  8
17
  2
LONGP100
 10
18.3388
 20
21.3106
 30
0.0000
 41
1.5240
 42
1.5240
 43
1.0000
 50
0.0000
  0
INSERT
  8
17
  2
LONGP100
 10
24.8412
 20
21.3106
 30
0.0000
 41
1.5240
 42
1.5240
 43
1.0000
 50
0.0000
  0
INSERT
  8
17
  2
LONGP100
 10
18.3388
 20
16.7894
 30
0.0000
 41
1.5240
 42
1.5240
 43
1.0000
 50
0.0000
  0
INSERT
  8
17
  2
LONGP100
 10
24.8412
 20
16.7894
 30
0.0000
 41
1.5240
 42
1.5240
 43
1.0000
 50
0.0000
  0
INSERT
  8
17
  2
LONGP100
 10
6.9088
 20
13.6906
 30
0.0000
 41
1.5240
 42
1.5240
 43
1.0000
 50
0.0000
  0
INSERT
  8
17
  2
LONGP100
 10
13.4112
 20
13.6906
 30
0.0000
 41
1.5240
 42
1.5240
 43
1.0000
 50
0.0000
  0
INSERT
  8
17
  2
LONGP100
 10
6.9088
 20
9.1694
 30
0.0000
 41
1.5240
 42
1.5240
 43
1.0000
 50
0.0000
  0
INSERT
  8
17
  2
LONGP100
 10
13.4112
 20
9.1694
 30
0.0000
 41
1.5240
 42
1.5240
 43
1.0000
 50
0.0000
  0
INSERT
  8
17
  2
LONGP100
 10
18.3388
 20
13.6906
 30
0.0000
 41
1.5240
 42
1.5240
 43
1.0000
 50
0.0000
  0
INSERT
  8
17
  2
LONGP100
 10
24.8412
 20
13.6906
 30
0.0000
 41
1.5240
 42
1.5240
 43
1.0000
 50
0.0000
  0
INSERT
  8
17
  2
LONGP100
 10
18.3388
 20
9.1694
 30
0.0000
 41
1.5240
 42
1.5240
 43
1.0000
 50
0.0000
  0
INSERT
  8
17
  2
LONGP100
 10
24.8412
 20
9.1694
 30
0.0000
 41
1.5240
 42
1.5240
 43
1.0000
 50
0.0000
  0
INSERT
  8
17
  2
LONGP100
 10
28.4988
 20
21.3106
 30
0.0000
 41
1.5240
 42
1.5240
 43
1.0000
 50
0.0000
  0
INSERT
  8
17
  2
LONGP100
 10
35.0012
 20
21.3106
 30
0.0000
 41
1.5240
 42
1.5240
 43
1.0000
 50
0.0000
  0
INSERT
  8
17
  2
LONGP100
 10
28.4988
 20
16.7894
 30
0.0000
 41
1.5240
 42
1.5240
 43
1.0000
 50
0.0000
  0
INSERT
  8
17
  2
LONGP100
 10
35.0012
 20
16.7894
 30
0.0000
 41
1.5240
 42
1.5240
 43
1.0000
 50
0.0000
  0
INSERT
  8
17
  2
LONGP100
 10
28.4988
 20
13.6906
 30
0.0000
 41
1.5240
 42
1.5240
 43
1.0000
 50
0.0000
  0
INSERT
  8
17
  2
LONGP100
 10
35.0012
 20
13.6906
 30
0.0000
 41
1.5240
 42
1.5240
 43
1.0000
 50
0.0000
  0
INSERT
  8
17
  2
LONGP100
 10
28.4988
 20
9.1694
 30
0.0000
 41
1.5240
 42
1.5240
 43
1.0000
 50
0.0000
  0
INSERT
  8
17
  2
LONGP100
 10
35.0012
 20
9.1694
 30
0.0000
 41
1.5240
 42
1.5240
 43
1.0000
 50
0.0000
  0
INSERT
  8
17
  2
LONGP100
 10
15.2400
 20
26.4160
 30
0.0000
 41
1.3208
 42
1.3208
 43
1.0000
 50
90.0000
  0
INSERT
  8
17
  2
LONGP100
 10
17.7800
 20
26.4160
 30
0.0000
 41
1.3208
 42
1.3208
 43
1.0000
 50
90.0000
  0
INSERT
  8
17
  2
LONGP100
 10
20.3200
 20
26.4160
 30
0.0000
 41
1.3208
 42
1.3208
 43
1.0000
 50
90.0000
  0
INSERT
  8
17
  2
LONGP100
 10
22.8600
 20
26.4160
 30
0.0000
 41
1.3208
 42
1.3208
 43
1.0000
 50
90.0000
  0
INSERT
  8
17
  2
LONGP100
 10
25.4000
 20
26.4160
 30
0.0000
 41
1.3208
 42
1.3208
 43
1.0000
 50
90.0000
  0
POLYLINE
  8
16
 66
1
 10
0.0000
 20
0.0000
 30
0.0000
 40
0.0000
 41
0.0000
 70
1
  0
VERTEX
  8
16
 10
4.6036
 20
23.7021
 30
0.0000
  0
VERTEX
  8
16
 10
5.2285
 20
24.3270
 30
0.0000
 42
1.0000
  0
VERTEX
  8
16
 10
5.0129
 20
24.5426
 30
0.0000
  0
VERTEX
  8
16
 10
4.3880
 20
23.9177
 30
0.0000
 42
1.0000
  0
SEQEND
  8
0
  0
POLYLINE
  8
16
 66
1
 10
0.0000
 20
0.0000
 30
0.0000
 40
0.0000
 41
0.0000
 70
1
  0
VERTEX
  8
16
 10
5.1207
 20
24.2824
 30
0.0000
  0
VERTEX
  8
16
 10
7.3253
 20
24.2824
 30
0.0000
 42
1.0000
  0
VERTEX
  8
16
 10
7.3253
 20
24.5872
 30
0.0000
  0
VERTEX
  8
16
 10
5.1207
 20
24.5872
 30
0.0000
 42
1.0000
  0
SEQEND
  8
0
  0
POLYLINE
  8
16
 66
1
 10
0.0000
 20
0.0000
 30
0.0000
 40
0.0000
 41
0.0000
 70
1
  0
VERTEX
  8
16
 10
7.2175
 20
24.3270
 30
0.0000
  0
VERTEX
  8
16
 10
7.7255
 20
23.8190
 30
0.0000
 42
1.0000
  0
VERTEX
  8
16
 10
7.9411
 20
24.0346
 30
0.0000
  0
VERTEX
  8
16
 10
7.4331
 20
24.5426
 30
0.0000
 42
1.0000
  0
SEQEND
  8
0
  0
POLYLINE
  8
16
 66
1
 10
0.0000
 20
0.0000
 30
0.0000
 40
0.0000
 41
0.0000
 70
1
  0
VERTEX
  8
16
 10
7.0612
 20
16.7894
 30
0.0000
  0
VERTEX
  8
16
 10
7.0612
 20
18.8962
 30
0.0000
 42
1.0000
  0
VERTEX
  8
16
 10
6.7564
 20
18.8962
 30
0.0000
  0
VERTEX
  8
16
 10
6.7564
 20
16.7894
 30
0.0000
 42
1.0000
  0
SEQEND
  8
0
  0
POLYLINE
  8
16
 66
1
 10
0.0000
 20
0.0000
 30
0.0000
 40
0.0000
 41
0.0000
 70
1
  0
VERTEX
  8
16
 10
7.0166
 20
19.0040
 30
0.0000
  0
VERTEX
  8
16
 10
4.6036
 20
21.4170
 30
0.0000
 42
1.0000
  0
VERTEX
  8
16
 10
4.3880
 20
21.2015
 30
0.0000
  0
VERTEX
  8
16
 10
6.8010
 20
18.7885
 30
0.0000
 42
1.0000
  0
SEQEND
  8
0
  0
POLYLINE
  8
16
 66
1
 10
0.0000
 20
0.0000
 30
0.0000
 40
0.0000
 41
0.0000
 70
1
  0
VERTEX
  8
16
 10
4.6482
 20
21.3092
 30
0.0000
  0
VERTEX
  8
16
 10
4.6482
 20
23.8099
 30
0.0000
 42
1.0000
  0
VERTEX
  8
16
 10
4.3434
 20
23.8099
 30
0.0000
  0
VERTEX
  8
16
 10
4.3434
 20
21.3092
 30
0.0000
 42
1.0000
  0
SEQEND
  8
0
  0
POLYLINE
  8
16
 66
1
 10
0.0000
 20
0.0000
 30
0.0000
 40
0.0000
 41
0.0000
 70
1
  0
VERTEX
  8
16
 10
13.9254
 20
24.8858
 30
0.0000
  0
VERTEX
  8
16
 10
15.3478
 20
26.3082
 30
0.0000
 42
1.0000
  0
VERTEX
  8
16
 10
15.1322
 20
26.5238
 30
0.0000
  0
VERTEX
  8
16
 10
13.7098
 20
25.1014
 30
0.0000
 42
1.0000
  0
SEQEND
  8
0
  0
POLYLINE
  8
16
 66
1
 10
0.0000
 20
0.0000
 30
0.0000
 40
0.0000
 41
0.0000
 70
1
  0
VERTEX
  8
16
 10
11.5502
 20
23.8190
 30
0.0000
  0
VERTEX
  8
16
 10
12.6170
 20
24.8858
 30
0.0000
 42
1.0000
  0
VERTEX
  8
16
 10
12.4015
 20
25.1014
 30
0.0000
  0
VERTEX
  8
16
 10
11.3347
 20
24.0346
 30
0.0000
 42
1.0000
  0
SEQEND
  8
0
  0
POLYLINE
  8
16
 66
1
 10
0.0000
 20
0.0000
 30
0.0000
 40
0.0000
 41
0.0000
 70
1
  0
VERTEX
  8
16
 10
12.5092
 20
24.8412
 30
0.0000
  0
VERTEX
  8
16
 10
13.8176
 20
24.8412
 30
0.0000
 42
1.0000
  0
VERTEX
  8
16
 10
13.8176
 20
25.1460
 30
0.0000
  0
VERTEX
  8
16
 10
12.5092
 20
25.1460
 30
0.0000
 42
1.0000
  0
SEQEND
  8
0
  0
POLYLINE
  8
16
 66
1
 10
0.0000
 20
0.0000
 30
0.0000
 40
0.0000
 41
0.0000
 70
1
  0
VERTEX
  8
16
 10
7.8333
 20
23.7744
 30
0.0000
  0
VERTEX
  8
16
 10
11.4424
 20
23.7744
 30
0.0000
 42
1.0000
  0
VERTEX
  8
16
 10
11.4424
 20
24.0792
 30
0.0000
  0
VERTEX
  8
16
 10
7.8333
 20
24.0792
 30
0.0000
 42
1.0000
  0
SEQEND
  8
0
  0
POLYLINE
  8
16
 66
1
 10
0.0000
 20
0.0000
 30
0.0000
 40
0.0000
 41
0.0000
 70
1
  0
VERTEX
  8
16
 10
7.0612
 20
9.1694
 30
0.0000
  0
VERTEX
  8
16
 10
7.0612
 20
10.2870
 30
0.0000
 42
1.0000
  0
VERTEX
  8
16
 10
6.7564
 20
10.2870
 30
0.0000
  0
VERTEX
  8
16
 10
6.7564
 20
9.1694
 30
0.0000
 42
1.0000
  0
SEQEND
  8
0
  0
POLYLINE
  8
16
 66
1
 10
0.0000
 20
0.0000
 30
0.0000
 40
0.0000
 41
0.0000
 70
1
  0
VERTEX
  8
16
 10
7.0166
 20
10.1792
 30
0.0000
  0
VERTEX
  8
16
 10
13.5190
 20
16.6816
 30
0.0000
 42
1.0000
  0
VERTEX
  8
16
 10
13.3034
 20
16.8972
 30
0.0000
  0
VERTEX
  8
16
 10
6.8010
 20
10.3948
 30
0.0000
 42
1.0000
  0
SEQEND
  8
0
  0
POLYLINE
  8
16
 66
1
 10
0.0000
 20
0.0000
 30
0.0000
 40
0.0000
 41
0.0000
 70
1
  0
VERTEX
  8
16
 10
18.4912
 20
9.1694
 30
0.0000
  0
VERTEX
  8
16
 10
18.4912
 20
10.2108
 30
0.0000
 42
1.0000
  0
VERTEX
  8
16
 10
18.1864
 20
10.2108
 30
0.0000
  0
VERTEX
  8
16
 10
18.1864
 20
9.1694
 30
0.0000
 42
1.0000
  0
SEQEND
  8
0
  0
POLYLINE
  8
16
 66
1
 10
0.0000
 20
0.0000
 30
0.0000
 40
0.0000
 41
0.0000
 70
1
  0
VERTEX
  8
16
 10
18.4466
 20
10.1030
 30
0.0000
  0
VERTEX
  8
16
 10
18.6498
 20
10.3062
 30
0.0000
 42
1.0000
  0
VERTEX
  8
16
 10
18.4342
 20
10.5218
 30
0.0000
  0
VERTEX
  8
16
 10
18.2310
 20
10.3186
 30
0.0000
 42
1.0000
  0
SEQEND
  8
0
  0
POLYLINE
  8
16
 66
1
 10
0.0000
 20
0.0000
 30
0.0000
 40
0.0000
 41
0.0000
 70
1
  0
VERTEX
  8
16
 10
18.6944
 20
10.4140
 30
0.0000
  0
VERTEX
  8
16
 10
18.6944
 20
10.4902
 30
0.0000
 42
1.0000
  0
VERTEX
  8
16
 10
18.3896
 20
10.4902
 30
0.0000
  0
VERTEX
  8
16
 10
18.3896
 20
10.4140
 30
0.0000
 42
1.0000
  0
SEQEND
  8
0
  0
POLYLINE
  8
16
 66
1
 10
0.0000
 20
0.0000
 30
0.0000
 40
0.0000
 41
0.0000
 70
1
  0
VERTEX
  8
16
 10
18.6498
 20
10.3824
 30
0.0000
  0
VERTEX
  8
16
 10
24.9490
 20
16.6816
 30
0.0000
 42
1.0000
  0
VERTEX
  8
16
 10
24.7334
 20
16.8972
 30
0.0000
  0
VERTEX
  8
16
 10
18.4342
 20
10.5980
 30
0.0000
 42
1.0000
  0
SEQEND
  8
0
  0
POLYLINE
  8
16
 66
1
 10
0.0000
 20
0.0000
 30
0.0000
 40
0.0000
 41
0.0000
 70
1
  0
VERTEX
  8
16
 10
28.3464
 20
10.2870
 30
0.0000
  0
VERTEX
  8
16
 10
28.3464
 20
9.1694
 30
0.0000
 42
1.0000
  0
VERTEX
  8
16
 10
28.6512
 20
9.1694
 30
0.0000
  0
VERTEX
  8
16
 10
28.6512
 20
10.2870
 30
0.0000
 42
1.0000
  0
SEQEND
  8
0
  0
POLYLINE
  8
16
 66
1
 10
0.0000
 20
0.0000
 30
0.0000
 40
0.0000
 41
0.0000
 70
1
  0
VERTEX
  8
16
 10
35.0012
 20
16.9418
 30
0.0000
  0
VERTEX
  8
16
 10
34.5694
 20
16.9418
 30
0.0000
 42
1.0000
  0
VERTEX
  8
16
 10
34.5694
 20
16.6370
 30
0.0000
  0
VERTEX
  8
16
 10
35.0012
 20
16.6370
 30
0.0000
 42
1.0000
  0
SEQEND
  8
0
  0
POLYLINE
  8
16
 66
1
 10
0.0000
 20
0.0000
 30
0.0000
 40
0.0000
 41
0.0000
 70
1
  0
VERTEX
  8
16
 10
34.4616
 20
16.8972
 30
0.0000
  0
VERTEX
  8
16
 10
28.5942
 20
11.0298
 30
0.0000
 42
1.0000
  0
VERTEX
  8
16
 10
28.8098
 20
10.8142
 30
0.0000
  0
VERTEX
  8
16
 10
34.6772
 20
16.6816
 30
0.0000
 42
1.0000
  0
SEQEND
  8
0
  0
POLYLINE
  8
16
 66
1
 10
0.0000
 20
0.0000
 30
0.0000
 40
0.0000
 41
0.0000
 70
1
  0
VERTEX
  8
16
 10
28.5496
 20
10.9220
 30
0.0000
  0
VERTEX
  8
16
 10
28.5496
 20
10.4902
 30
0.0000
 42
1.0000
  0
VERTEX
  8
16
 10
28.8544
 20
10.4902
 30
0.0000
  0
VERTEX
  8
16
 10
28.8544
 20
10.9220
 30
0.0000
 42
1.0000
  0
SEQEND
  8
0
  0
POLYLINE
  8
16
 66
1
 10
0.0000
 20
0.0000
 30
0.0000
 40
0.0000
 41
0.0000
 70
1
  0
VERTEX
  8
16
 10
28.5942
 20
10.5980
 30
0.0000
  0
VERTEX
  8
16
 10
28.3910
 20
10.3948
 30
0.0000
 42
1.0000
  0
VERTEX
  8
16
 10
28.6066
 20
10.1792
 30
0.0000
  0
VERTEX
  8
16
 10
28.8098
 20
10.3824
 30
0.0000
 42
1.0000
  0
SEQEND
  8
0
  0
POLYLINE
  8
16
 66
1
 10
0.0000
 20
0.0000
 30
0.0000
 40
0.0000
 41
0.0000
 70
1
  0
VERTEX
  8
16
 10
8.1548
 20
15.7734
 30
0.0000
  0
VERTEX
  8
16
 10
5.6628
 20
15.7734
 30
0.0000
 42
1.0000
  0
VERTEX
  8
16
 10
5.6628
 20
15.4686
 30
0.0000
  0
VERTEX
  8
16
 10
8.1548
 20
15.4686
 30
0.0000
 42
1.0000
  0
SEQEND
  8
0
  0
POLYLINE
  8
16
 66
1
 10
0.0000
 20
0.0000
 30
0.0000
 40
0.0000
 41
0.0000
 70
1
  0
VERTEX
  8
16
 10
5.7706
 20
15.7288
 30
0.0000
  0
VERTEX
  8
16
 10
5.0862
 20
16.4132
 30
0.0000
 42
1.0000
  0
VERTEX
  8
16
 10
4.8706
 20
16.1977
 30
0.0000
  0
VERTEX
  8
16
 10
5.5551
 20
15.5132
 30
0.0000
 42
1.0000
  0
SEQEND
  8
0
  0
POLYLINE
  8
16
 66
1
 10
0.0000
 20
0.0000
 30
0.0000
 40
0.0000
 41
0.0000
 70
1
  0
VERTEX
  8
16
 10
5.1308
 20
16.3054
 30
0.0000
  0
VERTEX
  8
16
 10
5.1308
 20
17.2734
 30
0.0000
 42
1.0000
  0
VERTEX
  8
16
 10
4.8260
 20
17.2734
 30
0.0000
  0
VERTEX
  8
16
 10
4.8260
 20
16.3054
 30
0.0000
 42
1.0000
  0
SEQEND
  8
0
  0
POLYLINE
  8
16
 66
1
 10
0.0000
 20
0.0000
 30
0.0000
 40
0.0000
 41
0.0000
 70
1
  0
VERTEX
  8
16
 10
5.0862
 20
17.1656
 30
0.0000
  0
VERTEX
  8
16
 10
5.7706
 20
17.8500
 30
0.0000
 42
1.0000
  0
VERTEX
  8
16
 10
5.5551
 20
18.0656
 30
0.0000
  0
VERTEX
  8
16
 10
4.8706
 20
17.3811
 30
0.0000
 42
1.0000
  0
SEQEND
  8
0
  0
POLYLINE
  8
16
 66
1
 10
0.0000
 20
0.0000
 30
0.0000
 40
0.0000
 41
0.0000
 70
1
  0
VERTEX
  8
16
 10
18.3388
 20
16.9418
 30
0.0000
  0
VERTEX
  8
16
 10
15.8256
 20
16.9418
 30
0.0000
 42
1.0000
  0
VERTEX
  8
16
 10
15.8256
 20
16.6370
 30
0.0000
  0
VERTEX
  8
16
 10
18.3388
 20
16.6370
 30
0.0000
 42
1.0000
  0
SEQEND
  8
0
  0
POLYLINE
  8
16
 66
1
 10
0.0000
 20
0.0000
 30
0.0000
 40
0.0000
 41
0.0000
 70
1
  0
VERTEX
  8
16
 10
5.6628
 20
17.8054
 30
0.0000
  0
VERTEX
  8
16
 10
6.2738
 20
17.8054
 30
0.0000
 42
1.0000
  0
VERTEX
  8
16
 10
6.2738
 20
18.1102
 30
0.0000
  0
VERTEX
  8
16
 10
5.6628
 20
18.1102
 30
0.0000
 42
1.0000
  0
SEQEND
  8
0
  0
POLYLINE
  8
16
 66
1
 10
0.0000
 20
0.0000
 30
0.0000
 40
0.0000
 41
0.0000
 70
1
  0
VERTEX
  8
16
 10
6.3816
 20
17.8500
 30
0.0000
  0
VERTEX
  8
16
 10
6.4578
 20
17.9262
 30
0.0000
 42
1.0000
  0
VERTEX
  8
16
 10
6.2422
 20
18.1418
 30
0.0000
  0
VERTEX
  8
16
 10
6.1660
 20
18.0656
 30
0.0000
 42
1.0000
  0
SEQEND
  8
0
  0
POLYLINE
  8
16
 66
1
 10
0.0000
 20
0.0000
 30
0.0000
 40
0.0000
 41
0.0000
 70
1
  0
VERTEX
  8
16
 10
15.9333
 20
16.8972
 30
0.0000
  0
VERTEX
  8
16
 10
14.7649
 20
18.0656
 30
0.0000
 42
1.0000
  0
VERTEX
  8
16
 10
14.5494
 20
17.8500
 30
0.0000
  0
VERTEX
  8
16
 10
15.7178
 20
16.6816
 30
0.0000
 42
1.0000
  0
SEQEND
  8
0
  0
POLYLINE
  8
16
 66
1
 10
0.0000
 20
0.0000
 30
0.0000
 40
0.0000
 41
0.0000
 70
1
  0
VERTEX
  8
16
 10
14.6572
 20
18.1102
 30
0.0000
  0
VERTEX
  8
16
 10
10.4916
 20
18.1102
 30
0.0000
 42
1.0000
  0
VERTEX
  8
16
 10
10.4916
 20
17.8054
 30
0.0000
  0
VERTEX
  8
16
 10
14.6572
 20
17.8054
 30
0.0000
 42
1.0000
  0
SEQEND
  8
0
  0
POLYLINE
  8
16
 66
1
 10
0.0000
 20
0.0000
 30
0.0000
 40
0.0000
 41
0.0000
 70
1
  0
VERTEX
  8
16
 10
10.3838
 20
18.0656
 30
0.0000
  0
VERTEX
  8
16
 10
8.0470
 20
15.7288
 30
0.0000
 42
1.0000
  0
VERTEX
  8
16
 10
8.2625
 20
15.5132
 30
0.0000
  0
VERTEX
  8
16
 10
10.5993
 20
17.8500
 30
0.0000
 42
1.0000
  0
SEQEND
  8
0
  0
POLYLINE
  8
16
 66
1
 10
0.0000
 20
0.0000
 30
0.0000
 40
0.0000
 41
0.0000
 70
1
  0
VERTEX
  8
16
 10
4.0448
 20
23.9336
 30
0.0000
  0
VERTEX
  8
16
 10
4.9970
 20
24.8858
 30
0.0000
 42
1.0000
  0
VERTEX
  8
16
 10
4.7815
 20
25.1014
 30
0.0000
  0
VERTEX
  8
16
 10
3.8292
 20
24.1491
 30
0.0000
 42
1.0000
  0
SEQEND
  8
0
  0
POLYLINE
  8
16
 66
1
 10
0.0000
 20
0.0000
 30
0.0000
 40
0.0000
 41
0.0000
 70
1
  0
VERTEX
  8
16
 10
4.8892
 20
24.8412
 30
0.0000
  0
VERTEX
  8
16
 10
7.5568
 20
24.8412
 30
0.0000
 42
1.0000
  0
VERTEX
  8
16
 10
7.5568
 20
25.1460
 30
0.0000
  0
VERTEX
  8
16
 10
4.8892
 20
25.1460
 30
0.0000
 42
1.0000
  0
SEQEND
  8
0
  0
POLYLINE
  8
16
 66
1
 10
0.0000
 20
0.0000
 30
0.0000
 40
0.0000
 41
0.0000
 70
1
  0
VERTEX
  8
16
 10
7.4490
 20
24.8858
 30
0.0000
  0
VERTEX
  8
16
 10
7.9570
 20
24.3778
 30
0.0000
 42
1.0000
  0
VERTEX
  8
16
 10
8.1725
 20
24.5934
 30
0.0000
  0
VERTEX
  8
16
 10
7.6645
 20
25.1014
 30
0.0000
 42
1.0000
  0
SEQEND
  8
0
  0
POLYLINE
  8
16
 66
1
 10
0.0000
 20
0.0000
 30
0.0000
 40
0.0000
 41
0.0000
 70
1
  0
VERTEX
  8
16
 10
6.4578
 20
18.1418
 30
0.0000
  0
VERTEX
  8
16
 10
4.0448
 20
20.5548
 30
0.0000
 42
1.0000
  0
VERTEX
  8
16
 10
3.8292
 20
20.3392
 30
0.0000
  0
VERTEX
  8
16
 10
6.2422
 20
17.9262
 30
0.0000
 42
1.0000
  0
SEQEND
  8
0
  0
POLYLINE
  8
16
 66
1
 10
0.0000
 20
0.0000
 30
0.0000
 40
0.0000
 41
0.0000
 70
1
  0
VERTEX
  8
16
 10
4.0894
 20
20.4470
 30
0.0000
  0
VERTEX
  8
16
 10
4.0894
 20
24.0414
 30
0.0000
 42
1.0000
  0
VERTEX
  8
16
 10
3.7846
 20
24.0414
 30
0.0000
  0
VERTEX
  8
16
 10
3.7846
 20
20.4470
 30
0.0000
 42
1.0000
  0
SEQEND
  8
0
  0
POLYLINE
  8
16
 66
1
 10
0.0000
 20
0.0000
 30
0.0000
 40
0.0000
 41
0.0000
 70
1
  0
VERTEX
  8
16
 10
13.6939
 20
25.4446
 30
0.0000
  0
VERTEX
  8
16
 10
14.2810
 20
26.0317
 30
0.0000
 42
1.0000
  0
VERTEX
  8
16
 10
14.0654
 20
26.2472
 30
0.0000
  0
VERTEX
  8
16
 10
13.4784
 20
25.6602
 30
0.0000
 42
1.0000
  0
SEQEND
  8
0
  0
POLYLINE
  8
16
 66
1
 10
0.0000
 20
0.0000
 30
0.0000
 40
0.0000
 41
0.0000
 70
1
  0
VERTEX
  8
16
 10
11.3187
 20
24.3778
 30
0.0000
  0
VERTEX
  8
16
 10
12.3855
 20
25.4446
 30
0.0000
 42
1.0000
  0
VERTEX
  8
16
 10
12.1700
 20
25.6602
 30
0.0000
  0
VERTEX
  8
16
 10
11.1032
 20
24.5934
 30
0.0000
 42
1.0000
  0
SEQEND
  8
0
  0
POLYLINE
  8
16
 66
1
 10
0.0000
 20
0.0000
 30
0.0000
 40
0.0000
 41
0.0000
 70
1
  0
VERTEX
  8
16
 10
12.2778
 20
25.4000
 30
0.0000
  0
VERTEX
  8
16
 10
13.5861
 20
25.4000
 30
0.0000
 42
1.0000
  0
VERTEX
  8
16
 10
13.5861
 20
25.7048
 30
0.0000
  0
VERTEX
  8
16
 10
12.2778
 20
25.7048
 30
0.0000
 42
1.0000
  0
SEQEND
  8
0
  0
POLYLINE
  8
16
 66
1
 10
0.0000
 20
0.0000
 30
0.0000
 40
0.0000
 41
0.0000
 70
1
  0
VERTEX
  8
16
 10
14.3256
 20
26.1395
 30
0.0000
  0
VERTEX
  8
16
 10
14.3256
 20
27.8892
 30
0.0000
 42
1.0000
  0
VERTEX
  8
16
 10
14.0208
 20
27.8892
 30
0.0000
  0
VERTEX
  8
16
 10
14.0208
 20
26.1395
 30
0.0000
 42
1.0000
  0
SEQEND
  8
0
  0
POLYLINE
  8
16
 66
1
 10
0.0000
 20
0.0000
 30
0.0000
 40
0.0000
 41
0.0000
 70
1
  0
VERTEX
  8
16
 10
14.2810
 20
27.7814
 30
0.0000
  0
VERTEX
  8
16
 10
14.5858
 20
28.0862
 30
0.0000
 42
1.0000
  0
VERTEX
  8
16
 10
14.3702
 20
28.3018
 30
0.0000
  0
VERTEX
  8
16
 10
14.0654
 20
27.9970
 30
0.0000
 42
1.0000
  0
SEQEND
  8
0
  0
POLYLINE
  8
16
 66
1
 10
0.0000
 20
0.0000
 30
0.0000
 40
0.0000
 41
0.0000
 70
1
  0
VERTEX
  8
16
 10
14.4780
 20
28.0416
 30
0.0000
  0
VERTEX
  8
16
 10
15.7480
 20
28.0416
 30
0.0000
 42
1.0000
  0
VERTEX
  8
16
 10
15.7480
 20
28.3464
 30
0.0000
  0
VERTEX
  8
16
 10
14.4780
 20
28.3464
 30
0.0000
 42
1.0000
  0
SEQEND
  8
0
  0
POLYLINE
  8
16
 66
1
 10
0.0000
 20
0.0000
 30
0.0000
 40
0.0000
 41
0.0000
 70
1
  0
VERTEX
  8
16
 10
15.6402
 20
28.0862
 30
0.0000
  0
VERTEX
  8
16
 10
16.4022
 20
27.3242
 30
0.0000
 42
1.0000
  0
VERTEX
  8
16
 10
16.6178
 20
27.5398
 30
0.0000
  0
VERTEX
  8
16
 10
15.8558
 20
28.3018
 30
0.0000
 42
1.0000
  0
SEQEND
  8
0
  0
POLYLINE
  8
16
 66
1
 10
0.0000
 20
0.0000
 30
0.0000
 40
0.0000
 41
0.0000
 70
1
  0
VERTEX
  8
16
 10
16.5100
 20
27.2796
 30
0.0000
  0
VERTEX
  8
16
 10
16.7640
 20
27.2796
 30
0.0000
 42
1.0000
  0
VERTEX
  8
16
 10
16.7640
 20
27.5844
 30
0.0000
  0
VERTEX
  8
16
 10
16.5100
 20
27.5844
 30
0.0000
 42
1.0000
  0
SEQEND
  8
0
  0
POLYLINE
  8
16
 66
1
 10
0.0000
 20
0.0000
 30
0.0000
 40
0.0000
 41
0.0000
 70
1
  0
VERTEX
  8
16
 10
16.6562
 20
27.3242
 30
0.0000
  0
VERTEX
  8
16
 10
17.6722
 20
26.3082
 30
0.0000
 42
1.0000
  0
VERTEX
  8
16
 10
17.8878
 20
26.5238
 30
0.0000
  0
VERTEX
  8
16
 10
16.8718
 20
27.5398
 30
0.0000
 42
1.0000
  0
SEQEND
  8
0
  0
POLYLINE
  8
16
 66
1
 10
0.0000
 20
0.0000
 30
0.0000
 40
0.0000
 41
0.0000
 70
1
  0
VERTEX
  8
16
 10
8.0648
 20
24.3332
 30
0.0000
  0
VERTEX
  8
16
 10
11.2110
 20
24.3332
 30
0.0000
 42
1.0000
  0
VERTEX
  8
16
 10
11.2110
 20
24.6380
 30
0.0000
  0
VERTEX
  8
16
 10
8.0648
 20
24.6380
 30
0.0000
 42
1.0000
  0
SEQEND
  8
0
  0
POLYLINE
  8
16
 66
1
 10
0.0000
 20
0.0000
 30
0.0000
 40
0.0000
 41
0.0000
 70
1
  0
VERTEX
  8
16
 10
20.1676
 20
26.4160
 30
0.0000
  0
VERTEX
  8
16
 10
20.1676
 20
22.8600
 30
0.0000
 42
1.0000
  0
VERTEX
  8
16
 10
20.4724
 20
22.8600
 30
0.0000
  0
VERTEX
  8
16
 10
20.4724
 20
26.4160
 30
0.0000
 42
1.0000
  0
SEQEND
  8
0
  0
POLYLINE
  8
16
 66
1
 10
0.0000
 20
0.0000
 30
0.0000
 40
0.0000
 41
0.0000
 70
1
  0
VERTEX
  8
16
 10
20.2122
 20
22.7522
 30
0.0000
  0
VERTEX
  8
16
 10
23.5142
 20
19.4502
 30
0.0000
 42
1.0000
  0
VERTEX
  8
16
 10
23.7298
 20
19.6658
 30
0.0000
  0
VERTEX
  8
16
 10
20.4278
 20
22.9678
 30
0.0000
 42
1.0000
  0
SEQEND
  8
0
  0
POLYLINE
  8
16
 66
1
 10
0.0000
 20
0.0000
 30
0.0000
 40
0.0000
 41
0.0000
 70
1
  0
VERTEX
  8
16
 10
23.6220
 20
19.4056
 30
0.0000
  0
VERTEX
  8
16
 10
26.9240
 20
19.4056
 30
0.0000
 42
1.0000
  0
VERTEX
  8
16
 10
26.9240
 20
19.7104
 30
0.0000
  0
VERTEX
  8
16
 10
23.6220
 20
19.7104
 30
0.0000
 42
1.0000
  0
SEQEND
  8
0
  0
POLYLINE
  8
16
 66
1
 10
0.0000
 20
0.0000
 30
0.0000
 40
0.0000
 41
0.0000
 70
1
  0
VERTEX
  8
16
 10
26.8162
 20
19.4502
 30
0.0000
  0
VERTEX
  8
16
 10
28.3402
 20
17.9262
 30
0.0000
 42
1.0000
  0
VERTEX
  8
16
 10
28.5558
 20
18.1418
 30
0.0000
  0
VERTEX
  8
16
 10
27.0318
 20
19.6658
 30
0.0000
 42
1.0000
  0
SEQEND
  8
0
  0
POLYLINE
  8
16
 66
1
 10
0.0000
 20
0.0000
 30
0.0000
 40
0.0000
 41
0.0000
 70
1
  0
VERTEX
  8
16
 10
28.2956
 20
18.0340
 30
0.0000
  0
VERTEX
  8
16
 10
28.2956
 20
16.8402
 30
0.0000
 42
1.0000
  0
VERTEX
  8
16
 10
28.6004
 20
16.8402
 30
0.0000
  0
VERTEX
  8
16
 10
28.6004
 20
18.0340
 30
0.0000
 42
1.0000
  0
SEQEND
  8
0
  0
POLYLINE
  8
16
 66
1
 10
0.0000
 20
0.0000
 30
0.0000
 40
0.0000
 41
0.0000
 70
1
  0
VERTEX
  8
16
 10
28.3402
 20
16.7324
 30
0.0000
  0
VERTEX
  8
16
 10
28.3910
 20
16.6816
 30
0.0000
 42
1.0000
  0
VERTEX
  8
16
 10
28.6066
 20
16.8972
 30
0.0000
  0
VERTEX
  8
16
 10
28.5558
 20
16.9480
 30
0.0000
 42
1.0000
  0
SEQEND
  8
0
  0
POLYLINE
  8
16
 66
1
 10
0.0000
 20
0.0000
 30
0.0000
 40
0.0000
 41
0.0000
 70
1
  0
VERTEX
  8
16
 10
13.5636
 20
21.3106
 30
0.0000
  0
VERTEX
  8
16
 10
13.5636
 20
22.9362
 30
0.0000
 42
1.0000
  0
VERTEX
  8
16
 10
13.2588
 20
22.9362
 30
0.0000
  0
VERTEX
  8
16
 10
13.2588
 20
21.3106
 30
0.0000
 42
1.0000
  0
SEQEND
  8
0
  0
POLYLINE
  8
16
 66
1
 10
0.0000
 20
0.0000
 30
0.0000
 40
0.0000
 41
0.0000
 70
1
  0
VERTEX
  8
16
 10
13.5190
 20
22.8284
 30
0.0000
  0
VERTEX
  8
16
 10
13.9508
 20
23.2602
 30
0.0000
 42
1.0000
  0
VERTEX
  8
16
 10
13.7352
 20
23.4758
 30
0.0000
  0
VERTEX
  8
16
 10
13.3034
 20
23.0440
 30
0.0000
 42
1.0000
  0
SEQEND
  8
0
  0
POLYLINE
  8
16
 66
1
 10
0.0000
 20
0.0000
 30
0.0000
 40
0.0000
 41
0.0000
 70
1
  0
VERTEX
  8
16
 10
24.9936
 20
21.3106
 30
0.0000
  0
VERTEX
  8
16
 10
24.9936
 20
22.8092
 30
0.0000
 42
1.0000
  0
VERTEX
  8
16
 10
24.6888
 20
22.8092
 30
0.0000
  0
VERTEX
  8
16
 10
24.6888
 20
21.3106
 30
0.0000
 42
1.0000
  0
SEQEND
  8
0
  0
POLYLINE
  8
16
 66
1
 10
0.0000
 20
0.0000
 30
0.0000
 40
0.0000
 41
0.0000
 70
1
  0
VERTEX
  8
16
 10
24.9490
 20
22.7014
 30
0.0000
  0
VERTEX
  8
16
 10
25.5078
 20
23.2602
 30
0.0000
 42
1.0000
  0
VERTEX
  8
16
 10
25.2922
 20
23.4758
 30
0.0000
  0
VERTEX
  8
16
 10
24.7334
 20
22.9170
 30
0.0000
 42
1.0000
  0
SEQEND
  8
0
  0
POLYLINE
  8
16
 66
1
 10
0.0000
 20
0.0000
 30
0.0000
 40
0.0000
 41
0.0000
 70
1
  0
VERTEX
  8
16
 10
35.1536
 20
21.3106
 30
0.0000
  0
VERTEX
  8
16
 10
35.1536
 20
22.4282
 30
0.0000
 42
1.0000
  0
VERTEX
  8
16
 10
34.8488
 20
22.4282
 30
0.0000
  0
VERTEX
  8
16
 10
34.8488
 20
21.3106
 30
0.0000
 42
1.0000
  0
SEQEND
  8
0
  0
POLYLINE
  8
16
 66
1
 10
0.0000
 20
0.0000
 30
0.0000
 40
0.0000
 41
0.0000
 70
1
  0
VERTEX
  8
16
 10
35.1090
 20
22.3204
 30
0.0000
  0
VERTEX
  8
16
 10
36.0488
 20
23.2602
 30
0.0000
 42
1.0000
  0
VERTEX
  8
16
 10
35.8332
 20
23.4758
 30
0.0000
  0
VERTEX
  8
16
 10
34.8934
 20
22.5360
 30
0.0000
 42
1.0000
  0
SEQEND
  8
0
  0
POLYLINE
  8
16
 66
1
 10
0.0000
 20
0.0000
 30
0.0000
 40
0.0000
 41
0.0000
 70
1
  0
VERTEX
  8
16
 10
33.8630
 20
8.1088
 30
0.0000
  0
VERTEX
  8
16
 10
33.1786
 20
8.7932
 30
0.0000
 42
1.0000
  0
VERTEX
  8
16
 10
32.9630
 20
8.5777
 30
0.0000
  0
VERTEX
  8
16
 10
33.6475
 20
7.8932
 30
0.0000
 42
1.0000
  0
SEQEND
  8
0
  0
POLYLINE
  8
16
 66
1
 10
0.0000
 20
0.0000
 30
0.0000
 40
0.0000
 41
0.0000
 70
1
  0
VERTEX
  8
16
 10
33.2232
 20
8.6854
 30
0.0000
  0
VERTEX
  8
16
 10
33.2232
 20
9.6534
 30
0.0000
 42
1.0000
  0
VERTEX
  8
16
 10
32.9184
 20
9.6534
 30
0.0000
  0
VERTEX
  8
16
 10
32.9184
 20
8.6854
 30
0.0000
 42
1.0000
  0
SEQEND
  8
0
  0
POLYLINE
  8
16
 66
1
 10
0.0000
 20
0.0000
 30
0.0000
 40
0.0000
 41
0.0000
 70
1
  0
VERTEX
  8
16
 10
33.1786
 20
9.5456
 30
0.0000
  0
VERTEX
  8
16
 10
33.6358
 20
10.0028
 30
0.0000
 42
1.0000
  0
VERTEX
  8
16
 10
33.4202
 20
10.2183
 30
0.0000
  0
VERTEX
  8
16
 10
32.9630
 20
9.7611
 30
0.0000
 42
1.0000
  0
SEQEND
  8
0
  0
POLYLINE
  8
16
 66
1
 10
0.0000
 20
0.0000
 30
0.0000
 40
0.0000
 41
0.0000
 70
1
  0
VERTEX
  8
16
 10
36.0488
 20
7.2198
 30
0.0000
  0
VERTEX
  8
16
 10
35.1598
 20
8.1088
 30
0.0000
 42
1.0000
  0
VERTEX
  8
16
 10
34.9442
 20
7.8932
 30
0.0000
  0
VERTEX
  8
16
 10
35.8332
 20
7.0042
 30
0.0000
 42
1.0000
  0
SEQEND
  8
0
  0
POLYLINE
  8
16
 66
1
 10
0.0000
 20
0.0000
 30
0.0000
 40
0.0000
 41
0.0000
 70
1
  0
VERTEX
  8
16
 10
35.0520
 20
8.1534
 30
0.0000
  0
VERTEX
  8
16
 10
33.7552
 20
8.1534
 30
0.0000
 42
1.0000
  0
VERTEX
  8
16
 10
33.7552
 20
7.8486
 30
0.0000
  0
VERTEX
  8
16
 10
35.0520
 20
7.8486
 30
0.0000
 42
1.0000
  0
SEQEND
  8
0
  0
POLYLINE
  8
16
 66
1
 10
0.0000
 20
0.0000
 30
0.0000
 40
0.0000
 41
0.0000
 70
1
  0
VERTEX
  8
16
 10
33.6358
 20
11.3222
 30
0.0000
  0
VERTEX
  8
16
 10
34.9058
 20
12.5922
 30
0.0000
 42
1.0000
  0
VERTEX
  8
16
 10
34.6902
 20
12.8078
 30
0.0000
  0
VERTEX
  8
16
 10
33.4202
 20
11.5378
 30
0.0000
 42
1.0000
  0
SEQEND
  8
0
  0
POLYLINE
  8
16
 66
1
 10
0.0000
 20
0.0000
 30
0.0000
 40
0.0000
 41
0.0000
 70
1
  0
VERTEX
  8
16
 10
34.9504
 20
12.7000
 30
0.0000
  0
VERTEX
  8
16
 10
34.9504
 20
13.4874
 30
0.0000
 42
1.0000
  0
VERTEX
  8
16
 10
34.6456
 20
13.4874
 30
0.0000
  0
VERTEX
  8
16
 10
34.6456
 20
12.7000
 30
0.0000
 42
1.0000
  0
SEQEND
  8
0
  0
POLYLINE
  8
16
 66
1
 10
0.0000
 20
0.0000
 30
0.0000
 40
0.0000
 41
0.0000
 70
1
  0
VERTEX
  8
16
 10
34.9058
 20
13.3796
 30
0.0000
  0
VERTEX
  8
16
 10
35.1090
 20
13.5828
 30
0.0000
 42
1.0000
  0
VERTEX
  8
16
 10
34.8934
 20
13.7984
 30
0.0000
  0
VERTEX
  8
16
 10
34.6902
 20
13.5952
 30
0.0000
 42
1.0000
  0
SEQEND
  8
0
  0
POLYLINE
  8
16
 66
1
 10
0.0000
 20
0.0000
 30
0.0000
 40
0.0000
 41
0.0000
 70
1
  0
VERTEX
  8
16
 10
33.6804
 20
10.1106
 30
0.0000
  0
VERTEX
  8
16
 10
33.6804
 20
11.4300
 30
0.0000
 42
1.0000
  0
VERTEX
  8
16
 10
33.3756
 20
11.4300
 30
0.0000
  0
VERTEX
  8
16
 10
33.3756
 20
10.1106
 30
0.0000
 42
1.0000
  0
SEQEND
  8
0
  0
POLYLINE
  8
16
 66
1
 10
0.0000
 20
0.0000
 30
0.0000
 40
0.0000
 41
0.0000
 70
1
  0
VERTEX
  8
16
 10
23.7030
 20
8.1088
 30
0.0000
  0
VERTEX
  8
16
 10
23.0186
 20
8.7932
 30
0.0000
 42
1.0000
  0
VERTEX
  8
16
 10
22.8030
 20
8.5777
 30
0.0000
  0
VERTEX
  8
16
 10
23.4875
 20
7.8932
 30
0.0000
 42
1.0000
  0
SEQEND
  8
0
  0
POLYLINE
  8
16
 66
1
 10
0.0000
 20
0.0000
 30
0.0000
 40
0.0000
 41
0.0000
 70
1
  0
VERTEX
  8
16
 10
23.0632
 20
8.6854
 30
0.0000
  0
VERTEX
  8
16
 10
23.0632
 20
9.6534
 30
0.0000
 42
1.0000
  0
VERTEX
  8
16
 10
22.7584
 20
9.6534
 30
0.0000
  0
VERTEX
  8
16
 10
22.7584
 20
8.6854
 30
0.0000
 42
1.0000
  0
SEQEND
  8
0
  0
POLYLINE
  8
16
 66
1
 10
0.0000
 20
0.0000
 30
0.0000
 40
0.0000
 41
0.0000
 70
1
  0
VERTEX
  8
16
 10
25.5078
 20
7.2198
 30
0.0000
  0
VERTEX
  8
16
 10
24.6188
 20
8.1088
 30
0.0000
 42
1.0000
  0
VERTEX
  8
16
 10
24.4032
 20
7.8932
 30
0.0000
  0
VERTEX
  8
16
 10
25.2922
 20
7.0042
 30
0.0000
 42
1.0000
  0
SEQEND
  8
0
  0
POLYLINE
  8
16
 66
1
 10
0.0000
 20
0.0000
 30
0.0000
 40
0.0000
 41
0.0000
 70
1
  0
VERTEX
  8
16
 10
24.5110
 20
8.1534
 30
0.0000
  0
VERTEX
  8
16
 10
23.5952
 20
8.1534
 30
0.0000
 42
1.0000
  0
VERTEX
  8
16
 10
23.5952
 20
7.8486
 30
0.0000
  0
VERTEX
  8
16
 10
24.5110
 20
7.8486
 30
0.0000
 42
1.0000
  0
SEQEND
  8
0
  0
POLYLINE
  8
16
 66
1
 10
0.0000
 20
0.0000
 30
0.0000
 40
0.0000
 41
0.0000
 70
1
  0
VERTEX
  8
16
 10
23.0186
 20
9.5456
 30
0.0000
  0
VERTEX
  8
16
 10
24.9490
 20
11.4760
 30
0.0000
 42
1.0000
  0
VERTEX
  8
16
 10
24.7334
 20
11.6915
 30
0.0000
  0
VERTEX
  8
16
 10
22.8030
 20
9.7611
 30
0.0000
 42
1.0000
  0
SEQEND
  8
0
  0
POLYLINE
  8
16
 66
1
 10
0.0000
 20
0.0000
 30
0.0000
 40
0.0000
 41
0.0000
 70
1
  0
VERTEX
  8
16
 10
24.9936
 20
11.5838
 30
0.0000
  0
VERTEX
  8
16
 10
24.9936
 20
13.6906
 30
0.0000
 42
1.0000
  0
VERTEX
  8
16
 10
24.6888
 20
13.6906
 30
0.0000
  0
VERTEX
  8
16
 10
24.6888
 20
11.5838
 30
0.0000
 42
1.0000
  0
SEQEND
  8
0
  0
POLYLINE
  8
16
 66
1
 10
0.0000
 20
0.0000
 30
0.0000
 40
0.0000
 41
0.0000
 70
1
  0
VERTEX
  8
16
 10
14.1224
 20
7.1120
 30
0.0000
  0
VERTEX
  8
16
 10
14.1224
 20
7.3138
 30
0.0000
 42
1.0000
  0
VERTEX
  8
16
 10
13.8176
 20
7.3138
 30
0.0000
  0
VERTEX
  8
16
 10
13.8176
 20
7.1120
 30
0.0000
 42
1.0000
  0
SEQEND
  8
0
  0
POLYLINE
  8
16
 66
1
 10
0.0000
 20
0.0000
 30
0.0000
 40
0.0000
 41
0.0000
 70
1
  0
VERTEX
  8
16
 10
14.0778
 20
7.2061
 30
0.0000
  0
VERTEX
  8
16
 10
15.4494
 20
8.5777
 30
0.0000
 42
1.0000
  0
VERTEX
  8
16
 10
15.2338
 20
8.7932
 30
0.0000
  0
VERTEX
  8
16
 10
13.8622
 20
7.4216
 30
0.0000
 42
1.0000
  0
SEQEND
  8
0
  0
POLYLINE
  8
16
 66
1
 10
0.0000
 20
0.0000
 30
0.0000
 40
0.0000
 41
0.0000
 70
1
  0
VERTEX
  8
16
 10
15.4940
 20
8.6854
 30
0.0000
  0
VERTEX
  8
16
 10
15.4940
 20
10.0584
 30
0.0000
 42
1.0000
  0
VERTEX
  8
16
 10
15.1892
 20
10.0584
 30
0.0000
  0
VERTEX
  8
16
 10
15.1892
 20
8.6854
 30
0.0000
 42
1.0000
  0
SEQEND
  8
0
  0
POLYLINE
  8
16
 66
1
 10
0.0000
 20
0.0000
 30
0.0000
 40
0.0000
 41
0.0000
 70
1
  0
VERTEX
  8
16
 10
15.4494
 20
10.1662
 30
0.0000
  0
VERTEX
  8
16
 10
13.5698
 20
12.0458
 30
0.0000
 42
1.0000
  0
VERTEX
  8
16
 10
13.3542
 20
11.8302
 30
0.0000
  0
VERTEX
  8
16
 10
15.2338
 20
9.9506
 30
0.0000
 42
1.0000
  0
SEQEND
  8
0
  0
POLYLINE
  8
16
 66
1
 10
0.0000
 20
0.0000
 30
0.0000
 40
0.0000
 41
0.0000
 70
1
  0
VERTEX
  8
16
 10
13.6144
 20
11.9380
 30
0.0000
  0
VERTEX
  8
16
 10
13.6144
 20
13.6398
 30
0.0000
 42
1.0000
  0
VERTEX
  8
16
 10
13.3096
 20
13.6398
 30
0.0000
  0
VERTEX
  8
16
 10
13.3096
 20
11.9380
 30
0.0000
 42
1.0000
  0
SEQEND
  8
0
  0
POLYLINE
  8
16
 66
1
 10
0.0000
 20
0.0000
 30
0.0000
 40
0.0000
 41
0.0000
 70
1
  0
VERTEX
  8
16
 10
13.5698
 20
13.7476
 30
0.0000
  0
VERTEX
  8
16
 10
13.5190
 20
13.7984
 30
0.0000
 42
1.0000
  0
VERTEX
  8
16
 10
13.3034
 20
13.5828
 30
0.0000
  0
VERTEX
  8
16
 10
13.3542
 20
13.5320
 30
0.0000
 42
1.0000
  0
SEQEND
  8
0
  0
POLYLINE
  8
16
 66
1
 10
0.0000
 20
0.0000
 30
0.0000
 40
0.0000
 41
0.0000
 70
1
  0
VERTEX
  8
16
 10
12.8677
 20
5.8928
 30
0.0000
  0
VERTEX
  8
16
 10
15.0723
 20
5.8928
 30
0.0000
 42
1.0000
  0
VERTEX
  8
16
 10
15.0723
 20
6.1976
 30
0.0000
  0
VERTEX
  8
16
 10
12.8677
 20
6.1976
 30
0.0000
 42
1.0000
  0
SEQEND
  8
0
  0
POLYLINE
  8
16
 66
1
 10
0.0000
 20
0.0000
 30
0.0000
 40
0.0000
 41
0.0000
 70
1
  0
VERTEX
  8
16
 10
6.3500
 20
6.9596
 30
0.0000
  0
VERTEX
  8
16
 10
11.8009
 20
6.9596
 30
0.0000
 42
1.0000
  0
VERTEX
  8
16
 10
11.8009
 20
7.2644
 30
0.0000
  0
VERTEX
  8
16
 10
6.3500
 20
7.2644
 30
0.0000
 42
1.0000
  0
SEQEND
  8
0
  0
POLYLINE
  8
16
 66
1
 10
0.0000
 20
0.0000
 30
0.0000
 40
0.0000
 41
0.0000
 70
1
  0
VERTEX
  8
16
 10
17.7800
 20
7.2644
 30
0.0000
  0
VERTEX
  8
16
 10
16.1391
 20
7.2644
 30
0.0000
 42
1.0000
  0
VERTEX
  8
16
 10
16.1391
 20
6.9596
 30
0.0000
  0
VERTEX
  8
16
 10
17.7800
 20
6.9596
 30
0.0000
 42
1.0000
  0
SEQEND
  8
0
  0
POLYLINE
  8
16
 66
1
 10
0.0000
 20
0.0000
 30
0.0000
 40
0.0000
 41
0.0000
 70
1
  0
VERTEX
  8
16
 10
11.6931
 20
7.0042
 30
0.0000
  0
VERTEX
  8
16
 10
12.7599
 20
5.9374
 30
0.0000
 42
1.0000
  0
VERTEX
  8
16
 10
12.9755
 20
6.1530
 30
0.0000
  0
VERTEX
  8
16
 10
11.9087
 20
7.2198
 30
0.0000
 42
1.0000
  0
SEQEND
  8
0
  0
POLYLINE
  8
16
 66
1
 10
0.0000
 20
0.0000
 30
0.0000
 40
0.0000
 41
0.0000
 70
1
  0
VERTEX
  8
16
 10
15.1801
 20
5.9374
 30
0.0000
  0
VERTEX
  8
16
 10
16.2469
 20
7.0042
 30
0.0000
 42
1.0000
  0
VERTEX
  8
16
 10
16.0313
 20
7.2198
 30
0.0000
  0
VERTEX
  8
16
 10
14.9645
 20
6.1530
 30
0.0000
 42
1.0000
  0
SEQEND
  8
0
  0
POLYLINE
  8
16
 66
1
 10
0.0000
 20
0.0000
 30
0.0000
 40
0.0000
 41
0.0000
 70
1
  0
VERTEX
  8
16
 10
24.2977
 20
5.8928
 30
0.0000
  0
VERTEX
  8
16
 10
26.5023
 20
5.8928
 30
0.0000
 42
1.0000
  0
VERTEX
  8
16
 10
26.5023
 20
6.1976
 30
0.0000
  0
VERTEX
  8
16
 10
24.2977
 20
6.1976
 30
0.0000
 42
1.0000
  0
SEQEND
  8
0
  0
POLYLINE
  8
16
 66
1
 10
0.0000
 20
0.0000
 30
0.0000
 40
0.0000
 41
0.0000
 70
1
  0
VERTEX
  8
16
 10
17.7800
 20
6.9596
 30
0.0000
  0
VERTEX
  8
16
 10
23.2309
 20
6.9596
 30
0.0000
 42
1.0000
  0
VERTEX
  8
16
 10
23.2309
 20
7.2644
 30
0.0000
  0
VERTEX
  8
16
 10
17.7800
 20
7.2644
 30
0.0000
 42
1.0000
  0
SEQEND
  8
0
  0
POLYLINE
  8
16
 66
1
 10
0.0000
 20
0.0000
 30
0.0000
 40
0.0000
 41
0.0000
 70
1
  0
VERTEX
  8
16
 10
27.5691
 20
6.9596
 30
0.0000
  0
VERTEX
  8
16
 10
28.3210
 20
6.9596
 30
0.0000
 42
1.0000
  0
VERTEX
  8
16
 10
28.3210
 20
7.2644
 30
0.0000
  0
VERTEX
  8
16
 10
27.5691
 20
7.2644
 30
0.0000
 42
1.0000
  0
SEQEND
  8
0
  0
POLYLINE
  8
16
 66
1
 10
0.0000
 20
0.0000
 30
0.0000
 40
0.0000
 41
0.0000
 70
1
  0
VERTEX
  8
16
 10
23.1231
 20
7.0042
 30
0.0000
  0
VERTEX
  8
16
 10
24.1899
 20
5.9374
 30
0.0000
 42
1.0000
  0
VERTEX
  8
16
 10
24.4055
 20
6.1530
 30
0.0000
  0
VERTEX
  8
16
 10
23.3387
 20
7.2198
 30
0.0000
 42
1.0000
  0
SEQEND
  8
0
  0
POLYLINE
  8
16
 66
1
 10
0.0000
 20
0.0000
 30
0.0000
 40
0.0000
 41
0.0000
 70
1
  0
VERTEX
  8
16
 10
26.6101
 20
5.9374
 30
0.0000
  0
VERTEX
  8
16
 10
27.6769
 20
7.0042
 30
0.0000
 42
1.0000
  0
VERTEX
  8
16
 10
27.4613
 20
7.2198
 30
0.0000
  0
VERTEX
  8
16
 10
26.3945
 20
6.1530
 30
0.0000
 42
1.0000
  0
SEQEND
  8
0
  0
POLYLINE
  8
16
 66
1
 10
0.0000
 20
0.0000
 30
0.0000
 40
0.0000
 41
0.0000
 70
1
  0
VERTEX
  8
16
 10
29.8525
 20
7.8932
 30
0.0000
  0
VERTEX
  8
16
 10
30.5370
 20
8.5777
 30
0.0000
 42
1.0000
  0
VERTEX
  8
16
 10
30.3214
 20
8.7932
 30
0.0000
  0
VERTEX
  8
16
 10
29.6370
 20
8.1088
 30
0.0000
 42
1.0000
  0
SEQEND
  8
0
  0
POLYLINE
  8
16
 66
1
 10
0.0000
 20
0.0000
 30
0.0000
 40
0.0000
 41
0.0000
 70
1
  0
VERTEX
  8
16
 10
36.3549
 20
15.5132
 30
0.0000
  0
VERTEX
  8
16
 10
37.0394
 20
16.1977
 30
0.0000
 42
1.0000
  0
VERTEX
  8
16
 10
36.8238
 20
16.4132
 30
0.0000
  0
VERTEX
  8
16
 10
36.1394
 20
15.7288
 30
0.0000
 42
1.0000
  0
SEQEND
  8
0
  0
POLYLINE
  8
16
 66
1
 10
0.0000
 20
0.0000
 30
0.0000
 40
0.0000
 41
0.0000
 70
1
  0
VERTEX
  8
16
 10
37.0840
 20
16.3054
 30
0.0000
  0
VERTEX
  8
16
 10
37.0840
 20
17.2734
 30
0.0000
 42
1.0000
  0
VERTEX
  8
16
 10
36.7792
 20
17.2734
 30
0.0000
  0
VERTEX
  8
16
 10
36.7792
 20
16.3054
 30
0.0000
 42
1.0000
  0
SEQEND
  8
0
  0
POLYLINE
  8
16
 66
1
 10
0.0000
 20
0.0000
 30
0.0000
 40
0.0000
 41
0.0000
 70
1
  0
VERTEX
  8
16
 10
28.4288
 20
7.0042
 30
0.0000
  0
VERTEX
  8
16
 10
29.3178
 20
7.8932
 30
0.0000
 42
1.0000
  0
VERTEX
  8
16
 10
29.1022
 20
8.1088
 30
0.0000
  0
VERTEX
  8
16
 10
28.2132
 20
7.2198
 30
0.0000
 42
1.0000
  0
SEQEND
  8
0
  0
POLYLINE
  8
16
 66
1
 10
0.0000
 20
0.0000
 30
0.0000
 40
0.0000
 41
0.0000
 70
1
  0
VERTEX
  8
16
 10
29.2100
 20
7.8486
 30
0.0000
  0
VERTEX
  8
16
 10
29.7448
 20
7.8486
 30
0.0000
 42
1.0000
  0
VERTEX
  8
16
 10
29.7448
 20
8.1534
 30
0.0000
  0
VERTEX
  8
16
 10
29.2100
 20
8.1534
 30
0.0000
 42
1.0000
  0
SEQEND
  8
0
  0
POLYLINE
  8
16
 66
1
 10
0.0000
 20
0.0000
 30
0.0000
 40
0.0000
 41
0.0000
 70
1
  0
VERTEX
  8
16
 10
30.5816
 20
8.6854
 30
0.0000
  0
VERTEX
  8
16
 10
30.5816
 20
11.5330
 30
0.0000
 42
1.0000
  0
VERTEX
  8
16
 10
30.2768
 20
11.5330
 30
0.0000
  0
VERTEX
  8
16
 10
30.2768
 20
8.6854
 30
0.0000
 42
1.0000
  0
SEQEND
  8
0
  0
POLYLINE
  8
16
 66
1
 10
0.0000
 20
0.0000
 30
0.0000
 40
0.0000
 41
0.0000
 70
1
  0
VERTEX
  8
16
 10
30.5370
 20
11.4252
 30
0.0000
  0
VERTEX
  8
16
 10
34.6250
 20
15.5132
 30
0.0000
 42
1.0000
  0
VERTEX
  8
16
 10
34.4095
 20
15.7288
 30
0.0000
  0
VERTEX
  8
16
 10
30.3214
 20
11.6407
 30
0.0000
 42
1.0000
  0
SEQEND
  8
0
  0
POLYLINE
  8
16
 66
1
 10
0.0000
 20
0.0000
 30
0.0000
 40
0.0000
 41
0.0000
 70
1
  0
VERTEX
  8
16
 10
34.5172
 20
15.4686
 30
0.0000
  0
VERTEX
  8
16
 10
36.2472
 20
15.4686
 30
0.0000
 42
1.0000
  0
VERTEX
  8
16
 10
36.2472
 20
15.7734
 30
0.0000
  0
VERTEX
  8
16
 10
34.5172
 20
15.7734
 30
0.0000
 42
1.0000
  0
SEQEND
  8
0
  0
POLYLINE
  8
16
 66
1
 10
0.0000
 20
0.0000
 30
0.0000
 40
0.0000
 41
0.0000
 70
1
  0
VERTEX
  8
16
 10
36.2472
 20
18.1102
 30
0.0000
  0
VERTEX
  8
16
 10
34.3662
 20
18.1102
 30
0.0000
 42
1.0000
  0
VERTEX
  8
16
 10
34.3662
 20
17.8054
 30
0.0000
  0
VERTEX
  8
16
 10
36.2472
 20
17.8054
 30
0.0000
 42
1.0000
  0
SEQEND
  8
0
  0
POLYLINE
  8
16
 66
1
 10
0.0000
 20
0.0000
 30
0.0000
 40
0.0000
 41
0.0000
 70
1
  0
VERTEX
  8
16
 10
34.4740
 20
18.0656
 30
0.0000
  0
VERTEX
  8
16
 10
31.6038
 20
20.9358
 30
0.0000
 42
1.0000
  0
VERTEX
  8
16
 10
31.3882
 20
20.7202
 30
0.0000
  0
VERTEX
  8
16
 10
34.2584
 20
17.8500
 30
0.0000
 42
1.0000
  0
SEQEND
  8
0
  0
POLYLINE
  8
16
 66
1
 10
0.0000
 20
0.0000
 30
0.0000
 40
0.0000
 41
0.0000
 70
1
  0
VERTEX
  8
16
 10
31.6484
 20
20.8280
 30
0.0000
  0
VERTEX
  8
16
 10
31.6484
 20
22.6060
 30
0.0000
 42
1.0000
  0
VERTEX
  8
16
 10
31.3436
 20
22.6060
 30
0.0000
  0
VERTEX
  8
16
 10
31.3436
 20
20.8280
 30
0.0000
 42
1.0000
  0
SEQEND
  8
0
  0
POLYLINE
  8
16
 66
1
 10
0.0000
 20
0.0000
 30
0.0000
 40
0.0000
 41
0.0000
 70
1
  0
VERTEX
  8
16
 10
31.6038
 20
22.7138
 30
0.0000
  0
VERTEX
  8
16
 10
29.8258
 20
24.4918
 30
0.0000
 42
1.0000
  0
VERTEX
  8
16
 10
29.6102
 20
24.2762
 30
0.0000
  0
VERTEX
  8
16
 10
31.3882
 20
22.4982
 30
0.0000
 42
1.0000
  0
SEQEND
  8
0
  0
POLYLINE
  8
16
 66
1
 10
0.0000
 20
0.0000
 30
0.0000
 40
0.0000
 41
0.0000
 70
1
  0
VERTEX
  8
16
 10
29.7180
 20
24.5364
 30
0.0000
  0
VERTEX
  8
16
 10
29.4741
 20
24.5364
 30
0.0000
 42
1.0000
  0
VERTEX
  8
16
 10
29.4741
 20
24.2316
 30
0.0000
  0
VERTEX
  8
16
 10
29.7180
 20
24.2316
 30
0.0000
 42
1.0000
  0
SEQEND
  8
0
  0
POLYLINE
  8
16
 66
1
 10
0.0000
 20
0.0000
 30
0.0000
 40
0.0000
 41
0.0000
 70
1
  0
VERTEX
  8
16
 10
29.5819
 20
24.4918
 30
0.0000
  0
VERTEX
  8
16
 10
29.5311
 20
24.5426
 30
0.0000
 42
1.0000
  0
VERTEX
  8
16
 10
29.3155
 20
24.3270
 30
0.0000
  0
VERTEX
  8
16
 10
29.3663
 20
24.2762
 30
0.0000
 42
1.0000
  0
SEQEND
  8
0
  0
POLYLINE
  8
16
 66
1
 10
0.0000
 20
0.0000
 30
0.0000
 40
0.0000
 41
0.0000
 70
1
  0
VERTEX
  8
16
 10
29.4233
 20
24.5872
 30
0.0000
  0
VERTEX
  8
16
 10
28.6512
 20
24.5872
 30
0.0000
 42
1.0000
  0
VERTEX
  8
16
 10
28.6512
 20
24.2824
 30
0.0000
  0
VERTEX
  8
16
 10
29.4233
 20
24.2824
 30
0.0000
 42
1.0000
  0
SEQEND
  8
0
  0
POLYLINE
  8
16
 66
1
 10
0.0000
 20
0.0000
 30
0.0000
 40
0.0000
 41
0.0000
 70
1
  0
VERTEX
  8
16
 10
28.7590
 20
24.5426
 30
0.0000
  0
VERTEX
  8
16
 10
27.0318
 20
26.2698
 30
0.0000
 42
1.0000
  0
VERTEX
  8
16
 10
26.8162
 20
26.0542
 30
0.0000
  0
VERTEX
  8
16
 10
28.5434
 20
24.3270
 30
0.0000
 42
1.0000
  0
SEQEND
  8
0
  0
POLYLINE
  8
16
 66
1
 10
0.0000
 20
0.0000
 30
0.0000
 40
0.0000
 41
0.0000
 70
1
  0
VERTEX
  8
16
 10
26.9240
 20
26.3144
 30
0.0000
  0
VERTEX
  8
16
 10
25.6540
 20
26.3144
 30
0.0000
 42
1.0000
  0
VERTEX
  8
16
 10
25.6540
 20
26.0096
 30
0.0000
  0
VERTEX
  8
16
 10
26.9240
 20
26.0096
 30
0.0000
 42
1.0000
  0
SEQEND
  8
0
  0
POLYLINE
  8
16
 66
1
 10
0.0000
 20
0.0000
 30
0.0000
 40
0.0000
 41
0.0000
 70
1
  0
VERTEX
  8
16
 10
25.7618
 20
26.2698
 30
0.0000
  0
VERTEX
  8
16
 10
25.5078
 20
26.5238
 30
0.0000
 42
1.0000
  0
VERTEX
  8
16
 10
25.2922
 20
26.3082
 30
0.0000
  0
VERTEX
  8
16
 10
25.5462
 20
26.0542
 30
0.0000
 42
1.0000
  0
SEQEND
  8
0
  0
POLYLINE
  8
16
 66
1
 10
0.0000
 20
0.0000
 30
0.0000
 40
0.0000
 41
0.0000
 70
1
  0
VERTEX
  8
16
 10
37.0394
 20
17.3811
 30
0.0000
  0
VERTEX
  8
16
 10
36.3549
 20
18.0656
 30
0.0000
 42
1.0000
  0
VERTEX
  8
16
 10
36.1394
 20
17.8500
 30
0.0000
  0
VERTEX
  8
16
 10
36.8238
 20
17.1656
 30
0.0000
 42
1.0000
  0
SEQEND
  8
0
  0
POLYLINE
  8
16
 66
1
 10
0.0000
 20
0.0000
 30
0.0000
 40
0.0000
 41
0.0000
 70
1
  0
VERTEX
  8
16
 10
12.7407
 20
24.2824
 30
0.0000
  0
VERTEX
  8
16
 10
14.9453
 20
24.2824
 30
0.0000
 42
1.0000
  0
VERTEX
  8
16
 10
14.9453
 20
24.5872
 30
0.0000
  0
VERTEX
  8
16
 10
12.7407
 20
24.5872
 30
0.0000
 42
1.0000
  0
SEQEND
  8
0
  0
POLYLINE
  8
16
 66
1
 10
0.0000
 20
0.0000
 30
0.0000
 40
0.0000
 41
0.0000
 70
1
  0
VERTEX
  8
16
 10
6.2230
 20
23.2156
 30
0.0000
  0
VERTEX
  8
16
 10
11.6739
 20
23.2156
 30
0.0000
 42
1.0000
  0
VERTEX
  8
16
 10
11.6739
 20
23.5204
 30
0.0000
  0
VERTEX
  8
16
 10
6.2230
 20
23.5204
 30
0.0000
 42
1.0000
  0
SEQEND
  8
0
  0
POLYLINE
  8
16
 66
1
 10
0.0000
 20
0.0000
 30
0.0000
 40
0.0000
 41
0.0000
 70
1
  0
VERTEX
  8
16
 10
16.0121
 20
23.2156
 30
0.0000
  0
VERTEX
  8
16
 10
17.7800
 20
23.2156
 30
0.0000
 42
1.0000
  0
VERTEX
  8
16
 10
17.7800
 20
23.5204
 30
0.0000
  0
VERTEX
  8
16
 10
16.0121
 20
23.5204
 30
0.0000
 42
1.0000
  0
SEQEND
  8
0
  0
POLYLINE
  8
16
 66
1
 10
0.0000
 20
0.0000
 30
0.0000
 40
0.0000
 41
0.0000
 70
1
  0
VERTEX
  8
16
 10
11.7817
 20
23.2602
 30
0.0000
  0
VERTEX
  8
16
 10
12.8485
 20
24.3270
 30
0.0000
 42
1.0000
  0
VERTEX
  8
16
 10
12.6329
 20
24.5426
 30
0.0000
  0
VERTEX
  8
16
 10
11.5661
 20
23.4758
 30
0.0000
 42
1.0000
  0
SEQEND
  8
0
  0
POLYLINE
  8
16
 66
1
 10
0.0000
 20
0.0000
 30
0.0000
 40
0.0000
 41
0.0000
 70
1
  0
VERTEX
  8
16
 10
14.8375
 20
24.3270
 30
0.0000
  0
VERTEX
  8
16
 10
15.9043
 20
23.2602
 30
0.0000
 42
1.0000
  0
VERTEX
  8
16
 10
16.1199
 20
23.4758
 30
0.0000
  0
VERTEX
  8
16
 10
15.0531
 20
24.5426
 30
0.0000
 42
1.0000
  0
SEQEND
  8
0
  0
POLYLINE
  8
16
 66
1
 10
0.0000
 20
0.0000
 30
0.0000
 40
0.0000
 41
0.0000
 70
1
  0
VERTEX
  8
16
 10
18.9992
 20
25.3137
 30
0.0000
  0
VERTEX
  8
16
 10
18.9992
 20
27.2288
 30
0.0000
 42
1.0000
  0
VERTEX
  8
16
 10
18.6944
 20
27.2288
 30
0.0000
  0
VERTEX
  8
16
 10
18.6944
 20
25.3137
 30
0.0000
 42
1.0000
  0
SEQEND
  8
0
  0
POLYLINE
  8
16
 66
1
 10
0.0000
 20
0.0000
 30
0.0000
 40
0.0000
 41
0.0000
 70
1
  0
VERTEX
  8
16
 10
17.9324
 20
23.3680
 30
0.0000
  0
VERTEX
  8
16
 10
17.9324
 20
24.2469
 30
0.0000
 42
1.0000
  0
VERTEX
  8
16
 10
17.6276
 20
24.2469
 30
0.0000
  0
VERTEX
  8
16
 10
17.6276
 20
23.3680
 30
0.0000
 42
1.0000
  0
SEQEND
  8
0
  0
POLYLINE
  8
16
 66
1
 10
0.0000
 20
0.0000
 30
0.0000
 40
0.0000
 41
0.0000
 70
1
  0
VERTEX
  8
16
 10
17.8878
 20
24.1391
 30
0.0000
  0
VERTEX
  8
16
 10
18.9546
 20
25.2059
 30
0.0000
 42
1.0000
  0
VERTEX
  8
16
 10
18.7390
 20
25.4215
 30
0.0000
  0
VERTEX
  8
16
 10
17.6722
 20
24.3547
 30
0.0000
 42
1.0000
  0
SEQEND
  8
0
  0
POLYLINE
  8
16
 66
1
 10
0.0000
 20
0.0000
 30
0.0000
 40
0.0000
 41
0.0000
 70
1
  0
VERTEX
  8
16
 10
19.8120
 20
28.0416
 30
0.0000
  0
VERTEX
  8
16
 10
21.0820
 20
28.0416
 30
0.0000
 42
1.0000
  0
VERTEX
  8
16
 10
21.0820
 20
28.3464
 30
0.0000
  0
VERTEX
  8
16
 10
19.8120
 20
28.3464
 30
0.0000
 42
1.0000
  0
SEQEND
  8
0
  0
POLYLINE
  8
16
 66
1
 10
0.0000
 20
0.0000
 30
0.0000
 40
0.0000
 41
0.0000
 70
1
  0
VERTEX
  8
16
 10
20.9742
 20
28.0862
 30
0.0000
  0
VERTEX
  8
16
 10
22.7522
 20
26.3082
 30
0.0000
 42
1.0000
  0
VERTEX
  8
16
 10
22.9678
 20
26.5238
 30
0.0000
  0
VERTEX
  8
16
 10
21.1898
 20
28.3018
 30
0.0000
 42
1.0000
  0
SEQEND
  8
0
  0
POLYLINE
  8
16
 66
1
 10
0.0000
 20
0.0000
 30
0.0000
 40
0.0000
 41
0.0000
 70
1
  0
VERTEX
  8
16
 10
18.9546
 20
27.1210
 30
0.0000
  0
VERTEX
  8
16
 10
19.9198
 20
28.0862
 30
0.0000
 42
1.0000
  0
VERTEX
  8
16
 10
19.7042
 20
28.3018
 30
0.0000
  0
VERTEX
  8
16
 10
18.7390
 20
27.3366
 30
0.0000
 42
1.0000
  0
SEQEND
  8
0
  0
POLYLINE
  8
16
 66
1
 10
0.0000
 20
0.0000
 30
0.0000
 40
0.0000
 41
0.0000
 70
1
  0
VERTEX
  8
16
 10
22.7522
 20
26.3082
 30
0.0000
  0
VERTEX
  8
16
 10
24.5302
 20
24.5302
 30
0.0000
 42
1.0000
  0
VERTEX
  8
16
 10
24.7458
 20
24.7458
 30
0.0000
  0
VERTEX
  8
16
 10
22.9678
 20
26.5238
 30
0.0000
 42
1.0000
  0
SEQEND
  8
0
  0
POLYLINE
  8
16
 66
1
 10
0.0000
 20
0.0000
 30
0.0000
 40
0.0000
 41
0.0000
 70
1
  0
VERTEX
  8
16
 10
24.6380
 20
24.4856
 30
0.0000
  0
VERTEX
  8
16
 10
27.0510
 20
24.4856
 30
0.0000
 42
1.0000
  0
VERTEX
  8
16
 10
27.0510
 20
24.7904
 30
0.0000
  0
VERTEX
  8
16
 10
24.6380
 20
24.7904
 30
0.0000
 42
1.0000
  0
SEQEND
  8
0
  0
POLYLINE
  8
16
 66
1
 10
0.0000
 20
0.0000
 30
0.0000
 40
0.0000
 41
0.0000
 70
1
  0
VERTEX
  8
16
 10
26.9432
 20
24.5302
 30
0.0000
  0
VERTEX
  8
16
 10
28.2132
 20
23.2602
 30
0.0000
 42
1.0000
  0
VERTEX
  8
16
 10
28.4288
 20
23.4758
 30
0.0000
  0
VERTEX
  8
16
 10
27.1588
 20
24.7458
 30
0.0000
 42
1.0000
  0
SEQEND
  8
0
  0
ENDSEC
  0
EOF
