  0
SECTION
  2
HEADER
  9
$ACADVER
  1
AC1009
  9
$FILLMODE
 70
0
  9
$EXTMIN
 10
-5.6458
 20
-3.6520
 30
0.0000
  9
$EXTMAX
 10
64.7700
 20
83.2400
 30
0.0000
  0
ENDSEC
  0
SECTION
  2
TABLES
  0
TABLE
  2
LTYPE
 70
1
  0
LTYPE
  2
CONTINUOUS
 70
64
  3
Solid line
 72
65
 73
0
 40
0
  0
ENDTAB
  0
TABLE
  2
LAYER
 70
255
  0
LAYER
  2
16
 70
64
 62
175
  6
CONTINUOUS
  0
LAYER
  2
17
 70
64
 62
82
  6
CONTINUOUS
  0
LAYER
  2
18
 70
64
 62
82
  6
CONTINUOUS
  0
LAYER
  2
19
 70
64
 62
53
  6
CONTINUOUS
  0
LAYER
  2
20
 70
64
 62
7
  6
CONTINUOUS
  0
ENDTAB
  0
ENDSEC
  0
SECTION
  2
BLOCKS
  0
BLOCK
  8
0
  2
RECT
 70
64
 10
0.0000
 20
0.0000
 30
0.0000
  3
RECT
  0
SOLID
  8
0
 10
-0.5000
 20
-0.5000
 30
0.0000
 11
0.5000
 21
-0.5000
 31
0.0000
 12
-0.5000
 22
0.5000
 32
0.0000
 13
0.5000
 23
0.5000
 33
0.0000
  0
ENDBLK
  8
0
  0
BLOCK
  8
0
  2
PIE
 70
64
 10
0.0000
 20
0.0000
 30
0.0000
  3
PIE
  0
CIRCLE
  8
0
 10
0.0000
 20
0.0000
 30
0.0000
 40
0.5000
  0
ENDBLK
  8
0
  0
BLOCK
  8
0
  2
OCTAGONP
 70
64
 10
0.0000
 20
0.0000
 30
0.0000
  3
OCTAGONP
  0
POLYLINE
  8
0
 66
1
 10
0.0000
 20
0.0000
 30
0.0000
 40
0.0000
 41
0.0000
 70
1
  0
VERTEX
  8
0
 10
-0.5000
 20
-0.2071
 30
0.0000
  0
VERTEX
  8
0
 10
-0.5000
 20
0.2071
 30
0.0000
  0
VERTEX
  8
0
 10
-0.2071
 20
0.5000
 30
0.0000
  0
VERTEX
  8
0
 10
0.2071
 20
0.5000
 30
0.0000
  0
VERTEX
  8
0
 10
0.5000
 20
0.2071
 30
0.0000
  0
VERTEX
  8
0
 10
0.5000
 20
-0.2071
 30
0.0000
  0
VERTEX
  8
0
 10
0.2071
 20
-0.5000
 30
0.0000
  0
VERTEX
  8
0
 10
-0.2071
 20
-0.5000
 30
0.0000
  0
SEQEND
  8
0
  0
ENDBLK
  8
0
  0
BLOCK
  8
0
  2
SQUAREP
 70
64
 10
0.0000
 20
0.0000
 30
0.0000
  3
SQUAREP
  0
SOLID
  8
0
 10
-0.5000
 20
-0.5000
 30
0.0000
 11
0.5000
 21
-0.5000
 31
0.0000
 12
-0.5000
 22
0.5000
 32
0.0000
 13
0.5000
 23
0.5000
 33
0.0000
  0
ENDBLK
  8
0
  0
BLOCK
  8
0
  2
ROUNDP
 70
64
 10
0.0000
 20
0.0000
 30
0.0000
  3
ROUNDP
  0
CIRCLE
  8
0
 10
0.0000
 20
0.0000
 30
0.0000
 40
0.5000
  0
ENDBLK
  8
0
  0
BLOCK
  8
0
  2
ANNULUSP
 70
64
 10
0.0000
 20
0.0000
 30
0.0000
  3
ANNULUSP
  0
CIRCLE
  8
0
 10
0.0000
 20
0.0000
 30
0.0000
 40
0.5000
  0
ENDBLK
  8
0
  0
BLOCK
  8
0
  2
THERMALP
 70
64
 10
0.0000
 20
0.0000
 30
0.0000
  3
THERMALP
  0
POLYLINE
  8
0
 66
1
 10
0.0000
 20
0.0000
 30
0.0000
 40
0.0000
 41
0.0000
 70
1
  0
VERTEX
  8
0
 10
-0.2379
 20
0.4000
 30
0.0000
  0
VERTEX
  8
0
 10
0.2379
 20
0.4000
 30
0.0000
 42
1.0000
  0
VERTEX
  8
0
 10
0.2379
 20
0.5000
 30
0.0000
  0
VERTEX
  8
0
 10
-0.2379
 20
0.5000
 30
0.0000
 42
1.0000
  0
SEQEND
  8
0
  0
POLYLINE
  8
0
 66
1
 10
0.0000
 20
0.0000
 30
0.0000
 40
0.0000
 41
0.0000
 70
1
  0
VERTEX
  8
0
 10
0.4000
 20
0.2379
 30
0.0000
  0
VERTEX
  8
0
 10
0.4000
 20
-0.2379
 30
0.0000
 42
1.0000
  0
VERTEX
  8
0
 10
0.5000
 20
-0.2379
 30
0.0000
  0
VERTEX
  8
0
 10
0.5000
 20
0.2379
 30
0.0000
 42
1.0000
  0
SEQEND
  8
0
  0
POLYLINE
  8
0
 66
1
 10
0.0000
 20
0.0000
 30
0.0000
 40
0.0000
 41
0.0000
 70
1
  0
VERTEX
  8
0
 10
0.2379
 20
-0.4000
 30
0.0000
  0
VERTEX
  8
0
 10
-0.2379
 20
-0.4000
 30
0.0000
 42
1.0000
  0
VERTEX
  8
0
 10
-0.2379
 20
-0.5000
 30
0.0000
  0
VERTEX
  8
0
 10
0.2379
 20
-0.5000
 30
0.0000
 42
1.0000
  0
SEQEND
  8
0
  0
POLYLINE
  8
0
 66
1
 10
0.0000
 20
0.0000
 30
0.0000
 40
0.0000
 41
0.0000
 70
1
  0
VERTEX
  8
0
 10
-0.4000
 20
-0.2379
 30
0.0000
  0
VERTEX
  8
0
 10
-0.4000
 20
0.2379
 30
0.0000
 42
1.0000
  0
VERTEX
  8
0
 10
-0.5000
 20
0.2379
 30
0.0000
  0
VERTEX
  8
0
 10
-0.5000
 20
-0.2379
 30
0.0000
 42
1.0000
  0
SEQEND
  8
0
  0
ENDBLK
  8
0
  0
BLOCK
  8
0
  2
OCTAGONV
 70
64
 10
0.0000
 20
0.0000
 30
0.0000
  3
OCTAGONV
  0
POLYLINE
  8
0
 66
1
 10
0.0000
 20
0.0000
 30
0.0000
 40
0.0000
 41
0.0000
 70
1
  0
VERTEX
  8
0
 10
-0.5000
 20
-0.2071
 30
0.0000
  0
VERTEX
  8
0
 10
-0.5000
 20
0.2071
 30
0.0000
  0
VERTEX
  8
0
 10
-0.2071
 20
0.5000
 30
0.0000
  0
VERTEX
  8
0
 10
0.2071
 20
0.5000
 30
0.0000
  0
VERTEX
  8
0
 10
0.5000
 20
0.2071
 30
0.0000
  0
VERTEX
  8
0
 10
0.5000
 20
-0.2071
 30
0.0000
  0
VERTEX
  8
0
 10
0.2071
 20
-0.5000
 30
0.0000
  0
VERTEX
  8
0
 10
-0.2071
 20
-0.5000
 30
0.0000
  0
SEQEND
  8
0
  0
ENDBLK
  8
0
  0
BLOCK
  8
0
  2
SQUAREV
 70
64
 10
0.0000
 20
0.0000
 30
0.0000
  3
SQUAREV
  0
SOLID
  8
0
 10
-0.5000
 20
-0.5000
 30
0.0000
 11
0.5000
 21
-0.5000
 31
0.0000
 12
-0.5000
 22
0.5000
 32
0.0000
 13
0.5000
 23
0.5000
 33
0.0000
  0
ENDBLK
  8
0
  0
BLOCK
  8
0
  2
ROUNDV
 70
64
 10
0.0000
 20
0.0000
 30
0.0000
  3
ROUNDV
  0
CIRCLE
  8
0
 10
0.0000
 20
0.0000
 30
0.0000
 40
0.5000
  0
ENDBLK
  8
0
  0
BLOCK
  8
0
  2
ANNULUSV
 70
64
 10
0.0000
 20
0.0000
 30
0.0000
  3
ANNULUSV
  0
CIRCLE
  8
0
 10
0.0000
 20
0.0000
 30
0.0000
 40
0.5000
  0
ENDBLK
  8
0
  0
BLOCK
  8
0
  2
THERMALV
 70
64
 10
0.0000
 20
0.0000
 30
0.0000
  3
THERMALV
  0
POLYLINE
  8
0
 66
1
 10
0.0000
 20
0.0000
 30
0.0000
 40
0.0000
 41
0.0000
 70
1
  0
VERTEX
  8
0
 10
-0.2379
 20
0.4000
 30
0.0000
  0
VERTEX
  8
0
 10
0.2379
 20
0.4000
 30
0.0000
 42
1.0000
  0
VERTEX
  8
0
 10
0.2379
 20
0.5000
 30
0.0000
  0
VERTEX
  8
0
 10
-0.2379
 20
0.5000
 30
0.0000
 42
1.0000
  0
SEQEND
  8
0
  0
POLYLINE
  8
0
 66
1
 10
0.0000
 20
0.0000
 30
0.0000
 40
0.0000
 41
0.0000
 70
1
  0
VERTEX
  8
0
 10
0.4000
 20
0.2379
 30
0.0000
  0
VERTEX
  8
0
 10
0.4000
 20
-0.2379
 30
0.0000
 42
1.0000
  0
VERTEX
  8
0
 10
0.5000
 20
-0.2379
 30
0.0000
  0
VERTEX
  8
0
 10
0.5000
 20
0.2379
 30
0.0000
 42
1.0000
  0
SEQEND
  8
0
  0
POLYLINE
  8
0
 66
1
 10
0.0000
 20
0.0000
 30
0.0000
 40
0.0000
 41
0.0000
 70
1
  0
VERTEX
  8
0
 10
0.2379
 20
-0.4000
 30
0.0000
  0
VERTEX
  8
0
 10
-0.2379
 20
-0.4000
 30
0.0000
 42
1.0000
  0
VERTEX
  8
0
 10
-0.2379
 20
-0.5000
 30
0.0000
  0
VERTEX
  8
0
 10
0.2379
 20
-0.5000
 30
0.0000
 42
1.0000
  0
SEQEND
  8
0
  0
POLYLINE
  8
0
 66
1
 10
0.0000
 20
0.0000
 30
0.0000
 40
0.0000
 41
0.0000
 70
1
  0
VERTEX
  8
0
 10
-0.4000
 20
-0.2379
 30
0.0000
  0
VERTEX
  8
0
 10
-0.4000
 20
0.2379
 30
0.0000
 42
1.0000
  0
VERTEX
  8
0
 10
-0.5000
 20
0.2379
 30
0.0000
  0
VERTEX
  8
0
 10
-0.5000
 20
-0.2379
 30
0.0000
 42
1.0000
  0
SEQEND
  8
0
  0
ENDBLK
  8
0
  0
BLOCK
  8
0
  2
LONGP100
 70
64
 10
0.0000
 20
0.0000
 30
0.0000
  3
LONGP100
  0
POLYLINE
  8
0
 66
1
 10
0.0000
 20
0.0000
 30
0.0000
 40
0.0000
 41
0.0000
 70
1
  0
VERTEX
  8
0
 10
-0.5000
 20
-0.5000
 30
0.0000
  0
VERTEX
  8
0
 10
0.5000
 20
-0.5000
 30
0.0000
 42
1.0000
  0
VERTEX
  8
0
 10
0.5000
 20
0.5000
 30
0.0000
  0
VERTEX
  8
0
 10
-0.5000
 20
0.5000
 30
0.0000
 42
1.0000
  0
SEQEND
  8
0
  0
ENDBLK
  8
0
  0
ENDSEC
  0
SECTION
  2
ENTITIES
  0
LINE
  8
20
 10
0.0000
 20
1.9050
 30
0.0000
 11
60.3050
 21
1.9050
 31
0.0000
  0
LINE
  8
20
 10
60.3050
 20
1.9050
 30
0.0000
 11
60.3050
 21
82.2200
 31
0.0000
  0
LINE
  8
20
 10
60.3050
 20
82.2200
 30
0.0000
 11
0.0000
 21
82.2200
 31
0.0000
  0
LINE
  8
20
 10
0.0000
 20
82.2200
 30
0.0000
 11
0.0000
 21
1.9050
 31
0.0000
  0
INSERT
  8
17
  2
LONGP100
 10
38.1000
 20
76.2000
 30
0.0000
 41
1.3208
 42
1.3208
 43
1.0000
 50
90.0000
  0
INSERT
  8
17
  2
LONGP100
 10
38.1000
 20
68.5800
 30
0.0000
 41
1.3208
 42
1.3208
 43
1.0000
 50
90.0000
  0
INSERT
  8
17
  2
LONGP100
 10
38.1000
 20
57.1500
 30
0.0000
 41
1.3208
 42
1.3208
 43
1.0000
 50
90.0000
  0
INSERT
  8
17
  2
LONGP100
 10
38.1000
 20
49.5300
 30
0.0000
 41
1.3208
 42
1.3208
 43
1.0000
 50
90.0000
  0
INSERT
  8
17
  2
LONGP100
 10
38.1000
 20
38.1000
 30
0.0000
 41
1.3208
 42
1.3208
 43
1.0000
 50
90.0000
  0
INSERT
  8
17
  2
LONGP100
 10
38.1000
 20
30.4800
 30
0.0000
 41
1.3208
 42
1.3208
 43
1.0000
 50
90.0000
  0
INSERT
  8
17
  2
LONGP100
 10
57.1500
 20
38.1000
 30
0.0000
 41
1.3208
 42
1.3208
 43
1.0000
 50
90.0000
  0
INSERT
  8
17
  2
LONGP100
 10
57.1500
 20
30.4800
 30
0.0000
 41
1.3208
 42
1.3208
 43
1.0000
 50
90.0000
  0
INSERT
  8
17
  2
LONGP100
 10
57.1500
 20
57.1500
 30
0.0000
 41
1.3208
 42
1.3208
 43
1.0000
 50
90.0000
  0
INSERT
  8
17
  2
LONGP100
 10
57.1500
 20
49.5300
 30
0.0000
 41
1.3208
 42
1.3208
 43
1.0000
 50
90.0000
  0
INSERT
  8
17
  2
LONGP100
 10
57.1500
 20
76.2000
 30
0.0000
 41
1.3208
 42
1.3208
 43
1.0000
 50
90.0000
  0
INSERT
  8
17
  2
LONGP100
 10
57.1500
 20
68.5800
 30
0.0000
 41
1.3208
 42
1.3208
 43
1.0000
 50
90.0000
  0
INSERT
  8
17
  2
LONGP100
 10
33.0200
 20
21.5900
 30
0.0000
 41
1.3208
 42
1.3208
 43
1.0000
 50
0.0000
  0
INSERT
  8
17
  2
LONGP100
 10
25.4000
 20
21.5900
 30
0.0000
 41
1.3208
 42
1.3208
 43
1.0000
 50
0.0000
  0
INSERT
  8
17
  2
ROUNDP
 10
27.9400
 20
38.1000
 30
0.0000
 41
1.3208
 42
1.3208
 43
1.0000
 50
0.0000
  0
INSERT
  8
17
  2
ROUNDP
 10
30.4800
 20
38.1000
 30
0.0000
 41
1.3208
 42
1.3208
 43
1.0000
 50
0.0000
  0
INSERT
  8
17
  2
ROUNDP
 10
46.9900
 20
38.1000
 30
0.0000
 41
1.3208
 42
1.3208
 43
1.0000
 50
0.0000
  0
INSERT
  8
17
  2
ROUNDP
 10
49.5300
 20
38.1000
 30
0.0000
 41
1.3208
 42
1.3208
 43
1.0000
 50
0.0000
  0
INSERT
  8
17
  2
ROUNDP
 10
27.9400
 20
57.1500
 30
0.0000
 41
1.3208
 42
1.3208
 43
1.0000
 50
0.0000
  0
INSERT
  8
17
  2
ROUNDP
 10
30.4800
 20
57.1500
 30
0.0000
 41
1.3208
 42
1.3208
 43
1.0000
 50
0.0000
  0
INSERT
  8
17
  2
ROUNDP
 10
46.9900
 20
76.2000
 30
0.0000
 41
1.3208
 42
1.3208
 43
1.0000
 50
0.0000
  0
INSERT
  8
17
  2
ROUNDP
 10
49.5300
 20
76.2000
 30
0.0000
 41
1.3208
 42
1.3208
 43
1.0000
 50
0.0000
  0
INSERT
  8
17
  2
ROUNDP
 10
27.9400
 20
76.2000
 30
0.0000
 41
1.3208
 42
1.3208
 43
1.0000
 50
0.0000
  0
INSERT
  8
17
  2
ROUNDP
 10
30.4800
 20
76.2000
 30
0.0000
 41
1.3208
 42
1.3208
 43
1.0000
 50
0.0000
  0
INSERT
  8
17
  2
ROUNDP
 10
46.9900
 20
57.1500
 30
0.0000
 41
1.3208
 42
1.3208
 43
1.0000
 50
0.0000
  0
INSERT
  8
17
  2
ROUNDP
 10
49.5300
 20
57.1500
 30
0.0000
 41
1.3208
 42
1.3208
 43
1.0000
 50
0.0000
  0
INSERT
  8
17
  2
OCTAGONP
 10
33.0200
 20
19.0500
 30
0.0000
 41
1.3208
 42
1.3208
 43
1.0000
 50
0.0000
  0
INSERT
  8
17
  2
OCTAGONP
 10
40.6400
 20
19.0500
 30
0.0000
 41
1.3208
 42
1.3208
 43
1.0000
 50
0.0000
  0
INSERT
  8
17
  2
OCTAGONP
 10
33.0200
 20
16.5100
 30
0.0000
 41
1.3208
 42
1.3208
 43
1.0000
 50
0.0000
  0
INSERT
  8
17
  2
OCTAGONP
 10
40.6400
 20
16.5100
 30
0.0000
 41
1.3208
 42
1.3208
 43
1.0000
 50
0.0000
  0
INSERT
  8
17
  2
OCTAGONP
 10
33.0200
 20
13.9700
 30
0.0000
 41
1.3208
 42
1.3208
 43
1.0000
 50
0.0000
  0
INSERT
  8
17
  2
OCTAGONP
 10
40.6400
 20
13.9700
 30
0.0000
 41
1.3208
 42
1.3208
 43
1.0000
 50
0.0000
  0
INSERT
  8
17
  2
OCTAGONP
 10
33.0200
 20
8.8900
 30
0.0000
 41
1.3208
 42
1.3208
 43
1.0000
 50
0.0000
  0
INSERT
  8
17
  2
OCTAGONP
 10
40.6400
 20
8.8900
 30
0.0000
 41
1.3208
 42
1.3208
 43
1.0000
 50
0.0000
  0
INSERT
  8
17
  2
OCTAGONP
 10
33.0200
 20
6.3500
 30
0.0000
 41
1.3208
 42
1.3208
 43
1.0000
 50
0.0000
  0
INSERT
  8
17
  2
OCTAGONP
 10
40.6400
 20
6.3500
 30
0.0000
 41
1.3208
 42
1.3208
 43
1.0000
 50
0.0000
  0
INSERT
  8
17
  2
OCTAGONP
 10
33.0200
 20
11.4300
 30
0.0000
 41
1.3208
 42
1.3208
 43
1.0000
 50
0.0000
  0
INSERT
  8
17
  2
OCTAGONP
 10
40.6400
 20
11.4300
 30
0.0000
 41
1.3208
 42
1.3208
 43
1.0000
 50
0.0000
  0
CIRCLE
  8
20
 10
34.2900
 20
71.1200
 30
0.0000
 40
0.8500
  0
CIRCLE
  8
20
 10
24.1300
 20
71.1200
 30
0.0000
 40
0.8500
  0
CIRCLE
  8
20
 10
29.2100
 20
71.1200
 30
0.0000
 40
2.0500
  0
INSERT
  8
17
  2
ROUNDP
 10
33.0200
 20
68.5800
 30
0.0000
 41
2.5400
 42
2.5400
 43
1.0000
 50
180.0000
  0
INSERT
  8
17
  2
ROUNDP
 10
26.6700
 20
66.0400
 30
0.0000
 41
2.5400
 42
2.5400
 43
1.0000
 50
180.0000
  0
CIRCLE
  8
20
 10
34.2900
 20
52.0700
 30
0.0000
 40
0.8500
  0
CIRCLE
  8
20
 10
24.1300
 20
52.0700
 30
0.0000
 40
0.8500
  0
CIRCLE
  8
20
 10
29.2100
 20
52.0700
 30
0.0000
 40
2.0500
  0
INSERT
  8
17
  2
ROUNDP
 10
33.0200
 20
49.5300
 30
0.0000
 41
2.5400
 42
2.5400
 43
1.0000
 50
180.0000
  0
INSERT
  8
17
  2
ROUNDP
 10
26.6700
 20
46.9900
 30
0.0000
 41
2.5400
 42
2.5400
 43
1.0000
 50
180.0000
  0
CIRCLE
  8
20
 10
34.2900
 20
33.0200
 30
0.0000
 40
0.8500
  0
CIRCLE
  8
20
 10
24.1300
 20
33.0200
 30
0.0000
 40
0.8500
  0
CIRCLE
  8
20
 10
29.2100
 20
33.0200
 30
0.0000
 40
2.0500
  0
INSERT
  8
17
  2
ROUNDP
 10
33.0200
 20
30.4800
 30
0.0000
 41
2.5400
 42
2.5400
 43
1.0000
 50
180.0000
  0
INSERT
  8
17
  2
ROUNDP
 10
26.6700
 20
27.9400
 30
0.0000
 41
2.5400
 42
2.5400
 43
1.0000
 50
180.0000
  0
CIRCLE
  8
20
 10
53.3400
 20
71.1200
 30
0.0000
 40
0.8500
  0
CIRCLE
  8
20
 10
43.1800
 20
71.1200
 30
0.0000
 40
0.8500
  0
CIRCLE
  8
20
 10
48.2600
 20
71.1200
 30
0.0000
 40
2.0500
  0
INSERT
  8
17
  2
ROUNDP
 10
52.0700
 20
68.5800
 30
0.0000
 41
2.5400
 42
2.5400
 43
1.0000
 50
180.0000
  0
INSERT
  8
17
  2
ROUNDP
 10
45.7200
 20
66.0400
 30
0.0000
 41
2.5400
 42
2.5400
 43
1.0000
 50
180.0000
  0
CIRCLE
  8
20
 10
53.3400
 20
52.0700
 30
0.0000
 40
0.8500
  0
CIRCLE
  8
20
 10
43.1800
 20
52.0700
 30
0.0000
 40
0.8500
  0
CIRCLE
  8
20
 10
48.2600
 20
52.0700
 30
0.0000
 40
2.0500
  0
INSERT
  8
17
  2
ROUNDP
 10
52.0700
 20
49.5300
 30
0.0000
 41
2.5400
 42
2.5400
 43
1.0000
 50
180.0000
  0
INSERT
  8
17
  2
ROUNDP
 10
45.7200
 20
46.9900
 30
0.0000
 41
2.5400
 42
2.5400
 43
1.0000
 50
180.0000
  0
CIRCLE
  8
20
 10
53.3400
 20
33.0200
 30
0.0000
 40
0.8500
  0
CIRCLE
  8
20
 10
43.1800
 20
33.0200
 30
0.0000
 40
0.8500
  0
CIRCLE
  8
20
 10
48.2600
 20
33.0200
 30
0.0000
 40
2.0500
  0
INSERT
  8
17
  2
ROUNDP
 10
52.0700
 20
30.4800
 30
0.0000
 41
2.5400
 42
2.5400
 43
1.0000
 50
180.0000
  0
INSERT
  8
17
  2
ROUNDP
 10
45.7200
 20
27.9400
 30
0.0000
 41
2.5400
 42
2.5400
 43
1.0000
 50
180.0000
  0
INSERT
  8
17
  2
LONGP100
 10
2.5400
 20
29.2100
 30
0.0000
 41
1.5240
 42
1.5240
 43
1.0000
 50
0.0000
  0
INSERT
  8
17
  2
LONGP100
 10
2.5400
 20
26.6700
 30
0.0000
 41
1.5240
 42
1.5240
 43
1.0000
 50
0.0000
  0
INSERT
  8
17
  2
LONGP100
 10
2.5400
 20
24.1300
 30
0.0000
 41
1.5240
 42
1.5240
 43
1.0000
 50
0.0000
  0
INSERT
  8
17
  2
LONGP100
 10
2.5400
 20
21.5900
 30
0.0000
 41
1.5240
 42
1.5240
 43
1.0000
 50
0.0000
  0
INSERT
  8
17
  2
ROUNDP
 10
2.5400
 20
73.6600
 30
0.0000
 41
1.4080
 42
1.4080
 43
1.0000
 50
180.0000
  0
INSERT
  8
17
  2
ROUNDP
 10
2.5400
 20
48.2600
 30
0.0000
 41
1.4080
 42
1.4080
 43
1.0000
 50
180.0000
  0
INSERT
  8
17
  2
ROUNDP
 10
2.5400
 20
68.5800
 30
0.0000
 41
1.4080
 42
1.4080
 43
1.0000
 50
180.0000
  0
INSERT
  8
17
  2
ROUNDP
 10
2.5400
 20
66.0400
 30
0.0000
 41
1.4080
 42
1.4080
 43
1.0000
 50
180.0000
  0
INSERT
  8
17
  2
ROUNDP
 10
2.5400
 20
63.5000
 30
0.0000
 41
1.4080
 42
1.4080
 43
1.0000
 50
180.0000
  0
INSERT
  8
17
  2
ROUNDP
 10
2.5400
 20
60.9600
 30
0.0000
 41
1.4080
 42
1.4080
 43
1.0000
 50
180.0000
  0
INSERT
  8
17
  2
ROUNDP
 10
2.5400
 20
58.4200
 30
0.0000
 41
1.4080
 42
1.4080
 43
1.0000
 50
180.0000
  0
INSERT
  8
17
  2
ROUNDP
 10
2.5400
 20
55.8800
 30
0.0000
 41
1.4080
 42
1.4080
 43
1.0000
 50
180.0000
  0
INSERT
  8
17
  2
ROUNDP
 10
17.7800
 20
50.8000
 30
0.0000
 41
1.4080
 42
1.4080
 43
1.0000
 50
180.0000
  0
INSERT
  8
17
  2
ROUNDP
 10
17.7800
 20
53.3400
 30
0.0000
 41
1.4080
 42
1.4080
 43
1.0000
 50
180.0000
  0
INSERT
  8
17
  2
ROUNDP
 10
17.7800
 20
55.8800
 30
0.0000
 41
1.4080
 42
1.4080
 43
1.0000
 50
180.0000
  0
INSERT
  8
17
  2
ROUNDP
 10
17.7800
 20
58.4200
 30
0.0000
 41
1.4080
 42
1.4080
 43
1.0000
 50
180.0000
  0
INSERT
  8
17
  2
ROUNDP
 10
17.7800
 20
60.9600
 30
0.0000
 41
1.4080
 42
1.4080
 43
1.0000
 50
180.0000
  0
INSERT
  8
17
  2
ROUNDP
 10
17.7800
 20
63.5000
 30
0.0000
 41
1.4080
 42
1.4080
 43
1.0000
 50
180.0000
  0
INSERT
  8
17
  2
ROUNDP
 10
17.7800
 20
66.0400
 30
0.0000
 41
1.4080
 42
1.4080
 43
1.0000
 50
180.0000
  0
INSERT
  8
17
  2
ROUNDP
 10
17.7800
 20
68.5800
 30
0.0000
 41
1.4080
 42
1.4080
 43
1.0000
 50
180.0000
  0
INSERT
  8
17
  2
ROUNDP
 10
17.7800
 20
71.1200
 30
0.0000
 41
1.4080
 42
1.4080
 43
1.0000
 50
180.0000
  0
INSERT
  8
17
  2
ROUNDP
 10
17.7800
 20
73.6600
 30
0.0000
 41
1.4080
 42
1.4080
 43
1.0000
 50
180.0000
  0
INSERT
  8
17
  2
ROUNDP
 10
17.7800
 20
76.2000
 30
0.0000
 41
1.4080
 42
1.4080
 43
1.0000
 50
180.0000
  0
INSERT
  8
17
  2
ROUNDP
 10
2.5400
 20
76.2000
 30
0.0000
 41
1.4080
 42
1.4080
 43
1.0000
 50
180.0000
  0
INSERT
  8
17
  2
ROUNDP
 10
17.7800
 20
48.2600
 30
0.0000
 41
1.4080
 42
1.4080
 43
1.0000
 50
180.0000
  0
INSERT
  8
17
  2
ROUNDP
 10
2.5400
 20
43.1800
 30
0.0000
 41
1.4080
 42
1.4080
 43
1.0000
 50
180.0000
  0
INSERT
  8
17
  2
ROUNDP
 10
2.5400
 20
38.1000
 30
0.0000
 41
1.4080
 42
1.4080
 43
1.0000
 50
180.0000
  0
INSERT
  8
17
  2
ROUNDP
 10
17.7800
 20
35.5600
 30
0.0000
 41
1.4080
 42
1.4080
 43
1.0000
 50
180.0000
  0
INSERT
  8
17
  2
ROUNDP
 10
2.5400
 20
50.8000
 30
0.0000
 41
1.4080
 42
1.4080
 43
1.0000
 50
180.0000
  0
INSERT
  8
17
  2
ROUNDP
 10
2.5400
 20
53.3400
 30
0.0000
 41
1.4080
 42
1.4080
 43
1.0000
 50
180.0000
  0
INSERT
  8
17
  2
ROUNDP
 10
2.5400
 20
71.1200
 30
0.0000
 41
1.4080
 42
1.4080
 43
1.0000
 50
180.0000
  0
INSERT
  8
17
  2
ROUNDP
 10
17.7800
 20
45.7200
 30
0.0000
 41
1.4080
 42
1.4080
 43
1.0000
 50
180.0000
  0
INSERT
  8
17
  2
ROUNDP
 10
2.5400
 20
45.7200
 30
0.0000
 41
1.4080
 42
1.4080
 43
1.0000
 50
180.0000
  0
INSERT
  8
17
  2
ROUNDP
 10
17.7800
 20
43.1800
 30
0.0000
 41
1.4080
 42
1.4080
 43
1.0000
 50
180.0000
  0
INSERT
  8
17
  2
ROUNDP
 10
2.5400
 20
35.5600
 30
0.0000
 41
1.4080
 42
1.4080
 43
1.0000
 50
180.0000
  0
INSERT
  8
17
  2
ROUNDP
 10
17.7800
 20
38.1000
 30
0.0000
 41
1.4080
 42
1.4080
 43
1.0000
 50
180.0000
  0
INSERT
  8
17
  2
ROUNDP
 10
17.7800
 20
40.6400
 30
0.0000
 41
1.4080
 42
1.4080
 43
1.0000
 50
180.0000
  0
INSERT
  8
17
  2
ROUNDP
 10
2.5400
 20
40.6400
 30
0.0000
 41
1.4080
 42
1.4080
 43
1.0000
 50
180.0000
  0
INSERT
  8
17
  2
ROUNDP
 10
9.0000
 20
19.0000
 30
0.0000
 41
1.9304
 42
1.9304
 43
1.0000
 50
0.0000
  0
INSERT
  8
17
  2
ROUNDP
 10
19.0000
 20
19.0000
 30
0.0000
 41
1.9304
 42
1.9304
 43
1.0000
 50
0.0000
  0
INSERT
  8
17
  2
ROUNDP
 10
19.0000
 20
6.0000
 30
0.0000
 41
1.9304
 42
1.9304
 43
1.0000
 50
0.0000
  0
INSERT
  8
17
  2
ROUNDP
 10
9.0000
 20
6.0000
 30
0.0000
 41
1.9304
 42
1.9304
 43
1.0000
 50
0.0000
  0
INSERT
  8
17
  2
ROUNDP
 10
5.5000
 20
14.5000
 30
0.0000
 41
1.2700
 42
1.2700
 43
1.0000
 50
0.0000
  0
INSERT
  8
17
  2
ROUNDP
 10
5.5000
 20
12.0000
 30
0.0000
 41
1.2700
 42
1.2700
 43
1.0000
 50
0.0000
  0
INSERT
  8
17
  2
ROUNDP
 10
5.5000
 20
9.5000
 30
0.0000
 41
1.2700
 42
1.2700
 43
1.0000
 50
0.0000
  0
INSERT
  8
17
  2
ROUNDP
 10
11.5000
 20
21.0000
 30
0.0000
 41
1.2700
 42
1.2700
 43
1.0000
 50
0.0000
  0
INSERT
  8
17
  2
ROUNDP
 10
14.0000
 20
21.0000
 30
0.0000
 41
1.2700
 42
1.2700
 43
1.0000
 50
0.0000
  0
INSERT
  8
17
  2
ROUNDP
 10
16.5000
 20
21.0000
 30
0.0000
 41
1.2700
 42
1.2700
 43
1.0000
 50
0.0000
  0
INSERT
  8
17
  2
LONGP100
 10
20.0000
 20
16.0000
 30
0.0000
 41
1.0080
 42
1.0080
 43
1.0000
 50
90.0000
  0
INSERT
  8
17
  2
LONGP100
 10
20.0000
 20
9.5000
 30
0.0000
 41
1.0080
 42
1.0080
 43
1.0000
 50
90.0000
  0
INSERT
  8
17
  2
LONGP100
 10
24.5000
 20
16.0000
 30
0.0000
 41
1.0080
 42
1.0080
 43
1.0000
 50
90.0000
  0
INSERT
  8
17
  2
LONGP100
 10
24.5000
 20
9.5000
 30
0.0000
 41
1.0080
 42
1.0080
 43
1.0000
 50
90.0000
  0
POLYLINE
  8
16
 66
1
 10
0.0000
 20
0.0000
 30
0.0000
 40
0.0000
 41
0.0000
 70
1
  0
VERTEX
  8
16
 10
52.0700
 20
49.3268
 30
0.0000
  0
VERTEX
  8
16
 10
57.1500
 20
49.3268
 30
0.0000
 42
1.0000
  0
VERTEX
  8
16
 10
57.1500
 20
49.7332
 30
0.0000
  0
VERTEX
  8
16
 10
52.0700
 20
49.7332
 30
0.0000
 42
1.0000
  0
SEQEND
  8
0
  0
POLYLINE
  8
16
 66
1
 10
0.0000
 20
0.0000
 30
0.0000
 40
0.0000
 41
0.0000
 70
1
  0
VERTEX
  8
16
 10
33.0200
 20
68.3768
 30
0.0000
  0
VERTEX
  8
16
 10
38.1000
 20
68.3768
 30
0.0000
 42
1.0000
  0
VERTEX
  8
16
 10
38.1000
 20
68.7832
 30
0.0000
  0
VERTEX
  8
16
 10
33.0200
 20
68.7832
 30
0.0000
 42
1.0000
  0
SEQEND
  8
0
  0
POLYLINE
  8
16
 66
1
 10
0.0000
 20
0.0000
 30
0.0000
 40
0.0000
 41
0.0000
 70
1
  0
VERTEX
  8
16
 10
52.0700
 20
68.3768
 30
0.0000
  0
VERTEX
  8
16
 10
57.1500
 20
68.3768
 30
0.0000
 42
1.0000
  0
VERTEX
  8
16
 10
57.1500
 20
68.7832
 30
0.0000
  0
VERTEX
  8
16
 10
52.0700
 20
68.7832
 30
0.0000
 42
1.0000
  0
SEQEND
  8
0
  0
POLYLINE
  8
16
 66
1
 10
0.0000
 20
0.0000
 30
0.0000
 40
0.0000
 41
0.0000
 70
1
  0
VERTEX
  8
16
 10
45.7200
 20
66.2432
 30
0.0000
  0
VERTEX
  8
16
 10
26.6700
 20
66.2432
 30
0.0000
 42
1.0000
  0
VERTEX
  8
16
 10
26.6700
 20
65.8368
 30
0.0000
  0
VERTEX
  8
16
 10
45.7200
 20
65.8368
 30
0.0000
 42
1.0000
  0
SEQEND
  8
0
  0
POLYLINE
  8
16
 66
1
 10
0.0000
 20
0.0000
 30
0.0000
 40
0.0000
 41
0.0000
 70
1
  0
VERTEX
  8
16
 10
26.6700
 20
66.2432
 30
0.0000
  0
VERTEX
  8
16
 10
17.7800
 20
66.2432
 30
0.0000
 42
1.0000
  0
VERTEX
  8
16
 10
17.7800
 20
65.8368
 30
0.0000
  0
VERTEX
  8
16
 10
26.6700
 20
65.8368
 30
0.0000
 42
1.0000
  0
SEQEND
  8
0
  0
POLYLINE
  8
16
 66
1
 10
0.0000
 20
0.0000
 30
0.0000
 40
0.0000
 41
0.0000
 70
1
  0
VERTEX
  8
16
 10
33.0200
 20
49.3268
 30
0.0000
  0
VERTEX
  8
16
 10
38.1000
 20
49.3268
 30
0.0000
 42
1.0000
  0
VERTEX
  8
16
 10
38.1000
 20
49.7332
 30
0.0000
  0
VERTEX
  8
16
 10
33.0200
 20
49.7332
 30
0.0000
 42
1.0000
  0
SEQEND
  8
0
  0
POLYLINE
  8
16
 66
1
 10
0.0000
 20
0.0000
 30
0.0000
 40
0.0000
 41
0.0000
 70
1
  0
VERTEX
  8
16
 10
33.0200
 20
30.2768
 30
0.0000
  0
VERTEX
  8
16
 10
38.1000
 20
30.2768
 30
0.0000
 42
1.0000
  0
VERTEX
  8
16
 10
38.1000
 20
30.6832
 30
0.0000
  0
VERTEX
  8
16
 10
33.0200
 20
30.6832
 30
0.0000
 42
1.0000
  0
SEQEND
  8
0
  0
POLYLINE
  8
16
 66
1
 10
0.0000
 20
0.0000
 30
0.0000
 40
0.0000
 41
0.0000
 70
1
  0
VERTEX
  8
16
 10
2.5400
 20
26.4668
 30
0.0000
  0
VERTEX
  8
16
 10
6.3500
 20
26.4668
 30
0.0000
 42
1.0000
  0
VERTEX
  8
16
 10
6.3500
 20
26.8732
 30
0.0000
  0
VERTEX
  8
16
 10
2.5400
 20
26.8732
 30
0.0000
 42
1.0000
  0
SEQEND
  8
0
  0
POLYLINE
  8
16
 66
1
 10
0.0000
 20
0.0000
 30
0.0000
 40
0.0000
 41
0.0000
 70
1
  0
VERTEX
  8
16
 10
9.8425
 20
53.1368
 30
0.0000
  0
VERTEX
  8
16
 10
17.7800
 20
53.1368
 30
0.0000
 42
1.0000
  0
VERTEX
  8
16
 10
17.7800
 20
53.5432
 30
0.0000
  0
VERTEX
  8
16
 10
9.8425
 20
53.5432
 30
0.0000
 42
1.0000
  0
SEQEND
  8
0
  0
INSERT
  8
18
  2
ROUNDV
 10
6.3500
 20
26.6700
 30
0.0000
 41
1.5240
 42
1.5240
 43
1.0000
 50
0.0000
  0
INSERT
  8
18
  2
ROUNDV
 10
9.8425
 20
53.3400
 30
0.0000
 41
1.5240
 42
1.5240
 43
1.0000
 50
0.0000
  0
POLYLINE
  8
16
 66
1
 10
0.0000
 20
0.0000
 30
0.0000
 40
0.0000
 41
0.0000
 70
1
  0
VERTEX
  8
16
 10
26.6700
 20
27.7368
 30
0.0000
  0
VERTEX
  8
16
 10
45.7200
 20
27.7368
 30
0.0000
 42
1.0000
  0
VERTEX
  8
16
 10
45.7200
 20
28.1432
 30
0.0000
  0
VERTEX
  8
16
 10
26.6700
 20
28.1432
 30
0.0000
 42
1.0000
  0
SEQEND
  8
0
  0
POLYLINE
  8
16
 66
1
 10
0.0000
 20
0.0000
 30
0.0000
 40
0.0000
 41
0.0000
 70
1
  0
VERTEX
  8
16
 10
17.7800
 20
60.7568
 30
0.0000
  0
VERTEX
  8
16
 10
24.1300
 20
60.7568
 30
0.0000
 42
1.0000
  0
VERTEX
  8
16
 10
24.1300
 20
61.1632
 30
0.0000
  0
VERTEX
  8
16
 10
17.7800
 20
61.1632
 30
0.0000
 42
1.0000
  0
SEQEND
  8
0
  0
POLYLINE
  8
16
 66
1
 10
0.0000
 20
0.0000
 30
0.0000
 40
0.0000
 41
0.0000
 70
1
  0
VERTEX
  8
16
 10
23.9863
 20
60.8163
 30
0.0000
  0
VERTEX
  8
16
 10
25.2563
 20
59.5463
 30
0.0000
 42
1.0000
  0
VERTEX
  8
16
 10
25.5437
 20
59.8337
 30
0.0000
  0
VERTEX
  8
16
 10
24.2737
 20
61.1037
 30
0.0000
 42
1.0000
  0
SEQEND
  8
0
  0
POLYLINE
  8
16
 66
1
 10
0.0000
 20
0.0000
 30
0.0000
 40
0.0000
 41
0.0000
 70
1
  0
VERTEX
  8
16
 10
25.2563
 20
48.3782
 30
0.0000
  0
VERTEX
  8
16
 10
24.7483
 20
47.8702
 30
0.0000
 42
1.0000
  0
VERTEX
  8
16
 10
25.0357
 20
47.5828
 30
0.0000
  0
VERTEX
  8
16
 10
25.5437
 20
48.0908
 30
0.0000
 42
1.0000
  0
SEQEND
  8
0
  0
POLYLINE
  8
16
 66
1
 10
0.0000
 20
0.0000
 30
0.0000
 40
0.0000
 41
0.0000
 70
1
  0
VERTEX
  8
16
 10
24.6888
 20
47.7265
 30
0.0000
  0
VERTEX
  8
16
 10
24.6888
 20
46.2535
 30
0.0000
 42
1.0000
  0
VERTEX
  8
16
 10
25.0952
 20
46.2535
 30
0.0000
  0
VERTEX
  8
16
 10
25.0952
 20
47.7265
 30
0.0000
 42
1.0000
  0
SEQEND
  8
0
  0
POLYLINE
  8
16
 66
1
 10
0.0000
 20
0.0000
 30
0.0000
 40
0.0000
 41
0.0000
 70
1
  0
VERTEX
  8
16
 10
24.7483
 20
46.1098
 30
0.0000
  0
VERTEX
  8
16
 10
25.2563
 20
45.6018
 30
0.0000
 42
1.0000
  0
VERTEX
  8
16
 10
25.5437
 20
45.8892
 30
0.0000
  0
VERTEX
  8
16
 10
25.0357
 20
46.3972
 30
0.0000
 42
1.0000
  0
SEQEND
  8
0
  0
POLYLINE
  8
16
 66
1
 10
0.0000
 20
0.0000
 30
0.0000
 40
0.0000
 41
0.0000
 70
1
  0
VERTEX
  8
16
 10
25.2563
 20
29.0663
 30
0.0000
  0
VERTEX
  8
16
 10
26.5263
 20
27.7963
 30
0.0000
 42
1.0000
  0
VERTEX
  8
16
 10
26.8137
 20
28.0837
 30
0.0000
  0
VERTEX
  8
16
 10
25.5437
 20
29.3537
 30
0.0000
 42
1.0000
  0
SEQEND
  8
0
  0
POLYLINE
  8
16
 66
1
 10
0.0000
 20
0.0000
 30
0.0000
 40
0.0000
 41
0.0000
 70
1
  0
VERTEX
  8
16
 10
25.1968
 20
59.6900
 30
0.0000
  0
VERTEX
  8
16
 10
25.1968
 20
48.2345
 30
0.0000
 42
1.0000
  0
VERTEX
  8
16
 10
25.6032
 20
48.2345
 30
0.0000
  0
VERTEX
  8
16
 10
25.6032
 20
59.6900
 30
0.0000
 42
1.0000
  0
SEQEND
  8
0
  0
POLYLINE
  8
16
 66
1
 10
0.0000
 20
0.0000
 30
0.0000
 40
0.0000
 41
0.0000
 70
1
  0
VERTEX
  8
16
 10
25.1968
 20
45.7455
 30
0.0000
  0
VERTEX
  8
16
 10
25.1968
 20
29.2100
 30
0.0000
 42
1.0000
  0
VERTEX
  8
16
 10
25.6032
 20
29.2100
 30
0.0000
  0
VERTEX
  8
16
 10
25.6032
 20
45.7455
 30
0.0000
 42
1.0000
  0
SEQEND
  8
0
  0
POLYLINE
  8
16
 66
1
 10
0.0000
 20
0.0000
 30
0.0000
 40
0.0000
 41
0.0000
 70
1
  0
VERTEX
  8
16
 10
24.7032
 20
9.5000
 30
0.0000
  0
VERTEX
  8
16
 10
24.7032
 20
12.5000
 30
0.0000
 42
1.0000
  0
VERTEX
  8
16
 10
24.2968
 20
12.5000
 30
0.0000
  0
VERTEX
  8
16
 10
24.2968
 20
9.5000
 30
0.0000
 42
1.0000
  0
SEQEND
  8
0
  0
POLYLINE
  8
16
 66
1
 10
0.0000
 20
0.0000
 30
0.0000
 40
0.0000
 41
0.0000
 70
1
  0
VERTEX
  8
16
 10
24.6437
 20
12.3563
 30
0.0000
  0
VERTEX
  8
16
 10
27.1437
 20
14.8563
 30
0.0000
 42
1.0000
  0
VERTEX
  8
16
 10
26.8563
 20
15.1437
 30
0.0000
  0
VERTEX
  8
16
 10
24.3563
 20
12.6437
 30
0.0000
 42
1.0000
  0
SEQEND
  8
0
  0
POLYLINE
  8
16
 66
1
 10
0.0000
 20
0.0000
 30
0.0000
 40
0.0000
 41
0.0000
 70
1
  0
VERTEX
  8
16
 10
27.2032
 20
15.0000
 30
0.0000
  0
VERTEX
  8
16
 10
27.2032
 20
19.9900
 30
0.0000
 42
1.0000
  0
VERTEX
  8
16
 10
26.7968
 20
19.9900
 30
0.0000
  0
VERTEX
  8
16
 10
26.7968
 20
15.0000
 30
0.0000
 42
1.0000
  0
SEQEND
  8
0
  0
POLYLINE
  8
16
 66
1
 10
0.0000
 20
0.0000
 30
0.0000
 40
0.0000
 41
0.0000
 70
1
  0
VERTEX
  8
16
 10
27.1437
 20
20.1337
 30
0.0000
  0
VERTEX
  8
16
 10
25.5437
 20
21.7337
 30
0.0000
 42
1.0000
  0
VERTEX
  8
16
 10
25.2563
 20
21.4463
 30
0.0000
  0
VERTEX
  8
16
 10
26.8563
 20
19.8463
 30
0.0000
 42
1.0000
  0
SEQEND
  8
0
  0
POLYLINE
  8
16
 66
1
 10
0.0000
 20
0.0000
 30
0.0000
 40
0.0000
 41
0.0000
 70
1
  0
VERTEX
  8
16
 10
46.6002
 20
45.0683
 30
0.0000
  0
VERTEX
  8
16
 10
47.6417
 20
46.1098
 30
0.0000
 42
1.0000
  0
VERTEX
  8
16
 10
47.3543
 20
46.3972
 30
0.0000
  0
VERTEX
  8
16
 10
46.3128
 20
45.3557
 30
0.0000
 42
1.0000
  0
SEQEND
  8
0
  0
POLYLINE
  8
16
 66
1
 10
0.0000
 20
0.0000
 30
0.0000
 40
0.0000
 41
0.0000
 70
1
  0
VERTEX
  8
16
 10
47.7012
 20
46.2535
 30
0.0000
  0
VERTEX
  8
16
 10
47.7012
 20
47.7265
 30
0.0000
 42
1.0000
  0
VERTEX
  8
16
 10
47.2948
 20
47.7265
 30
0.0000
  0
VERTEX
  8
16
 10
47.2948
 20
46.2535
 30
0.0000
 42
1.0000
  0
SEQEND
  8
0
  0
POLYLINE
  8
16
 66
1
 10
0.0000
 20
0.0000
 30
0.0000
 40
0.0000
 41
0.0000
 70
1
  0
VERTEX
  8
16
 10
47.6417
 20
47.8702
 30
0.0000
  0
VERTEX
  8
16
 10
46.6002
 20
48.9117
 30
0.0000
 42
1.0000
  0
VERTEX
  8
16
 10
46.3128
 20
48.6243
 30
0.0000
  0
VERTEX
  8
16
 10
47.3543
 20
47.5828
 30
0.0000
 42
1.0000
  0
SEQEND
  8
0
  0
POLYLINE
  8
16
 66
1
 10
0.0000
 20
0.0000
 30
0.0000
 40
0.0000
 41
0.0000
 70
1
  0
VERTEX
  8
16
 10
38.3032
 20
53.5179
 30
0.0000
  0
VERTEX
  8
16
 10
38.3032
 20
57.1500
 30
0.0000
 42
1.0000
  0
VERTEX
  8
16
 10
37.8968
 20
57.1500
 30
0.0000
  0
VERTEX
  8
16
 10
37.8968
 20
53.5179
 30
0.0000
 42
1.0000
  0
SEQEND
  8
0
  0
POLYLINE
  8
16
 66
1
 10
0.0000
 20
0.0000
 30
0.0000
 40
0.0000
 41
0.0000
 70
1
  0
VERTEX
  8
16
 10
45.0683
 20
45.3557
 30
0.0000
  0
VERTEX
  8
16
 10
37.9563
 20
38.2437
 30
0.0000
 42
1.0000
  0
VERTEX
  8
16
 10
38.2437
 20
37.9563
 30
0.0000
  0
VERTEX
  8
16
 10
45.3557
 20
45.0683
 30
0.0000
 42
1.0000
  0
SEQEND
  8
0
  0
POLYLINE
  8
16
 66
1
 10
0.0000
 20
0.0000
 30
0.0000
 40
0.0000
 41
0.0000
 70
1
  0
VERTEX
  8
16
 10
45.2120
 20
45.0088
 30
0.0000
  0
VERTEX
  8
16
 10
46.4565
 20
45.0088
 30
0.0000
 42
1.0000
  0
VERTEX
  8
16
 10
46.4565
 20
45.4152
 30
0.0000
  0
VERTEX
  8
16
 10
45.2120
 20
45.4152
 30
0.0000
 42
1.0000
  0
SEQEND
  8
0
  0
POLYLINE
  8
16
 66
1
 10
0.0000
 20
0.0000
 30
0.0000
 40
0.0000
 41
0.0000
 70
1
  0
VERTEX
  8
16
 10
42.9936
 20
48.9117
 30
0.0000
  0
VERTEX
  8
16
 10
38.2437
 20
53.6616
 30
0.0000
 42
1.0000
  0
VERTEX
  8
16
 10
37.9563
 20
53.3742
 30
0.0000
  0
VERTEX
  8
16
 10
42.7062
 20
48.6243
 30
0.0000
 42
1.0000
  0
SEQEND
  8
0
  0
POLYLINE
  8
16
 66
1
 10
0.0000
 20
0.0000
 30
0.0000
 40
0.0000
 41
0.0000
 70
1
  0
VERTEX
  8
16
 10
46.4565
 20
48.9712
 30
0.0000
  0
VERTEX
  8
16
 10
42.8499
 20
48.9712
 30
0.0000
 42
1.0000
  0
VERTEX
  8
16
 10
42.8499
 20
48.5648
 30
0.0000
  0
VERTEX
  8
16
 10
46.4565
 20
48.5648
 30
0.0000
 42
1.0000
  0
SEQEND
  8
0
  0
POLYLINE
  8
16
 66
1
 10
0.0000
 20
0.0000
 30
0.0000
 40
0.0000
 41
0.0000
 70
1
  0
VERTEX
  8
16
 10
46.6002
 20
64.1183
 30
0.0000
  0
VERTEX
  8
16
 10
47.6417
 20
65.1598
 30
0.0000
 42
1.0000
  0
VERTEX
  8
16
 10
47.3543
 20
65.4472
 30
0.0000
  0
VERTEX
  8
16
 10
46.3128
 20
64.4057
 30
0.0000
 42
1.0000
  0
SEQEND
  8
0
  0
POLYLINE
  8
16
 66
1
 10
0.0000
 20
0.0000
 30
0.0000
 40
0.0000
 41
0.0000
 70
1
  0
VERTEX
  8
16
 10
47.7012
 20
65.3035
 30
0.0000
  0
VERTEX
  8
16
 10
47.7012
 20
66.7765
 30
0.0000
 42
1.0000
  0
VERTEX
  8
16
 10
47.2948
 20
66.7765
 30
0.0000
  0
VERTEX
  8
16
 10
47.2948
 20
65.3035
 30
0.0000
 42
1.0000
  0
SEQEND
  8
0
  0
POLYLINE
  8
16
 66
1
 10
0.0000
 20
0.0000
 30
0.0000
 40
0.0000
 41
0.0000
 70
1
  0
VERTEX
  8
16
 10
47.6417
 20
66.9202
 30
0.0000
  0
VERTEX
  8
16
 10
46.6002
 20
67.9617
 30
0.0000
 42
1.0000
  0
VERTEX
  8
16
 10
46.3128
 20
67.6743
 30
0.0000
  0
VERTEX
  8
16
 10
47.3543
 20
66.6328
 30
0.0000
 42
1.0000
  0
SEQEND
  8
0
  0
POLYLINE
  8
16
 66
1
 10
0.0000
 20
0.0000
 30
0.0000
 40
0.0000
 41
0.0000
 70
1
  0
VERTEX
  8
16
 10
38.2437
 20
57.0063
 30
0.0000
  0
VERTEX
  8
16
 10
45.3557
 20
64.1183
 30
0.0000
 42
1.0000
  0
VERTEX
  8
16
 10
45.0683
 20
64.4057
 30
0.0000
  0
VERTEX
  8
16
 10
37.9563
 20
57.2937
 30
0.0000
 42
1.0000
  0
SEQEND
  8
0
  0
POLYLINE
  8
16
 66
1
 10
0.0000
 20
0.0000
 30
0.0000
 40
0.0000
 41
0.0000
 70
1
  0
VERTEX
  8
16
 10
45.2120
 20
64.0588
 30
0.0000
  0
VERTEX
  8
16
 10
46.4565
 20
64.0588
 30
0.0000
 42
1.0000
  0
VERTEX
  8
16
 10
46.4565
 20
64.4652
 30
0.0000
  0
VERTEX
  8
16
 10
45.2120
 20
64.4652
 30
0.0000
 42
1.0000
  0
SEQEND
  8
0
  0
POLYLINE
  8
16
 66
1
 10
0.0000
 20
0.0000
 30
0.0000
 40
0.0000
 41
0.0000
 70
1
  0
VERTEX
  8
16
 10
40.0392
 20
70.3413
 30
0.0000
  0
VERTEX
  8
16
 10
42.7062
 20
67.6743
 30
0.0000
 42
1.0000
  0
VERTEX
  8
16
 10
42.9936
 20
67.9617
 30
0.0000
  0
VERTEX
  8
16
 10
40.3266
 20
70.6287
 30
0.0000
 42
1.0000
  0
SEQEND
  8
0
  0
POLYLINE
  8
16
 66
1
 10
0.0000
 20
0.0000
 30
0.0000
 40
0.0000
 41
0.0000
 70
1
  0
VERTEX
  8
16
 10
46.4565
 20
68.0212
 30
0.0000
  0
VERTEX
  8
16
 10
42.8499
 20
68.0212
 30
0.0000
 42
1.0000
  0
VERTEX
  8
16
 10
42.8499
 20
67.6148
 30
0.0000
  0
VERTEX
  8
16
 10
46.4565
 20
67.6148
 30
0.0000
 42
1.0000
  0
SEQEND
  8
0
  0
POLYLINE
  8
16
 66
1
 10
0.0000
 20
0.0000
 30
0.0000
 40
0.0000
 41
0.0000
 70
1
  0
VERTEX
  8
16
 10
42.3229
 20
30.7476
 30
0.0000
  0
VERTEX
  8
16
 10
43.9792
 20
30.7476
 30
0.0000
 42
1.0000
  0
VERTEX
  8
16
 10
43.9792
 20
31.1540
 30
0.0000
  0
VERTEX
  8
16
 10
42.3229
 20
31.1540
 30
0.0000
 42
1.0000
  0
SEQEND
  8
0
  0
POLYLINE
  8
16
 66
1
 10
0.0000
 20
0.0000
 30
0.0000
 40
0.0000
 41
0.0000
 70
1
  0
VERTEX
  8
16
 10
43.8355
 20
30.8071
 30
0.0000
  0
VERTEX
  8
16
 10
44.3063
 20
30.3363
 30
0.0000
 42
1.0000
  0
VERTEX
  8
16
 10
44.5937
 20
30.6237
 30
0.0000
  0
VERTEX
  8
16
 10
44.1229
 20
31.0945
 30
0.0000
 42
1.0000
  0
SEQEND
  8
0
  0
POLYLINE
  8
16
 66
1
 10
0.0000
 20
0.0000
 30
0.0000
 40
0.0000
 41
0.0000
 70
1
  0
VERTEX
  8
16
 10
37.8968
 20
38.1000
 30
0.0000
  0
VERTEX
  8
16
 10
37.8968
 20
35.1737
 30
0.0000
 42
1.0000
  0
VERTEX
  8
16
 10
38.3032
 20
35.1737
 30
0.0000
  0
VERTEX
  8
16
 10
38.3032
 20
38.1000
 30
0.0000
 42
1.0000
  0
SEQEND
  8
0
  0
POLYLINE
  8
16
 66
1
 10
0.0000
 20
0.0000
 30
0.0000
 40
0.0000
 41
0.0000
 70
1
  0
VERTEX
  8
16
 10
37.9563
 20
35.0300
 30
0.0000
  0
VERTEX
  8
16
 10
42.1792
 20
30.8071
 30
0.0000
 42
1.0000
  0
VERTEX
  8
16
 10
42.4666
 20
31.0945
 30
0.0000
  0
VERTEX
  8
16
 10
38.2437
 20
35.3174
 30
0.0000
 42
1.0000
  0
SEQEND
  8
0
  0
POLYLINE
  8
16
 66
1
 10
0.0000
 20
0.0000
 30
0.0000
 40
0.0000
 41
0.0000
 70
1
  0
VERTEX
  8
16
 10
44.4500
 20
30.2768
 30
0.0000
  0
VERTEX
  8
16
 10
45.7200
 20
30.2768
 30
0.0000
 42
1.0000
  0
VERTEX
  8
16
 10
45.7200
 20
30.6832
 30
0.0000
  0
VERTEX
  8
16
 10
44.4500
 20
30.6832
 30
0.0000
 42
1.0000
  0
SEQEND
  8
0
  0
POLYLINE
  8
16
 66
1
 10
0.0000
 20
0.0000
 30
0.0000
 40
0.0000
 41
0.0000
 70
1
  0
VERTEX
  8
16
 10
45.5763
 20
30.3363
 30
0.0000
  0
VERTEX
  8
16
 10
46.8463
 20
29.0663
 30
0.0000
 42
1.0000
  0
VERTEX
  8
16
 10
47.1337
 20
29.3537
 30
0.0000
  0
VERTEX
  8
16
 10
45.8637
 20
30.6237
 30
0.0000
 42
1.0000
  0
SEQEND
  8
0
  0
POLYLINE
  8
16
 66
1
 10
0.0000
 20
0.0000
 30
0.0000
 40
0.0000
 41
0.0000
 70
1
  0
VERTEX
  8
16
 10
47.2948
 20
28.6765
 30
0.0000
  0
VERTEX
  8
16
 10
47.2948
 20
27.2035
 30
0.0000
 42
1.0000
  0
VERTEX
  8
16
 10
47.7012
 20
27.2035
 30
0.0000
  0
VERTEX
  8
16
 10
47.7012
 20
28.6765
 30
0.0000
 42
1.0000
  0
SEQEND
  8
0
  0
POLYLINE
  8
16
 66
1
 10
0.0000
 20
0.0000
 30
0.0000
 40
0.0000
 41
0.0000
 70
1
  0
VERTEX
  8
16
 10
47.3543
 20
27.3472
 30
0.0000
  0
VERTEX
  8
16
 10
46.3128
 20
26.3057
 30
0.0000
 42
1.0000
  0
VERTEX
  8
16
 10
46.6002
 20
26.0183
 30
0.0000
  0
VERTEX
  8
16
 10
47.6417
 20
27.0598
 30
0.0000
 42
1.0000
  0
SEQEND
  8
0
  0
POLYLINE
  8
16
 66
1
 10
0.0000
 20
0.0000
 30
0.0000
 40
0.0000
 41
0.0000
 70
1
  0
VERTEX
  8
16
 10
46.4565
 20
26.3652
 30
0.0000
  0
VERTEX
  8
16
 10
37.5920
 20
26.3652
 30
0.0000
 42
1.0000
  0
VERTEX
  8
16
 10
37.5920
 20
25.9588
 30
0.0000
  0
VERTEX
  8
16
 10
46.4565
 20
25.9588
 30
0.0000
 42
1.0000
  0
SEQEND
  8
0
  0
POLYLINE
  8
16
 66
1
 10
0.0000
 20
0.0000
 30
0.0000
 40
0.0000
 41
0.0000
 70
1
  0
VERTEX
  8
16
 10
46.7868
 20
29.2100
 30
0.0000
  0
VERTEX
  8
16
 10
46.7868
 20
29.1845
 30
0.0000
 42
1.0000
  0
VERTEX
  8
16
 10
47.1932
 20
29.1845
 30
0.0000
  0
VERTEX
  8
16
 10
47.1932
 20
29.2100
 30
0.0000
 42
1.0000
  0
SEQEND
  8
0
  0
POLYLINE
  8
16
 66
1
 10
0.0000
 20
0.0000
 30
0.0000
 40
0.0000
 41
0.0000
 70
1
  0
VERTEX
  8
16
 10
46.8463
 20
29.0408
 30
0.0000
  0
VERTEX
  8
16
 10
47.3543
 20
28.5328
 30
0.0000
 42
1.0000
  0
VERTEX
  8
16
 10
47.6417
 20
28.8202
 30
0.0000
  0
VERTEX
  8
16
 10
47.1337
 20
29.3282
 30
0.0000
 42
1.0000
  0
SEQEND
  8
0
  0
POLYLINE
  8
16
 66
1
 10
0.0000
 20
0.0000
 30
0.0000
 40
0.0000
 41
0.0000
 70
1
  0
VERTEX
  8
16
 10
37.4483
 20
26.3057
 30
0.0000
  0
VERTEX
  8
16
 10
32.8763
 20
21.7337
 30
0.0000
 42
1.0000
  0
VERTEX
  8
16
 10
33.1637
 20
21.4463
 30
0.0000
  0
VERTEX
  8
16
 10
37.7357
 20
26.0183
 30
0.0000
 42
1.0000
  0
SEQEND
  8
0
  0
POLYLINE
  8
16
 66
1
 10
0.0000
 20
0.0000
 30
0.0000
 40
0.0000
 41
0.0000
 70
1
  0
VERTEX
  8
16
 10
38.1000
 20
57.3532
 30
0.0000
  0
VERTEX
  8
16
 10
37.4650
 20
57.3532
 30
0.0000
 42
1.0000
  0
VERTEX
  8
16
 10
37.4650
 20
56.9468
 30
0.0000
  0
VERTEX
  8
16
 10
38.1000
 20
56.9468
 30
0.0000
 42
1.0000
  0
SEQEND
  8
0
  0
POLYLINE
  8
16
 66
1
 10
0.0000
 20
0.0000
 30
0.0000
 40
0.0000
 41
0.0000
 70
1
  0
VERTEX
  8
16
 10
37.6087
 20
57.2937
 30
0.0000
  0
VERTEX
  8
16
 10
30.9412
 20
63.9612
 30
0.0000
 42
1.0000
  0
VERTEX
  8
16
 10
30.6538
 20
63.6738
 30
0.0000
  0
VERTEX
  8
16
 10
37.3213
 20
57.0063
 30
0.0000
 42
1.0000
  0
SEQEND
  8
0
  0
POLYLINE
  8
16
 66
1
 10
0.0000
 20
0.0000
 30
0.0000
 40
0.0000
 41
0.0000
 70
1
  0
VERTEX
  8
16
 10
30.7975
 20
64.0207
 30
0.0000
  0
VERTEX
  8
16
 10
26.0883
 20
64.0207
 30
0.0000
 42
1.0000
  0
VERTEX
  8
16
 10
26.0883
 20
63.6143
 30
0.0000
  0
VERTEX
  8
16
 10
30.7975
 20
63.6143
 30
0.0000
 42
1.0000
  0
SEQEND
  8
0
  0
POLYLINE
  8
16
 66
1
 10
0.0000
 20
0.0000
 30
0.0000
 40
0.0000
 41
0.0000
 70
1
  0
VERTEX
  8
16
 10
26.2320
 20
63.9612
 30
0.0000
  0
VERTEX
  8
16
 10
25.8383
 20
64.3549
 30
0.0000
 42
1.0000
  0
VERTEX
  8
16
 10
25.5509
 20
64.0675
 30
0.0000
  0
VERTEX
  8
16
 10
25.9446
 20
63.6738
 30
0.0000
 42
1.0000
  0
SEQEND
  8
0
  0
POLYLINE
  8
16
 66
1
 10
0.0000
 20
0.0000
 30
0.0000
 40
0.0000
 41
0.0000
 70
1
  0
VERTEX
  8
16
 10
22.6100
 20
64.3549
 30
0.0000
  0
VERTEX
  8
16
 10
21.7337
 20
65.2312
 30
0.0000
 42
1.0000
  0
VERTEX
  8
16
 10
21.4463
 20
64.9438
 30
0.0000
  0
VERTEX
  8
16
 10
22.3226
 20
64.0675
 30
0.0000
 42
1.0000
  0
SEQEND
  8
0
  0
POLYLINE
  8
16
 66
1
 10
0.0000
 20
0.0000
 30
0.0000
 40
0.0000
 41
0.0000
 70
1
  0
VERTEX
  8
16
 10
25.6946
 20
64.4144
 30
0.0000
  0
VERTEX
  8
16
 10
22.4663
 20
64.4144
 30
0.0000
 42
1.0000
  0
VERTEX
  8
16
 10
22.4663
 20
64.0080
 30
0.0000
  0
VERTEX
  8
16
 10
25.6946
 20
64.0080
 30
0.0000
 42
1.0000
  0
SEQEND
  8
0
  0
POLYLINE
  8
16
 66
1
 10
0.0000
 20
0.0000
 30
0.0000
 40
0.0000
 41
0.0000
 70
1
  0
VERTEX
  8
16
 10
21.5900
 20
65.2907
 30
0.0000
  0
VERTEX
  8
16
 10
19.3675
 20
65.2907
 30
0.0000
 42
1.0000
  0
VERTEX
  8
16
 10
19.3675
 20
64.8843
 30
0.0000
  0
VERTEX
  8
16
 10
21.5900
 20
64.8843
 30
0.0000
 42
1.0000
  0
SEQEND
  8
0
  0
POLYLINE
  8
16
 66
1
 10
0.0000
 20
0.0000
 30
0.0000
 40
0.0000
 41
0.0000
 70
1
  0
VERTEX
  8
16
 10
19.2238
 20
65.2312
 30
0.0000
  0
VERTEX
  8
16
 10
18.9063
 20
64.9137
 30
0.0000
 42
1.0000
  0
VERTEX
  8
16
 10
19.1937
 20
64.6263
 30
0.0000
  0
VERTEX
  8
16
 10
19.5112
 20
64.9438
 30
0.0000
 42
1.0000
  0
SEQEND
  8
0
  0
POLYLINE
  8
16
 66
1
 10
0.0000
 20
0.0000
 30
0.0000
 40
0.0000
 41
0.0000
 70
1
  0
VERTEX
  8
16
 10
19.0500
 20
64.9732
 30
0.0000
  0
VERTEX
  8
16
 10
9.5250
 20
64.9732
 30
0.0000
 42
1.0000
  0
VERTEX
  8
16
 10
9.5250
 20
64.5668
 30
0.0000
  0
VERTEX
  8
16
 10
19.0500
 20
64.5668
 30
0.0000
 42
1.0000
  0
SEQEND
  8
0
  0
POLYLINE
  8
16
 66
1
 10
0.0000
 20
0.0000
 30
0.0000
 40
0.0000
 41
0.0000
 70
1
  0
VERTEX
  8
16
 10
9.3813
 20
64.9137
 30
0.0000
  0
VERTEX
  8
16
 10
8.7463
 20
64.2787
 30
0.0000
 42
1.0000
  0
VERTEX
  8
16
 10
9.0337
 20
63.9913
 30
0.0000
  0
VERTEX
  8
16
 10
9.6687
 20
64.6263
 30
0.0000
 42
1.0000
  0
SEQEND
  8
0
  0
POLYLINE
  8
16
 66
1
 10
0.0000
 20
0.0000
 30
0.0000
 40
0.0000
 41
0.0000
 70
1
  0
VERTEX
  8
16
 10
8.6868
 20
64.1350
 30
0.0000
  0
VERTEX
  8
16
 10
8.6868
 20
56.5150
 30
0.0000
 42
1.0000
  0
VERTEX
  8
16
 10
9.0932
 20
56.5150
 30
0.0000
  0
VERTEX
  8
16
 10
9.0932
 20
64.1350
 30
0.0000
 42
1.0000
  0
SEQEND
  8
0
  0
POLYLINE
  8
16
 66
1
 10
0.0000
 20
0.0000
 30
0.0000
 40
0.0000
 41
0.0000
 70
1
  0
VERTEX
  8
16
 10
8.7463
 20
56.3713
 30
0.0000
  0
VERTEX
  8
16
 10
9.3813
 20
55.7363
 30
0.0000
 42
1.0000
  0
VERTEX
  8
16
 10
9.6687
 20
56.0237
 30
0.0000
  0
VERTEX
  8
16
 10
9.0337
 20
56.6587
 30
0.0000
 42
1.0000
  0
SEQEND
  8
0
  0
POLYLINE
  8
16
 66
1
 10
0.0000
 20
0.0000
 30
0.0000
 40
0.0000
 41
0.0000
 70
1
  0
VERTEX
  8
16
 10
9.5250
 20
55.6768
 30
0.0000
  0
VERTEX
  8
16
 10
17.7800
 20
55.6768
 30
0.0000
 42
1.0000
  0
VERTEX
  8
16
 10
17.7800
 20
56.0832
 30
0.0000
  0
VERTEX
  8
16
 10
9.5250
 20
56.0832
 30
0.0000
 42
1.0000
  0
SEQEND
  8
0
  0
POLYLINE
  8
16
 66
1
 10
0.0000
 20
0.0000
 30
0.0000
 40
0.0000
 41
0.0000
 70
1
  0
VERTEX
  8
16
 10
38.1000
 20
76.4032
 30
0.0000
  0
VERTEX
  8
16
 10
37.7825
 20
76.4032
 30
0.0000
 42
1.0000
  0
VERTEX
  8
16
 10
37.7825
 20
75.9968
 30
0.0000
  0
VERTEX
  8
16
 10
38.1000
 20
75.9968
 30
0.0000
 42
1.0000
  0
SEQEND
  8
0
  0
POLYLINE
  8
16
 66
1
 10
0.0000
 20
0.0000
 30
0.0000
 40
0.0000
 41
0.0000
 70
1
  0
VERTEX
  8
16
 10
37.6388
 20
76.3437
 30
0.0000
  0
VERTEX
  8
16
 10
35.7338
 20
74.4387
 30
0.0000
 42
1.0000
  0
VERTEX
  8
16
 10
36.0212
 20
74.1513
 30
0.0000
  0
VERTEX
  8
16
 10
37.9262
 20
76.0563
 30
0.0000
 42
1.0000
  0
SEQEND
  8
0
  0
POLYLINE
  8
16
 66
1
 10
0.0000
 20
0.0000
 30
0.0000
 40
0.0000
 41
0.0000
 70
1
  0
VERTEX
  8
16
 10
35.6743
 20
74.2950
 30
0.0000
  0
VERTEX
  8
16
 10
35.6743
 20
72.4588
 30
0.0000
 42
1.0000
  0
VERTEX
  8
16
 10
36.0807
 20
72.4588
 30
0.0000
  0
VERTEX
  8
16
 10
36.0807
 20
74.2950
 30
0.0000
 42
1.0000
  0
SEQEND
  8
0
  0
POLYLINE
  8
16
 66
1
 10
0.0000
 20
0.0000
 30
0.0000
 40
0.0000
 41
0.0000
 70
1
  0
VERTEX
  8
16
 10
35.7338
 20
72.3151
 30
0.0000
  0
VERTEX
  8
16
 10
36.2155
 20
71.8334
 30
0.0000
 42
1.0000
  0
VERTEX
  8
16
 10
36.5029
 20
72.1208
 30
0.0000
  0
VERTEX
  8
16
 10
36.0212
 20
72.6025
 30
0.0000
 42
1.0000
  0
SEQEND
  8
0
  0
POLYLINE
  8
16
 66
1
 10
0.0000
 20
0.0000
 30
0.0000
 40
0.0000
 41
0.0000
 70
1
  0
VERTEX
  8
16
 10
36.1560
 20
71.9771
 30
0.0000
  0
VERTEX
  8
16
 10
36.1560
 20
71.9083
 30
0.0000
 42
1.0000
  0
VERTEX
  8
16
 10
36.5624
 20
71.9083
 30
0.0000
  0
VERTEX
  8
16
 10
36.5624
 20
71.9771
 30
0.0000
 42
1.0000
  0
SEQEND
  8
0
  0
POLYLINE
  8
16
 66
1
 10
0.0000
 20
0.0000
 30
0.0000
 40
0.0000
 41
0.0000
 70
1
  0
VERTEX
  8
16
 10
36.2155
 20
71.7646
 30
0.0000
  0
VERTEX
  8
16
 10
37.6388
 20
70.3413
 30
0.0000
 42
1.0000
  0
VERTEX
  8
16
 10
37.9262
 20
70.6287
 30
0.0000
  0
VERTEX
  8
16
 10
36.5029
 20
72.0520
 30
0.0000
 42
1.0000
  0
SEQEND
  8
0
  0
POLYLINE
  8
16
 66
1
 10
0.0000
 20
0.0000
 30
0.0000
 40
0.0000
 41
0.0000
 70
1
  0
VERTEX
  8
16
 10
37.7825
 20
70.2818
 30
0.0000
  0
VERTEX
  8
16
 10
40.1829
 20
70.2818
 30
0.0000
 42
1.0000
  0
VERTEX
  8
16
 10
40.1829
 20
70.6882
 30
0.0000
  0
VERTEX
  8
16
 10
37.7825
 20
70.6882
 30
0.0000
 42
1.0000
  0
SEQEND
  8
0
  0
POLYLINE
  8
16
 66
1
 10
0.0000
 20
0.0000
 30
0.0000
 40
0.0000
 41
0.0000
 70
1
  0
VERTEX
  8
16
 10
58.5216
 20
48.3856
 30
0.0000
  0
VERTEX
  8
16
 10
58.5216
 20
50.6744
 30
0.0000
 42
1.0000
  0
VERTEX
  8
16
 10
58.1152
 20
50.6744
 30
0.0000
  0
VERTEX
  8
16
 10
58.1152
 20
48.3856
 30
0.0000
 42
1.0000
  0
SEQEND
  8
0
  0
POLYLINE
  8
16
 66
1
 10
0.0000
 20
0.0000
 30
0.0000
 40
0.0000
 41
0.0000
 70
1
  0
VERTEX
  8
16
 10
57.3532
 20
38.1000
 30
0.0000
  0
VERTEX
  8
16
 10
57.3532
 20
47.2172
 30
0.0000
 42
1.0000
  0
VERTEX
  8
16
 10
56.9468
 20
47.2172
 30
0.0000
  0
VERTEX
  8
16
 10
56.9468
 20
38.1000
 30
0.0000
 42
1.0000
  0
SEQEND
  8
0
  0
POLYLINE
  8
16
 66
1
 10
0.0000
 20
0.0000
 30
0.0000
 40
0.0000
 41
0.0000
 70
1
  0
VERTEX
  8
16
 10
57.3532
 20
51.8428
 30
0.0000
  0
VERTEX
  8
16
 10
57.3532
 20
57.1500
 30
0.0000
 42
1.0000
  0
VERTEX
  8
16
 10
56.9468
 20
57.1500
 30
0.0000
  0
VERTEX
  8
16
 10
56.9468
 20
51.8428
 30
0.0000
 42
1.0000
  0
SEQEND
  8
0
  0
POLYLINE
  8
16
 66
1
 10
0.0000
 20
0.0000
 30
0.0000
 40
0.0000
 41
0.0000
 70
1
  0
VERTEX
  8
16
 10
57.2937
 20
47.0735
 30
0.0000
  0
VERTEX
  8
16
 10
58.4621
 20
48.2419
 30
0.0000
 42
1.0000
  0
VERTEX
  8
16
 10
58.1747
 20
48.5293
 30
0.0000
  0
VERTEX
  8
16
 10
57.0063
 20
47.3609
 30
0.0000
 42
1.0000
  0
SEQEND
  8
0
  0
POLYLINE
  8
16
 66
1
 10
0.0000
 20
0.0000
 30
0.0000
 40
0.0000
 41
0.0000
 70
1
  0
VERTEX
  8
16
 10
58.4621
 20
50.8181
 30
0.0000
  0
VERTEX
  8
16
 10
57.2937
 20
51.9865
 30
0.0000
 42
1.0000
  0
VERTEX
  8
16
 10
57.0063
 20
51.6991
 30
0.0000
  0
VERTEX
  8
16
 10
58.1747
 20
50.5307
 30
0.0000
 42
1.0000
  0
SEQEND
  8
0
  0
POLYLINE
  8
16
 66
1
 10
0.0000
 20
0.0000
 30
0.0000
 40
0.0000
 41
0.0000
 70
1
  0
VERTEX
  8
16
 10
58.5216
 20
67.4356
 30
0.0000
  0
VERTEX
  8
16
 10
58.5216
 20
69.7244
 30
0.0000
 42
1.0000
  0
VERTEX
  8
16
 10
58.1152
 20
69.7244
 30
0.0000
  0
VERTEX
  8
16
 10
58.1152
 20
67.4356
 30
0.0000
 42
1.0000
  0
SEQEND
  8
0
  0
POLYLINE
  8
16
 66
1
 10
0.0000
 20
0.0000
 30
0.0000
 40
0.0000
 41
0.0000
 70
1
  0
VERTEX
  8
16
 10
57.3532
 20
57.1500
 30
0.0000
  0
VERTEX
  8
16
 10
57.3532
 20
66.2672
 30
0.0000
 42
1.0000
  0
VERTEX
  8
16
 10
56.9468
 20
66.2672
 30
0.0000
  0
VERTEX
  8
16
 10
56.9468
 20
57.1500
 30
0.0000
 42
1.0000
  0
SEQEND
  8
0
  0
POLYLINE
  8
16
 66
1
 10
0.0000
 20
0.0000
 30
0.0000
 40
0.0000
 41
0.0000
 70
1
  0
VERTEX
  8
16
 10
57.3532
 20
70.8928
 30
0.0000
  0
VERTEX
  8
16
 10
57.3532
 20
76.2000
 30
0.0000
 42
1.0000
  0
VERTEX
  8
16
 10
56.9468
 20
76.2000
 30
0.0000
  0
VERTEX
  8
16
 10
56.9468
 20
70.8928
 30
0.0000
 42
1.0000
  0
SEQEND
  8
0
  0
POLYLINE
  8
16
 66
1
 10
0.0000
 20
0.0000
 30
0.0000
 40
0.0000
 41
0.0000
 70
1
  0
VERTEX
  8
16
 10
57.2937
 20
66.1235
 30
0.0000
  0
VERTEX
  8
16
 10
58.4621
 20
67.2919
 30
0.0000
 42
1.0000
  0
VERTEX
  8
16
 10
58.1747
 20
67.5793
 30
0.0000
  0
VERTEX
  8
16
 10
57.0063
 20
66.4109
 30
0.0000
 42
1.0000
  0
SEQEND
  8
0
  0
POLYLINE
  8
16
 66
1
 10
0.0000
 20
0.0000
 30
0.0000
 40
0.0000
 41
0.0000
 70
1
  0
VERTEX
  8
16
 10
58.4621
 20
69.8681
 30
0.0000
  0
VERTEX
  8
16
 10
57.2937
 20
71.0365
 30
0.0000
 42
1.0000
  0
VERTEX
  8
16
 10
57.0063
 20
70.7491
 30
0.0000
  0
VERTEX
  8
16
 10
58.1747
 20
69.5807
 30
0.0000
 42
1.0000
  0
SEQEND
  8
0
  0
POLYLINE
  8
16
 66
1
 10
0.0000
 20
0.0000
 30
0.0000
 40
0.0000
 41
0.0000
 70
1
  0
VERTEX
  8
16
 10
57.1500
 20
76.4032
 30
0.0000
  0
VERTEX
  8
16
 10
52.0700
 20
76.4032
 30
0.0000
 42
1.0000
  0
VERTEX
  8
16
 10
52.0700
 20
75.9968
 30
0.0000
  0
VERTEX
  8
16
 10
57.1500
 20
75.9968
 30
0.0000
 42
1.0000
  0
SEQEND
  8
0
  0
POLYLINE
  8
16
 66
1
 10
0.0000
 20
0.0000
 30
0.0000
 40
0.0000
 41
0.0000
 70
1
  0
VERTEX
  8
16
 10
52.2137
 20
76.3437
 30
0.0000
  0
VERTEX
  8
16
 10
49.6737
 20
78.8837
 30
0.0000
 42
1.0000
  0
VERTEX
  8
16
 10
49.3863
 20
78.5963
 30
0.0000
  0
VERTEX
  8
16
 10
51.9263
 20
76.0563
 30
0.0000
 42
1.0000
  0
SEQEND
  8
0
  0
POLYLINE
  8
16
 66
1
 10
0.0000
 20
0.0000
 30
0.0000
 40
0.0000
 41
0.0000
 70
1
  0
VERTEX
  8
16
 10
11.7475
 20
78.5368
 30
0.0000
  0
VERTEX
  8
16
 10
49.5300
 20
78.5368
 30
0.0000
 42
1.0000
  0
VERTEX
  8
16
 10
49.5300
 20
78.9432
 30
0.0000
  0
VERTEX
  8
16
 10
11.7475
 20
78.9432
 30
0.0000
 42
1.0000
  0
SEQEND
  8
0
  0
POLYLINE
  8
16
 66
1
 10
0.0000
 20
0.0000
 30
0.0000
 40
0.0000
 41
0.0000
 70
1
  0
VERTEX
  8
16
 10
17.7800
 20
58.6232
 30
0.0000
  0
VERTEX
  8
16
 10
10.1600
 20
58.6232
 30
0.0000
 42
1.0000
  0
VERTEX
  8
16
 10
10.1600
 20
58.2168
 30
0.0000
  0
VERTEX
  8
16
 10
17.7800
 20
58.2168
 30
0.0000
 42
1.0000
  0
SEQEND
  8
0
  0
POLYLINE
  8
16
 66
1
 10
0.0000
 20
0.0000
 30
0.0000
 40
0.0000
 41
0.0000
 70
1
  0
VERTEX
  8
16
 10
10.1600
 20
77.2668
 30
0.0000
  0
VERTEX
  8
16
 10
10.4775
 20
77.2668
 30
0.0000
 42
1.0000
  0
VERTEX
  8
16
 10
10.4775
 20
77.6732
 30
0.0000
  0
VERTEX
  8
16
 10
10.1600
 20
77.6732
 30
0.0000
 42
1.0000
  0
SEQEND
  8
0
  0
POLYLINE
  8
16
 66
1
 10
0.0000
 20
0.0000
 30
0.0000
 40
0.0000
 41
0.0000
 70
1
  0
VERTEX
  8
16
 10
10.6212
 20
77.3263
 30
0.0000
  0
VERTEX
  8
16
 10
11.8912
 20
78.5963
 30
0.0000
 42
1.0000
  0
VERTEX
  8
16
 10
11.6038
 20
78.8837
 30
0.0000
  0
VERTEX
  8
16
 10
10.3338
 20
77.6137
 30
0.0000
 42
1.0000
  0
SEQEND
  8
0
  0
INSERT
  8
18
  2
ROUNDV
 10
10.1600
 20
58.4200
 30
0.0000
 41
1.5240
 42
1.5240
 43
1.0000
 50
0.0000
  0
INSERT
  8
18
  2
ROUNDV
 10
10.1600
 20
77.4700
 30
0.0000
 41
1.5240
 42
1.5240
 43
1.0000
 50
0.0000
  0
POLYLINE
  8
16
 66
1
 10
0.0000
 20
0.0000
 30
0.0000
 40
0.0000
 41
0.0000
 70
1
  0
VERTEX
  8
16
 10
2.5400
 20
23.9268
 30
0.0000
  0
VERTEX
  8
16
 10
6.3500
 20
23.9268
 30
0.0000
 42
1.0000
  0
VERTEX
  8
16
 10
6.3500
 20
24.3332
 30
0.0000
  0
VERTEX
  8
16
 10
2.5400
 20
24.3332
 30
0.0000
 42
1.0000
  0
SEQEND
  8
0
  0
POLYLINE
  8
16
 66
1
 10
0.0000
 20
0.0000
 30
0.0000
 40
0.0000
 41
0.0000
 70
1
  0
VERTEX
  8
16
 10
17.7800
 20
51.0032
 30
0.0000
  0
VERTEX
  8
16
 10
9.8425
 20
51.0032
 30
0.0000
 42
1.0000
  0
VERTEX
  8
16
 10
9.8425
 20
50.5968
 30
0.0000
  0
VERTEX
  8
16
 10
17.7800
 20
50.5968
 30
0.0000
 42
1.0000
  0
SEQEND
  8
0
  0
INSERT
  8
18
  2
ROUNDV
 10
6.3500
 20
24.1300
 30
0.0000
 41
1.5240
 42
1.5240
 43
1.0000
 50
0.0000
  0
INSERT
  8
18
  2
ROUNDV
 10
9.8425
 20
50.8000
 30
0.0000
 41
1.5240
 42
1.5240
 43
1.0000
 50
0.0000
  0
POLYLINE
  8
16
 66
1
 10
0.0000
 20
0.0000
 30
0.0000
 40
0.0000
 41
0.0000
 70
1
  0
VERTEX
  8
16
 10
7.7637
 20
66.1837
 30
0.0000
  0
VERTEX
  8
16
 10
5.2237
 20
68.7237
 30
0.0000
 42
1.0000
  0
VERTEX
  8
16
 10
4.9363
 20
68.4363
 30
0.0000
  0
VERTEX
  8
16
 10
7.4763
 20
65.8963
 30
0.0000
 42
1.0000
  0
SEQEND
  8
0
  0
POLYLINE
  8
16
 66
1
 10
0.0000
 20
0.0000
 30
0.0000
 40
0.0000
 41
0.0000
 70
1
  0
VERTEX
  8
16
 10
5.0800
 20
68.7832
 30
0.0000
  0
VERTEX
  8
16
 10
2.5400
 20
68.7832
 30
0.0000
 42
1.0000
  0
VERTEX
  8
16
 10
2.5400
 20
68.3768
 30
0.0000
  0
VERTEX
  8
16
 10
5.0800
 20
68.3768
 30
0.0000
 42
1.0000
  0
SEQEND
  8
0
  0
POLYLINE
  8
16
 66
1
 10
0.0000
 20
0.0000
 30
0.0000
 40
0.0000
 41
0.0000
 70
1
  0
VERTEX
  8
16
 10
7.8232
 20
30.4800
 30
0.0000
  0
VERTEX
  8
16
 10
7.8232
 20
66.0400
 30
0.0000
 42
1.0000
  0
VERTEX
  8
16
 10
7.4168
 20
66.0400
 30
0.0000
  0
VERTEX
  8
16
 10
7.4168
 20
30.4800
 30
0.0000
 42
1.0000
  0
SEQEND
  8
0
  0
POLYLINE
  8
16
 66
1
 10
0.0000
 20
0.0000
 30
0.0000
 40
0.0000
 41
0.0000
 70
1
  0
VERTEX
  8
16
 10
5.7032
 20
12.0000
 30
0.0000
  0
VERTEX
  8
16
 10
5.7032
 20
12.5000
 30
0.0000
 42
1.0000
  0
VERTEX
  8
16
 10
5.2968
 20
12.5000
 30
0.0000
  0
VERTEX
  8
16
 10
5.2968
 20
12.0000
 30
0.0000
 42
1.0000
  0
SEQEND
  8
0
  0
POLYLINE
  8
16
 66
1
 10
0.0000
 20
0.0000
 30
0.0000
 40
0.0000
 41
0.0000
 70
1
  0
VERTEX
  8
16
 10
5.6437
 20
12.6437
 30
0.0000
  0
VERTEX
  8
16
 10
2.1437
 20
16.1437
 30
0.0000
 42
1.0000
  0
VERTEX
  8
16
 10
1.8563
 20
15.8563
 30
0.0000
  0
VERTEX
  8
16
 10
5.3563
 20
12.3563
 30
0.0000
 42
1.0000
  0
SEQEND
  8
0
  0
POLYLINE
  8
16
 66
1
 10
0.0000
 20
0.0000
 30
0.0000
 40
0.0000
 41
0.0000
 70
1
  0
VERTEX
  8
16
 10
16.0000
 20
24.2032
 30
0.0000
  0
VERTEX
  8
16
 10
14.1000
 20
24.2032
 30
0.0000
 42
1.0000
  0
VERTEX
  8
16
 10
14.1000
 20
23.7968
 30
0.0000
  0
VERTEX
  8
16
 10
16.0000
 20
23.7968
 30
0.0000
 42
1.0000
  0
SEQEND
  8
0
  0
POLYLINE
  8
16
 66
1
 10
0.0000
 20
0.0000
 30
0.0000
 40
0.0000
 41
0.0000
 70
1
  0
VERTEX
  8
16
 10
14.2437
 20
24.1437
 30
0.0000
  0
VERTEX
  8
16
 10
7.7637
 20
30.6237
 30
0.0000
 42
1.0000
  0
VERTEX
  8
16
 10
7.4763
 20
30.3363
 30
0.0000
  0
VERTEX
  8
16
 10
13.9563
 20
23.8563
 30
0.0000
 42
1.0000
  0
SEQEND
  8
0
  0
INSERT
  8
18
  2
ROUNDV
 10
2.0000
 20
16.0000
 30
0.0000
 41
1.5240
 42
1.5240
 43
1.0000
 50
0.0000
  0
INSERT
  8
18
  2
ROUNDV
 10
16.0000
 20
24.0000
 30
0.0000
 41
1.5240
 42
1.5240
 43
1.0000
 50
0.0000
  0
POLYLINE
  8
16
 66
1
 10
0.0000
 20
0.0000
 30
0.0000
 40
0.0000
 41
0.0000
 70
1
  0
VERTEX
  8
16
 10
2.5400
 20
65.8368
 30
0.0000
  0
VERTEX
  8
16
 10
5.0800
 20
65.8368
 30
0.0000
 42
1.0000
  0
VERTEX
  8
16
 10
5.0800
 20
66.2432
 30
0.0000
  0
VERTEX
  8
16
 10
2.5400
 20
66.2432
 30
0.0000
 42
1.0000
  0
SEQEND
  8
0
  0
POLYLINE
  8
16
 66
1
 10
0.0000
 20
0.0000
 30
0.0000
 40
0.0000
 41
0.0000
 70
1
  0
VERTEX
  8
16
 10
4.9363
 20
65.8963
 30
0.0000
  0
VERTEX
  8
16
 10
6.2063
 20
64.6263
 30
0.0000
 42
1.0000
  0
VERTEX
  8
16
 10
6.4937
 20
64.9137
 30
0.0000
  0
VERTEX
  8
16
 10
5.2237
 20
66.1837
 30
0.0000
 42
1.0000
  0
SEQEND
  8
0
  0
POLYLINE
  8
16
 66
1
 10
0.0000
 20
0.0000
 30
0.0000
 40
0.0000
 41
0.0000
 70
1
  0
VERTEX
  8
16
 10
6.5532
 20
30.4800
 30
0.0000
  0
VERTEX
  8
16
 10
6.5532
 20
64.7700
 30
0.0000
 42
1.0000
  0
VERTEX
  8
16
 10
6.1468
 20
64.7700
 30
0.0000
  0
VERTEX
  8
16
 10
6.1468
 20
30.4800
 30
0.0000
 42
1.0000
  0
SEQEND
  8
0
  0
POLYLINE
  8
16
 66
1
 10
0.0000
 20
0.0000
 30
0.0000
 40
0.0000
 41
0.0000
 70
1
  0
VERTEX
  8
16
 10
14.2032
 20
21.0000
 30
0.0000
  0
VERTEX
  8
16
 10
14.2032
 20
22.8300
 30
0.0000
 42
1.0000
  0
VERTEX
  8
16
 10
13.7968
 20
22.8300
 30
0.0000
  0
VERTEX
  8
16
 10
13.7968
 20
21.0000
 30
0.0000
 42
1.0000
  0
SEQEND
  8
0
  0
POLYLINE
  8
16
 66
1
 10
0.0000
 20
0.0000
 30
0.0000
 40
0.0000
 41
0.0000
 70
1
  0
VERTEX
  8
16
 10
14.1437
 20
22.9737
 30
0.0000
  0
VERTEX
  8
16
 10
6.4937
 20
30.6237
 30
0.0000
 42
1.0000
  0
VERTEX
  8
16
 10
6.2063
 20
30.3363
 30
0.0000
  0
VERTEX
  8
16
 10
13.8563
 20
22.6863
 30
0.0000
 42
1.0000
  0
SEQEND
  8
0
  0
POLYLINE
  8
16
 66
1
 10
0.0000
 20
0.0000
 30
0.0000
 40
0.0000
 41
0.0000
 70
1
  0
VERTEX
  8
16
 10
52.0700
 20
30.2768
 30
0.0000
  0
VERTEX
  8
16
 10
57.1500
 20
30.2768
 30
0.0000
 42
1.0000
  0
VERTEX
  8
16
 10
57.1500
 20
30.6832
 30
0.0000
  0
VERTEX
  8
16
 10
52.0700
 20
30.6832
 30
0.0000
 42
1.0000
  0
SEQEND
  8
0
  0
POLYLINE
  8
16
 66
1
 10
0.0000
 20
0.0000
 30
0.0000
 40
0.0000
 41
0.0000
 70
1
  0
VERTEX
  8
16
 10
26.6700
 20
46.7868
 30
0.0000
  0
VERTEX
  8
16
 10
45.7200
 20
46.7868
 30
0.0000
 42
1.0000
  0
VERTEX
  8
16
 10
45.7200
 20
47.1932
 30
0.0000
  0
VERTEX
  8
16
 10
26.6700
 20
47.1932
 30
0.0000
 42
1.0000
  0
SEQEND
  8
0
  0
POLYLINE
  8
16
 66
1
 10
0.0000
 20
0.0000
 30
0.0000
 40
0.0000
 41
0.0000
 70
1
  0
VERTEX
  8
16
 10
17.7800
 20
63.2968
 30
0.0000
  0
VERTEX
  8
16
 10
25.4000
 20
63.2968
 30
0.0000
 42
1.0000
  0
VERTEX
  8
16
 10
25.4000
 20
63.7032
 30
0.0000
  0
VERTEX
  8
16
 10
17.7800
 20
63.7032
 30
0.0000
 42
1.0000
  0
SEQEND
  8
0
  0
POLYLINE
  8
16
 66
1
 10
0.0000
 20
0.0000
 30
0.0000
 40
0.0000
 41
0.0000
 70
1
  0
VERTEX
  8
16
 10
25.2563
 20
63.3563
 30
0.0000
  0
VERTEX
  8
16
 10
26.5263
 20
62.0863
 30
0.0000
 42
1.0000
  0
VERTEX
  8
16
 10
26.8137
 20
62.3737
 30
0.0000
  0
VERTEX
  8
16
 10
25.5437
 20
63.6437
 30
0.0000
 42
1.0000
  0
SEQEND
  8
0
  0
POLYLINE
  8
16
 66
1
 10
0.0000
 20
0.0000
 30
0.0000
 40
0.0000
 41
0.0000
 70
1
  0
VERTEX
  8
16
 10
26.4668
 20
62.2300
 30
0.0000
  0
VERTEX
  8
16
 10
26.4668
 20
46.9900
 30
0.0000
 42
1.0000
  0
VERTEX
  8
16
 10
26.8732
 20
46.9900
 30
0.0000
  0
VERTEX
  8
16
 10
26.8732
 20
62.2300
 30
0.0000
 42
1.0000
  0
SEQEND
  8
0
  0
POLYLINE
  8
16
 66
1
 10
0.0000
 20
0.0000
 30
0.0000
 40
0.0000
 41
0.0000
 70
1
  0
VERTEX
  8
16
 10
22.3687
 20
19.5413
 30
0.0000
  0
VERTEX
  8
16
 10
22.6862
 20
19.8588
 30
0.0000
 42
1.0000
  0
VERTEX
  8
16
 10
22.3988
 20
20.1462
 30
0.0000
  0
VERTEX
  8
16
 10
22.0813
 20
19.8287
 30
0.0000
 42
1.0000
  0
SEQEND
  8
0
  0
POLYLINE
  8
16
 66
1
 10
0.0000
 20
0.0000
 30
0.0000
 40
0.0000
 41
0.0000
 70
1
  0
VERTEX
  8
16
 10
17.7800
 20
68.7832
 30
0.0000
  0
VERTEX
  8
16
 10
11.7475
 20
68.7832
 30
0.0000
 42
1.0000
  0
VERTEX
  8
16
 10
11.7475
 20
68.3768
 30
0.0000
  0
VERTEX
  8
16
 10
17.7800
 20
68.3768
 30
0.0000
 42
1.0000
  0
SEQEND
  8
0
  0
POLYLINE
  8
16
 66
1
 10
0.0000
 20
0.0000
 30
0.0000
 40
0.0000
 41
0.0000
 70
1
  0
VERTEX
  8
16
 10
11.8618
 20
30.4800
 30
0.0000
  0
VERTEX
  8
16
 10
11.8618
 20
28.8925
 30
0.0000
 42
1.0000
  0
VERTEX
  8
16
 10
12.2682
 20
28.8925
 30
0.0000
  0
VERTEX
  8
16
 10
12.2682
 20
30.4800
 30
0.0000
 42
1.0000
  0
SEQEND
  8
0
  0
POLYLINE
  8
16
 66
1
 10
0.0000
 20
0.0000
 30
0.0000
 40
0.0000
 41
0.0000
 70
1
  0
VERTEX
  8
16
 10
11.9213
 20
28.7488
 30
0.0000
  0
VERTEX
  8
16
 10
14.4613
 20
26.2088
 30
0.0000
 42
1.0000
  0
VERTEX
  8
16
 10
14.7487
 20
26.4962
 30
0.0000
  0
VERTEX
  8
16
 10
12.2087
 20
29.0362
 30
0.0000
 42
1.0000
  0
SEQEND
  8
0
  0
POLYLINE
  8
16
 66
1
 10
0.0000
 20
0.0000
 30
0.0000
 40
0.0000
 41
0.0000
 70
1
  0
VERTEX
  8
16
 10
14.6050
 20
26.1493
 30
0.0000
  0
VERTEX
  8
16
 10
17.1450
 20
26.1493
 30
0.0000
 42
1.0000
  0
VERTEX
  8
16
 10
17.1450
 20
26.5557
 30
0.0000
  0
VERTEX
  8
16
 10
14.6050
 20
26.5557
 30
0.0000
 42
1.0000
  0
SEQEND
  8
0
  0
POLYLINE
  8
16
 66
1
 10
0.0000
 20
0.0000
 30
0.0000
 40
0.0000
 41
0.0000
 70
1
  0
VERTEX
  8
16
 10
17.0013
 20
26.2088
 30
0.0000
  0
VERTEX
  8
16
 10
19.2238
 20
23.9863
 30
0.0000
 42
1.0000
  0
VERTEX
  8
16
 10
19.5112
 20
24.2737
 30
0.0000
  0
VERTEX
  8
16
 10
17.2887
 20
26.4962
 30
0.0000
 42
1.0000
  0
SEQEND
  8
0
  0
POLYLINE
  8
16
 66
1
 10
0.0000
 20
0.0000
 30
0.0000
 40
0.0000
 41
0.0000
 70
1
  0
VERTEX
  8
16
 10
19.3675
 20
23.9268
 30
0.0000
  0
VERTEX
  8
16
 10
22.2250
 20
23.9268
 30
0.0000
 42
1.0000
  0
VERTEX
  8
16
 10
22.2250
 20
24.3332
 30
0.0000
  0
VERTEX
  8
16
 10
19.3675
 20
24.3332
 30
0.0000
 42
1.0000
  0
SEQEND
  8
0
  0
POLYLINE
  8
16
 66
1
 10
0.0000
 20
0.0000
 30
0.0000
 40
0.0000
 41
0.0000
 70
1
  0
VERTEX
  8
16
 10
20.2032
 20
16.0000
 30
0.0000
  0
VERTEX
  8
16
 10
20.2032
 20
17.4600
 30
0.0000
 42
1.0000
  0
VERTEX
  8
16
 10
19.7968
 20
17.4600
 30
0.0000
  0
VERTEX
  8
16
 10
19.7968
 20
16.0000
 30
0.0000
 42
1.0000
  0
SEQEND
  8
0
  0
POLYLINE
  8
16
 66
1
 10
0.0000
 20
0.0000
 30
0.0000
 40
0.0000
 41
0.0000
 70
1
  0
VERTEX
  8
16
 10
20.1437
 20
17.3163
 30
0.0000
  0
VERTEX
  8
16
 10
22.3687
 20
19.5413
 30
0.0000
 42
1.0000
  0
VERTEX
  8
16
 10
22.0813
 20
19.8287
 30
0.0000
  0
VERTEX
  8
16
 10
19.8563
 20
17.6037
 30
0.0000
 42
1.0000
  0
SEQEND
  8
0
  0
INSERT
  8
18
  2
ROUNDV
 10
22.2250
 20
19.6850
 30
0.0000
 41
1.5240
 42
1.5240
 43
1.0000
 50
0.0000
  0
INSERT
  8
18
  2
ROUNDV
 10
11.7475
 20
68.5800
 30
0.0000
 41
1.5240
 42
1.5240
 43
1.0000
 50
0.0000
  0
INSERT
  8
18
  2
ROUNDV
 10
12.0650
 20
30.4800
 30
0.0000
 41
1.5240
 42
1.5240
 43
1.0000
 50
0.0000
  0
INSERT
  8
18
  2
ROUNDV
 10
22.2250
 20
24.1300
 30
0.0000
 41
1.5240
 42
1.5240
 43
1.0000
 50
0.0000
  0
POLYLINE
  8
16
 66
1
 10
0.0000
 20
0.0000
 30
0.0000
 40
0.0000
 41
0.0000
 70
1
  0
VERTEX
  8
16
 10
2.5400
 20
48.0568
 30
0.0000
  0
VERTEX
  8
16
 10
3.8100
 20
48.0568
 30
0.0000
 42
1.0000
  0
VERTEX
  8
16
 10
3.8100
 20
48.4632
 30
0.0000
  0
VERTEX
  8
16
 10
2.5400
 20
48.4632
 30
0.0000
 42
1.0000
  0
SEQEND
  8
0
  0
POLYLINE
  8
16
 66
1
 10
0.0000
 20
0.0000
 30
0.0000
 40
0.0000
 41
0.0000
 70
1
  0
VERTEX
  8
16
 10
3.6663
 20
48.1163
 30
0.0000
  0
VERTEX
  8
16
 10
4.9363
 20
46.8463
 30
0.0000
 42
1.0000
  0
VERTEX
  8
16
 10
5.2237
 20
47.1337
 30
0.0000
  0
VERTEX
  8
16
 10
3.9537
 20
48.4037
 30
0.0000
 42
1.0000
  0
SEQEND
  8
0
  0
POLYLINE
  8
16
 66
1
 10
0.0000
 20
0.0000
 30
0.0000
 40
0.0000
 41
0.0000
 70
1
  0
VERTEX
  8
16
 10
4.8768
 20
46.9900
 30
0.0000
  0
VERTEX
  8
16
 10
4.8768
 20
30.4800
 30
0.0000
 42
1.0000
  0
VERTEX
  8
16
 10
5.2832
 20
30.4800
 30
0.0000
  0
VERTEX
  8
16
 10
5.2832
 20
46.9900
 30
0.0000
 42
1.0000
  0
SEQEND
  8
0
  0
POLYLINE
  8
16
 66
1
 10
0.0000
 20
0.0000
 30
0.0000
 40
0.0000
 41
0.0000
 70
1
  0
VERTEX
  8
16
 10
9.3512
 20
26.4962
 30
0.0000
  0
VERTEX
  8
16
 10
5.2237
 20
30.6237
 30
0.0000
 42
1.0000
  0
VERTEX
  8
16
 10
4.9363
 20
30.3363
 30
0.0000
  0
VERTEX
  8
16
 10
9.0638
 20
26.2088
 30
0.0000
 42
1.0000
  0
SEQEND
  8
0
  0
POLYLINE
  8
16
 66
1
 10
0.0000
 20
0.0000
 30
0.0000
 40
0.0000
 41
0.0000
 70
1
  0
VERTEX
  8
16
 10
9.0043
 20
26.3525
 30
0.0000
  0
VERTEX
  8
16
 10
9.0043
 20
25.0825
 30
0.0000
 42
1.0000
  0
VERTEX
  8
16
 10
9.4107
 20
25.0825
 30
0.0000
  0
VERTEX
  8
16
 10
9.4107
 20
26.3525
 30
0.0000
 42
1.0000
  0
SEQEND
  8
0
  0
POLYLINE
  8
16
 66
1
 10
0.0000
 20
0.0000
 30
0.0000
 40
0.0000
 41
0.0000
 70
1
  0
VERTEX
  8
16
 10
28.1432
 20
38.1000
 30
0.0000
  0
VERTEX
  8
16
 10
28.1432
 20
42.5450
 30
0.0000
 42
1.0000
  0
VERTEX
  8
16
 10
27.7368
 20
42.5450
 30
0.0000
  0
VERTEX
  8
16
 10
27.7368
 20
38.1000
 30
0.0000
 42
1.0000
  0
SEQEND
  8
0
  0
POLYLINE
  8
16
 66
1
 10
0.0000
 20
0.0000
 30
0.0000
 40
0.0000
 41
0.0000
 70
1
  0
VERTEX
  8
16
 10
28.1432
 20
57.1500
 30
0.0000
  0
VERTEX
  8
16
 10
28.1432
 20
61.5950
 30
0.0000
 42
1.0000
  0
VERTEX
  8
16
 10
27.7368
 20
61.5950
 30
0.0000
  0
VERTEX
  8
16
 10
27.7368
 20
57.1500
 30
0.0000
 42
1.0000
  0
SEQEND
  8
0
  0
POLYLINE
  8
16
 66
1
 10
0.0000
 20
0.0000
 30
0.0000
 40
0.0000
 41
0.0000
 70
1
  0
VERTEX
  8
16
 10
46.7868
 20
62.5475
 30
0.0000
  0
VERTEX
  8
16
 10
46.7868
 20
57.1500
 30
0.0000
 42
1.0000
  0
VERTEX
  8
16
 10
47.1932
 20
57.1500
 30
0.0000
  0
VERTEX
  8
16
 10
47.1932
 20
62.5475
 30
0.0000
 42
1.0000
  0
SEQEND
  8
0
  0
POLYLINE
  8
16
 66
1
 10
0.0000
 20
0.0000
 30
0.0000
 40
0.0000
 41
0.0000
 70
1
  0
VERTEX
  8
16
 10
47.1932
 20
38.1000
 30
0.0000
  0
VERTEX
  8
16
 10
47.1932
 20
44.7397
 30
0.0000
 42
1.0000
  0
VERTEX
  8
16
 10
46.7868
 20
44.7397
 30
0.0000
  0
VERTEX
  8
16
 10
46.7868
 20
38.1000
 30
0.0000
 42
1.0000
  0
SEQEND
  8
0
  0
POLYLINE
  8
16
 66
1
 10
0.0000
 20
0.0000
 30
0.0000
 40
0.0000
 41
0.0000
 70
1
  0
VERTEX
  8
16
 10
20.9550
 20
75.9968
 30
0.0000
  0
VERTEX
  8
16
 10
27.9400
 20
75.9968
 30
0.0000
 42
1.0000
  0
VERTEX
  8
16
 10
27.9400
 20
76.4032
 30
0.0000
  0
VERTEX
  8
16
 10
20.9550
 20
76.4032
 30
0.0000
 42
1.0000
  0
SEQEND
  8
0
  0
POLYLINE
  8
16
 66
1
 10
0.0000
 20
0.0000
 30
0.0000
 40
0.0000
 41
0.0000
 70
1
  0
VERTEX
  8
16
 10
46.9900
 20
76.4032
 30
0.0000
  0
VERTEX
  8
16
 10
40.0050
 20
76.4032
 30
0.0000
 42
1.0000
  0
VERTEX
  8
16
 10
40.0050
 20
75.9968
 30
0.0000
  0
VERTEX
  8
16
 10
46.9900
 20
75.9968
 30
0.0000
 42
1.0000
  0
SEQEND
  8
0
  0
POLYLINE
  8
16
 66
1
 10
0.0000
 20
0.0000
 30
0.0000
 40
0.0000
 41
0.0000
 70
1
  0
VERTEX
  8
16
 10
16.5100
 20
27.7368
 30
0.0000
  0
VERTEX
  8
16
 10
18.0975
 20
27.7368
 30
0.0000
 42
1.0000
  0
VERTEX
  8
16
 10
18.0975
 20
28.1432
 30
0.0000
  0
VERTEX
  8
16
 10
16.5100
 20
28.1432
 30
0.0000
 42
1.0000
  0
SEQEND
  8
0
  0
POLYLINE
  8
16
 66
1
 10
0.0000
 20
0.0000
 30
0.0000
 40
0.0000
 41
0.0000
 70
1
  0
VERTEX
  8
16
 10
18.2412
 20
27.7963
 30
0.0000
  0
VERTEX
  8
16
 10
20.7812
 20
30.3363
 30
0.0000
 42
1.0000
  0
VERTEX
  8
16
 10
20.4938
 20
30.6237
 30
0.0000
  0
VERTEX
  8
16
 10
17.9538
 20
28.0837
 30
0.0000
 42
1.0000
  0
SEQEND
  8
0
  0
POLYLINE
  8
16
 66
1
 10
0.0000
 20
0.0000
 30
0.0000
 40
0.0000
 41
0.0000
 70
1
  0
VERTEX
  8
16
 10
20.8407
 20
30.4800
 30
0.0000
  0
VERTEX
  8
16
 10
20.8407
 20
42.2275
 30
0.0000
 42
1.0000
  0
VERTEX
  8
16
 10
20.4343
 20
42.2275
 30
0.0000
  0
VERTEX
  8
16
 10
20.4343
 20
30.4800
 30
0.0000
 42
1.0000
  0
SEQEND
  8
0
  0
POLYLINE
  8
16
 66
1
 10
0.0000
 20
0.0000
 30
0.0000
 40
0.0000
 41
0.0000
 70
1
  0
VERTEX
  8
16
 10
20.7812
 20
42.0838
 30
0.0000
  0
VERTEX
  8
16
 10
21.0987
 20
42.4013
 30
0.0000
 42
1.0000
  0
VERTEX
  8
16
 10
20.8113
 20
42.6887
 30
0.0000
  0
VERTEX
  8
16
 10
20.4938
 20
42.3712
 30
0.0000
 42
1.0000
  0
SEQEND
  8
0
  0
POLYLINE
  8
16
 66
1
 10
0.0000
 20
0.0000
 30
0.0000
 40
0.0000
 41
0.0000
 70
1
  0
VERTEX
  8
16
 10
20.9550
 20
42.7482
 30
0.0000
  0
VERTEX
  8
16
 10
20.6375
 20
42.7482
 30
0.0000
 42
1.0000
  0
VERTEX
  8
16
 10
20.6375
 20
42.3418
 30
0.0000
  0
VERTEX
  8
16
 10
20.9550
 20
42.3418
 30
0.0000
 42
1.0000
  0
SEQEND
  8
0
  0
POLYLINE
  8
16
 66
1
 10
0.0000
 20
0.0000
 30
0.0000
 40
0.0000
 41
0.0000
 70
1
  0
VERTEX
  8
16
 10
18.2820
 20
59.9512
 30
0.0000
  0
VERTEX
  8
16
 10
16.9605
 20
59.9512
 30
0.0000
 42
1.0000
  0
VERTEX
  8
16
 10
16.9605
 20
59.5448
 30
0.0000
  0
VERTEX
  8
16
 10
18.2820
 20
59.5448
 30
0.0000
 42
1.0000
  0
SEQEND
  8
0
  0
POLYLINE
  8
16
 66
1
 10
0.0000
 20
0.0000
 30
0.0000
 40
0.0000
 41
0.0000
 70
1
  0
VERTEX
  8
16
 10
17.1042
 20
59.8917
 30
0.0000
  0
VERTEX
  8
16
 10
16.3942
 20
60.6017
 30
0.0000
 42
1.0000
  0
VERTEX
  8
16
 10
16.1068
 20
60.3143
 30
0.0000
  0
VERTEX
  8
16
 10
16.8168
 20
59.6043
 30
0.0000
 42
1.0000
  0
SEQEND
  8
0
  0
POLYLINE
  8
16
 66
1
 10
0.0000
 20
0.0000
 30
0.0000
 40
0.0000
 41
0.0000
 70
1
  0
VERTEX
  8
16
 10
16.4537
 20
60.4580
 30
0.0000
  0
VERTEX
  8
16
 10
16.4537
 20
61.4620
 30
0.0000
 42
1.0000
  0
VERTEX
  8
16
 10
16.0473
 20
61.4620
 30
0.0000
  0
VERTEX
  8
16
 10
16.0473
 20
60.4580
 30
0.0000
 42
1.0000
  0
SEQEND
  8
0
  0
POLYLINE
  8
16
 66
1
 10
0.0000
 20
0.0000
 30
0.0000
 40
0.0000
 41
0.0000
 70
1
  0
VERTEX
  8
16
 10
16.3942
 20
61.3183
 30
0.0000
  0
VERTEX
  8
16
 10
17.1042
 20
62.0283
 30
0.0000
 42
1.0000
  0
VERTEX
  8
16
 10
16.8168
 20
62.3157
 30
0.0000
  0
VERTEX
  8
16
 10
16.1068
 20
61.6057
 30
0.0000
 42
1.0000
  0
SEQEND
  8
0
  0
POLYLINE
  8
16
 66
1
 10
0.0000
 20
0.0000
 30
0.0000
 40
0.0000
 41
0.0000
 70
1
  0
VERTEX
  8
16
 10
16.9605
 20
61.9688
 30
0.0000
  0
VERTEX
  8
16
 10
17.4045
 20
61.9688
 30
0.0000
 42
1.0000
  0
VERTEX
  8
16
 10
17.4045
 20
62.3752
 30
0.0000
  0
VERTEX
  8
16
 10
16.9605
 20
62.3752
 30
0.0000
 42
1.0000
  0
SEQEND
  8
0
  0
POLYLINE
  8
16
 66
1
 10
0.0000
 20
0.0000
 30
0.0000
 40
0.0000
 41
0.0000
 70
1
  0
VERTEX
  8
16
 10
17.5482
 20
62.0283
 30
0.0000
  0
VERTEX
  8
16
 10
17.6062
 20
62.0863
 30
0.0000
 42
1.0000
  0
VERTEX
  8
16
 10
17.3188
 20
62.3737
 30
0.0000
  0
VERTEX
  8
16
 10
17.2608
 20
62.3157
 30
0.0000
 42
1.0000
  0
SEQEND
  8
0
  0
POLYLINE
  8
16
 66
1
 10
0.0000
 20
0.0000
 30
0.0000
 40
0.0000
 41
0.0000
 70
1
  0
VERTEX
  8
16
 10
20.8407
 20
42.5450
 30
0.0000
  0
VERTEX
  8
16
 10
20.8407
 20
57.3925
 30
0.0000
 42
1.0000
  0
VERTEX
  8
16
 10
20.4343
 20
57.3925
 30
0.0000
  0
VERTEX
  8
16
 10
20.4343
 20
42.5450
 30
0.0000
 42
1.0000
  0
SEQEND
  8
0
  0
POLYLINE
  8
16
 66
1
 10
0.0000
 20
0.0000
 30
0.0000
 40
0.0000
 41
0.0000
 70
1
  0
VERTEX
  8
16
 10
20.7812
 20
57.5362
 30
0.0000
  0
VERTEX
  8
16
 10
18.4257
 20
59.8917
 30
0.0000
 42
1.0000
  0
VERTEX
  8
16
 10
18.1383
 20
59.6043
 30
0.0000
  0
VERTEX
  8
16
 10
20.4938
 20
57.2488
 30
0.0000
 42
1.0000
  0
SEQEND
  8
0
  0
POLYLINE
  8
16
 66
1
 10
0.0000
 20
0.0000
 30
0.0000
 40
0.0000
 41
0.0000
 70
1
  0
VERTEX
  8
16
 10
17.4625
 20
62.0268
 30
0.0000
  0
VERTEX
  8
16
 10
20.3200
 20
62.0268
 30
0.0000
 42
1.0000
  0
VERTEX
  8
16
 10
20.3200
 20
62.4332
 30
0.0000
  0
VERTEX
  8
16
 10
17.4625
 20
62.4332
 30
0.0000
 42
1.0000
  0
SEQEND
  8
0
  0
POLYLINE
  8
16
 66
1
 10
0.0000
 20
0.0000
 30
0.0000
 40
0.0000
 41
0.0000
 70
1
  0
VERTEX
  8
16
 10
20.3200
 20
62.0268
 30
0.0000
  0
VERTEX
  8
16
 10
24.4475
 20
62.0268
 30
0.0000
 42
1.0000
  0
VERTEX
  8
16
 10
24.4475
 20
62.4332
 30
0.0000
  0
VERTEX
  8
16
 10
20.3200
 20
62.4332
 30
0.0000
 42
1.0000
  0
SEQEND
  8
0
  0
POLYLINE
  8
16
 66
1
 10
0.0000
 20
0.0000
 30
0.0000
 40
0.0000
 41
0.0000
 70
1
  0
VERTEX
  8
16
 10
20.9550
 20
76.4032
 30
0.0000
  0
VERTEX
  8
16
 10
20.6375
 20
76.4032
 30
0.0000
 42
1.0000
  0
VERTEX
  8
16
 10
20.6375
 20
75.9968
 30
0.0000
  0
VERTEX
  8
16
 10
20.9550
 20
75.9968
 30
0.0000
 42
1.0000
  0
SEQEND
  8
0
  0
POLYLINE
  8
16
 66
1
 10
0.0000
 20
0.0000
 30
0.0000
 40
0.0000
 41
0.0000
 70
1
  0
VERTEX
  8
16
 10
20.4938
 20
76.3437
 30
0.0000
  0
VERTEX
  8
16
 10
19.5413
 20
75.3912
 30
0.0000
 42
1.0000
  0
VERTEX
  8
16
 10
19.8287
 20
75.1038
 30
0.0000
  0
VERTEX
  8
16
 10
20.7812
 20
76.0563
 30
0.0000
 42
1.0000
  0
SEQEND
  8
0
  0
POLYLINE
  8
16
 66
1
 10
0.0000
 20
0.0000
 30
0.0000
 40
0.0000
 41
0.0000
 70
1
  0
VERTEX
  8
16
 10
19.4818
 20
75.2475
 30
0.0000
  0
VERTEX
  8
16
 10
19.4818
 20
68.2625
 30
0.0000
 42
1.0000
  0
VERTEX
  8
16
 10
19.8882
 20
68.2625
 30
0.0000
  0
VERTEX
  8
16
 10
19.8882
 20
75.2475
 30
0.0000
 42
1.0000
  0
SEQEND
  8
0
  0
POLYLINE
  8
16
 66
1
 10
0.0000
 20
0.0000
 30
0.0000
 40
0.0000
 41
0.0000
 70
1
  0
VERTEX
  8
16
 10
19.5413
 20
68.1188
 30
0.0000
  0
VERTEX
  8
16
 10
20.1763
 20
67.4838
 30
0.0000
 42
1.0000
  0
VERTEX
  8
16
 10
20.4637
 20
67.7712
 30
0.0000
  0
VERTEX
  8
16
 10
19.8287
 20
68.4062
 30
0.0000
 42
1.0000
  0
SEQEND
  8
0
  0
POLYLINE
  8
16
 66
1
 10
0.0000
 20
0.0000
 30
0.0000
 40
0.0000
 41
0.0000
 70
1
  0
VERTEX
  8
16
 10
28.0837
 20
76.0563
 30
0.0000
  0
VERTEX
  8
16
 10
29.3537
 20
77.3263
 30
0.0000
 42
1.0000
  0
VERTEX
  8
16
 10
29.0663
 20
77.6137
 30
0.0000
  0
VERTEX
  8
16
 10
27.7963
 20
76.3437
 30
0.0000
 42
1.0000
  0
SEQEND
  8
0
  0
POLYLINE
  8
16
 66
1
 10
0.0000
 20
0.0000
 30
0.0000
 40
0.0000
 41
0.0000
 70
1
  0
VERTEX
  8
16
 10
29.2100
 20
77.2668
 30
0.0000
  0
VERTEX
  8
16
 10
36.8300
 20
77.2668
 30
0.0000
 42
1.0000
  0
VERTEX
  8
16
 10
36.8300
 20
77.6732
 30
0.0000
  0
VERTEX
  8
16
 10
29.2100
 20
77.6732
 30
0.0000
 42
1.0000
  0
SEQEND
  8
0
  0
POLYLINE
  8
16
 66
1
 10
0.0000
 20
0.0000
 30
0.0000
 40
0.0000
 41
0.0000
 70
1
  0
VERTEX
  8
16
 10
37.4650
 20
77.9018
 30
0.0000
  0
VERTEX
  8
16
 10
39.0525
 20
77.9018
 30
0.0000
 42
1.0000
  0
VERTEX
  8
16
 10
39.0525
 20
78.3082
 30
0.0000
  0
VERTEX
  8
16
 10
37.4650
 20
78.3082
 30
0.0000
 42
1.0000
  0
SEQEND
  8
0
  0
POLYLINE
  8
16
 66
1
 10
0.0000
 20
0.0000
 30
0.0000
 40
0.0000
 41
0.0000
 70
1
  0
VERTEX
  8
16
 10
39.8018
 20
77.1525
 30
0.0000
  0
VERTEX
  8
16
 10
39.8018
 20
76.2000
 30
0.0000
 42
1.0000
  0
VERTEX
  8
16
 10
40.2082
 20
76.2000
 30
0.0000
  0
VERTEX
  8
16
 10
40.2082
 20
77.1525
 30
0.0000
 42
1.0000
  0
SEQEND
  8
0
  0
POLYLINE
  8
16
 66
1
 10
0.0000
 20
0.0000
 30
0.0000
 40
0.0000
 41
0.0000
 70
1
  0
VERTEX
  8
16
 10
36.9737
 20
77.3263
 30
0.0000
  0
VERTEX
  8
16
 10
37.6087
 20
77.9613
 30
0.0000
 42
1.0000
  0
VERTEX
  8
16
 10
37.3213
 20
78.2487
 30
0.0000
  0
VERTEX
  8
16
 10
36.6863
 20
77.6137
 30
0.0000
 42
1.0000
  0
SEQEND
  8
0
  0
POLYLINE
  8
16
 66
1
 10
0.0000
 20
0.0000
 30
0.0000
 40
0.0000
 41
0.0000
 70
1
  0
VERTEX
  8
16
 10
38.9088
 20
77.9613
 30
0.0000
  0
VERTEX
  8
16
 10
39.8613
 20
77.0088
 30
0.0000
 42
1.0000
  0
VERTEX
  8
16
 10
40.1487
 20
77.2962
 30
0.0000
  0
VERTEX
  8
16
 10
39.1962
 20
78.2487
 30
0.0000
 42
1.0000
  0
SEQEND
  8
0
  0
POLYLINE
  8
16
 66
1
 10
0.0000
 20
0.0000
 30
0.0000
 40
0.0000
 41
0.0000
 70
1
  0
VERTEX
  8
16
 10
47.1337
 20
44.5960
 30
0.0000
  0
VERTEX
  8
16
 10
48.3529
 20
45.8152
 30
0.0000
 42
1.0000
  0
VERTEX
  8
16
 10
48.0655
 20
46.1026
 30
0.0000
  0
VERTEX
  8
16
 10
46.8463
 20
44.8834
 30
0.0000
 42
1.0000
  0
SEQEND
  8
0
  0
POLYLINE
  8
16
 66
1
 10
0.0000
 20
0.0000
 30
0.0000
 40
0.0000
 41
0.0000
 70
1
  0
VERTEX
  8
16
 10
48.4124
 20
45.9589
 30
0.0000
  0
VERTEX
  8
16
 10
48.4124
 20
48.0211
 30
0.0000
 42
1.0000
  0
VERTEX
  8
16
 10
48.0060
 20
48.0211
 30
0.0000
  0
VERTEX
  8
16
 10
48.0060
 20
45.9589
 30
0.0000
 42
1.0000
  0
SEQEND
  8
0
  0
POLYLINE
  8
16
 66
1
 10
0.0000
 20
0.0000
 30
0.0000
 40
0.0000
 41
0.0000
 70
1
  0
VERTEX
  8
16
 10
48.3529
 20
48.1648
 30
0.0000
  0
VERTEX
  8
16
 10
47.5732
 20
48.9445
 30
0.0000
 42
1.0000
  0
VERTEX
  8
16
 10
47.2858
 20
48.6571
 30
0.0000
  0
VERTEX
  8
16
 10
48.0655
 20
47.8774
 30
0.0000
 42
1.0000
  0
SEQEND
  8
0
  0
POLYLINE
  8
16
 66
1
 10
0.0000
 20
0.0000
 30
0.0000
 40
0.0000
 41
0.0000
 70
1
  0
VERTEX
  8
16
 10
47.4295
 20
49.0040
 30
0.0000
  0
VERTEX
  8
16
 10
47.4017
 20
49.0040
 30
0.0000
 42
1.0000
  0
VERTEX
  8
16
 10
47.4017
 20
48.5976
 30
0.0000
  0
VERTEX
  8
16
 10
47.4295
 20
48.5976
 30
0.0000
 42
1.0000
  0
SEQEND
  8
0
  0
POLYLINE
  8
16
 66
1
 10
0.0000
 20
0.0000
 30
0.0000
 40
0.0000
 41
0.0000
 70
1
  0
VERTEX
  8
16
 10
47.5454
 20
48.9445
 30
0.0000
  0
VERTEX
  8
16
 10
46.8162
 20
49.6737
 30
0.0000
 42
1.0000
  0
VERTEX
  8
16
 10
46.5288
 20
49.3863
 30
0.0000
  0
VERTEX
  8
16
 10
47.2580
 20
48.6571
 30
0.0000
 42
1.0000
  0
SEQEND
  8
0
  0
POLYLINE
  8
16
 66
1
 10
0.0000
 20
0.0000
 30
0.0000
 40
0.0000
 41
0.0000
 70
1
  0
VERTEX
  8
16
 10
46.6725
 20
49.7332
 30
0.0000
  0
VERTEX
  8
16
 10
43.1800
 20
49.7332
 30
0.0000
 42
1.0000
  0
VERTEX
  8
16
 10
43.1800
 20
49.3268
 30
0.0000
  0
VERTEX
  8
16
 10
46.6725
 20
49.3268
 30
0.0000
 42
1.0000
  0
SEQEND
  8
0
  0
POLYLINE
  8
16
 66
1
 10
0.0000
 20
0.0000
 30
0.0000
 40
0.0000
 41
0.0000
 70
1
  0
VERTEX
  8
16
 10
43.3237
 20
49.6737
 30
0.0000
  0
VERTEX
  8
16
 10
42.0537
 20
50.9437
 30
0.0000
 42
1.0000
  0
VERTEX
  8
16
 10
41.7663
 20
50.6563
 30
0.0000
  0
VERTEX
  8
16
 10
43.0363
 20
49.3863
 30
0.0000
 42
1.0000
  0
SEQEND
  8
0
  0
POLYLINE
  8
16
 66
1
 10
0.0000
 20
0.0000
 30
0.0000
 40
0.0000
 41
0.0000
 70
1
  0
VERTEX
  8
16
 10
42.1132
 20
50.8000
 30
0.0000
  0
VERTEX
  8
16
 10
42.1132
 20
55.5625
 30
0.0000
 42
1.0000
  0
VERTEX
  8
16
 10
41.7068
 20
55.5625
 30
0.0000
  0
VERTEX
  8
16
 10
41.7068
 20
50.8000
 30
0.0000
 42
1.0000
  0
SEQEND
  8
0
  0
POLYLINE
  8
16
 66
1
 10
0.0000
 20
0.0000
 30
0.0000
 40
0.0000
 41
0.0000
 70
1
  0
VERTEX
  8
16
 10
42.0537
 20
55.4188
 30
0.0000
  0
VERTEX
  8
16
 10
43.6412
 20
57.0063
 30
0.0000
 42
1.0000
  0
VERTEX
  8
16
 10
43.3538
 20
57.2937
 30
0.0000
  0
VERTEX
  8
16
 10
41.7663
 20
55.7062
 30
0.0000
 42
1.0000
  0
SEQEND
  8
0
  0
POLYLINE
  8
16
 66
1
 10
0.0000
 20
0.0000
 30
0.0000
 40
0.0000
 41
0.0000
 70
1
  0
VERTEX
  8
16
 10
43.4975
 20
56.9468
 30
0.0000
  0
VERTEX
  8
16
 10
46.9900
 20
56.9468
 30
0.0000
 42
1.0000
  0
VERTEX
  8
16
 10
46.9900
 20
57.3532
 30
0.0000
  0
VERTEX
  8
16
 10
43.4975
 20
57.3532
 30
0.0000
 42
1.0000
  0
SEQEND
  8
0
  0
POLYLINE
  8
16
 66
1
 10
0.0000
 20
0.0000
 30
0.0000
 40
0.0000
 41
0.0000
 70
1
  0
VERTEX
  8
16
 10
39.8018
 20
76.2000
 30
0.0000
  0
VERTEX
  8
16
 10
39.8018
 20
75.5650
 30
0.0000
 42
1.0000
  0
VERTEX
  8
16
 10
40.2082
 20
75.5650
 30
0.0000
  0
VERTEX
  8
16
 10
40.2082
 20
76.2000
 30
0.0000
 42
1.0000
  0
SEQEND
  8
0
  0
POLYLINE
  8
16
 66
1
 10
0.0000
 20
0.0000
 30
0.0000
 40
0.0000
 41
0.0000
 70
1
  0
VERTEX
  8
16
 10
39.8613
 20
75.7087
 30
0.0000
  0
VERTEX
  8
16
 10
37.9563
 20
73.8037
 30
0.0000
 42
1.0000
  0
VERTEX
  8
16
 10
38.2437
 20
73.5163
 30
0.0000
  0
VERTEX
  8
16
 10
40.1487
 20
75.4213
 30
0.0000
 42
1.0000
  0
SEQEND
  8
0
  0
POLYLINE
  8
16
 66
1
 10
0.0000
 20
0.0000
 30
0.0000
 40
0.0000
 41
0.0000
 70
1
  0
VERTEX
  8
16
 10
37.8968
 20
73.6600
 30
0.0000
  0
VERTEX
  8
16
 10
37.8968
 20
71.7550
 30
0.0000
 42
1.0000
  0
VERTEX
  8
16
 10
38.3032
 20
71.7550
 30
0.0000
  0
VERTEX
  8
16
 10
38.3032
 20
73.6600
 30
0.0000
 42
1.0000
  0
SEQEND
  8
0
  0
POLYLINE
  8
16
 66
1
 10
0.0000
 20
0.0000
 30
0.0000
 40
0.0000
 41
0.0000
 70
1
  0
VERTEX
  8
16
 10
37.9563
 20
71.6113
 30
0.0000
  0
VERTEX
  8
16
 10
38.2738
 20
71.2938
 30
0.0000
 42
1.0000
  0
VERTEX
  8
16
 10
38.5612
 20
71.5812
 30
0.0000
  0
VERTEX
  8
16
 10
38.2437
 20
71.8987
 30
0.0000
 42
1.0000
  0
SEQEND
  8
0
  0
POLYLINE
  8
16
 66
1
 10
0.0000
 20
0.0000
 30
0.0000
 40
0.0000
 41
0.0000
 70
1
  0
VERTEX
  8
16
 10
38.4175
 20
71.2343
 30
0.0000
  0
VERTEX
  8
16
 10
40.6400
 20
71.2343
 30
0.0000
 42
1.0000
  0
VERTEX
  8
16
 10
40.6400
 20
71.6407
 30
0.0000
  0
VERTEX
  8
16
 10
38.4175
 20
71.6407
 30
0.0000
 42
1.0000
  0
SEQEND
  8
0
  0
POLYLINE
  8
16
 66
1
 10
0.0000
 20
0.0000
 30
0.0000
 40
0.0000
 41
0.0000
 70
1
  0
VERTEX
  8
16
 10
40.4963
 20
71.2938
 30
0.0000
  0
VERTEX
  8
16
 10
43.0363
 20
68.7538
 30
0.0000
 42
1.0000
  0
VERTEX
  8
16
 10
43.3237
 20
69.0412
 30
0.0000
  0
VERTEX
  8
16
 10
40.7837
 20
71.5812
 30
0.0000
 42
1.0000
  0
SEQEND
  8
0
  0
POLYLINE
  8
16
 66
1
 10
0.0000
 20
0.0000
 30
0.0000
 40
0.0000
 41
0.0000
 70
1
  0
VERTEX
  8
16
 10
43.1800
 20
68.6943
 30
0.0000
  0
VERTEX
  8
16
 10
46.6725
 20
68.6943
 30
0.0000
 42
1.0000
  0
VERTEX
  8
16
 10
46.6725
 20
69.1007
 30
0.0000
  0
VERTEX
  8
16
 10
43.1800
 20
69.1007
 30
0.0000
 42
1.0000
  0
SEQEND
  8
0
  0
POLYLINE
  8
16
 66
1
 10
0.0000
 20
0.0000
 30
0.0000
 40
0.0000
 41
0.0000
 70
1
  0
VERTEX
  8
16
 10
46.5288
 20
68.7538
 30
0.0000
  0
VERTEX
  8
16
 10
48.4338
 20
66.8488
 30
0.0000
 42
1.0000
  0
VERTEX
  8
16
 10
48.7212
 20
67.1362
 30
0.0000
  0
VERTEX
  8
16
 10
46.8162
 20
69.0412
 30
0.0000
 42
1.0000
  0
SEQEND
  8
0
  0
POLYLINE
  8
16
 66
1
 10
0.0000
 20
0.0000
 30
0.0000
 40
0.0000
 41
0.0000
 70
1
  0
VERTEX
  8
16
 10
48.3743
 20
66.9925
 30
0.0000
  0
VERTEX
  8
16
 10
48.3743
 20
64.1350
 30
0.0000
 42
1.0000
  0
VERTEX
  8
16
 10
48.7807
 20
64.1350
 30
0.0000
  0
VERTEX
  8
16
 10
48.7807
 20
66.9925
 30
0.0000
 42
1.0000
  0
SEQEND
  8
0
  0
POLYLINE
  8
16
 66
1
 10
0.0000
 20
0.0000
 30
0.0000
 40
0.0000
 41
0.0000
 70
1
  0
VERTEX
  8
16
 10
48.4338
 20
64.2787
 30
0.0000
  0
VERTEX
  8
16
 10
46.8463
 20
62.6912
 30
0.0000
 42
1.0000
  0
VERTEX
  8
16
 10
47.1337
 20
62.4038
 30
0.0000
  0
VERTEX
  8
16
 10
48.7212
 20
63.9913
 30
0.0000
 42
1.0000
  0
SEQEND
  8
0
  0
POLYLINE
  8
16
 66
1
 10
0.0000
 20
0.0000
 30
0.0000
 40
0.0000
 41
0.0000
 70
1
  0
VERTEX
  8
16
 10
5.5000
 20
9.2968
 30
0.0000
  0
VERTEX
  8
16
 10
12.5000
 20
9.2968
 30
0.0000
 42
1.0000
  0
VERTEX
  8
16
 10
12.5000
 20
9.7032
 30
0.0000
  0
VERTEX
  8
16
 10
5.5000
 20
9.7032
 30
0.0000
 42
1.0000
  0
SEQEND
  8
0
  0
POLYLINE
  8
16
 66
1
 10
0.0000
 20
0.0000
 30
0.0000
 40
0.0000
 41
0.0000
 70
1
  0
VERTEX
  8
16
 10
12.6248
 20
9.3396
 30
0.0000
  0
VERTEX
  8
16
 10
17.1248
 20
12.8396
 30
0.0000
 42
1.0000
  0
VERTEX
  8
16
 10
16.8752
 20
13.1604
 30
0.0000
  0
VERTEX
  8
16
 10
12.3752
 20
9.6604
 30
0.0000
 42
1.0000
  0
SEQEND
  8
0
  0
POLYLINE
  8
16
 66
1
 10
0.0000
 20
0.0000
 30
0.0000
 40
0.0000
 41
0.0000
 70
1
  0
VERTEX
  8
16
 10
17.2032
 20
13.0000
 30
0.0000
  0
VERTEX
  8
16
 10
17.2032
 20
20.5000
 30
0.0000
 42
1.0000
  0
VERTEX
  8
16
 10
16.7968
 20
20.5000
 30
0.0000
  0
VERTEX
  8
16
 10
16.7968
 20
13.0000
 30
0.0000
 42
1.0000
  0
SEQEND
  8
0
  0
POLYLINE
  8
16
 66
1
 10
0.0000
 20
0.0000
 30
0.0000
 40
0.0000
 41
0.0000
 70
1
  0
VERTEX
  8
16
 10
16.1857
 20
20.5572
 30
0.0000
  0
VERTEX
  8
16
 10
16.9357
 20
20.3072
 30
0.0000
 42
1.0000
  0
VERTEX
  8
16
 10
17.0643
 20
20.6928
 30
0.0000
  0
VERTEX
  8
16
 10
16.3143
 20
20.9428
 30
0.0000
 42
1.0000
  0
SEQEND
  8
0
  0
POLYLINE
  8
16
 66
1
 10
0.0000
 20
0.0000
 30
0.0000
 40
0.0000
 41
0.0000
 70
1
  0
VERTEX
  8
16
 10
16.3937
 20
20.6063
 30
0.0000
  0
VERTEX
  8
16
 10
16.6437
 20
20.8563
 30
0.0000
 42
1.0000
  0
VERTEX
  8
16
 10
16.3563
 20
21.1437
 30
0.0000
  0
VERTEX
  8
16
 10
16.1063
 20
20.8937
 30
0.0000
 42
1.0000
  0
SEQEND
  8
0
  0
POLYLINE
  8
16
 66
1
 10
0.0000
 20
0.0000
 30
0.0000
 40
0.0000
 41
0.0000
 70
1
  0
VERTEX
  8
16
 10
2.5400
 20
21.3868
 30
0.0000
  0
VERTEX
  8
16
 10
5.7150
 20
21.3868
 30
0.0000
 42
1.0000
  0
VERTEX
  8
16
 10
5.7150
 20
21.7932
 30
0.0000
  0
VERTEX
  8
16
 10
2.5400
 20
21.7932
 30
0.0000
 42
1.0000
  0
SEQEND
  8
0
  0
POLYLINE
  8
16
 66
1
 10
0.0000
 20
0.0000
 30
0.0000
 40
0.0000
 41
0.0000
 70
1
  0
VERTEX
  8
16
 10
5.8587
 20
21.4463
 30
0.0000
  0
VERTEX
  8
16
 10
9.3512
 20
24.9388
 30
0.0000
 42
1.0000
  0
VERTEX
  8
16
 10
9.0638
 20
25.2262
 30
0.0000
  0
VERTEX
  8
16
 10
5.5713
 20
21.7337
 30
0.0000
 42
1.0000
  0
SEQEND
  8
0
  0
POLYLINE
  8
16
 66
1
 10
0.0000
 20
0.0000
 30
0.0000
 40
0.0000
 41
0.0000
 70
1
  0
VERTEX
  8
16
 10
12.4993
 20
20.2133
 30
0.0000
  0
VERTEX
  8
16
 10
13.8563
 20
18.8563
 30
0.0000
 42
1.0000
  0
VERTEX
  8
16
 10
14.1437
 20
19.1437
 30
0.0000
  0
VERTEX
  8
16
 10
12.7867
 20
20.5007
 30
0.0000
 42
1.0000
  0
SEQEND
  8
0
  0
POLYLINE
  8
16
 66
1
 10
0.0000
 20
0.0000
 30
0.0000
 40
0.0000
 41
0.0000
 70
1
  0
VERTEX
  8
16
 10
12.4398
 20
21.4734
 30
0.0000
  0
VERTEX
  8
16
 10
12.4398
 20
20.3570
 30
0.0000
 42
1.0000
  0
VERTEX
  8
16
 10
12.8462
 20
20.3570
 30
0.0000
  0
VERTEX
  8
16
 10
12.8462
 20
21.4734
 30
0.0000
 42
1.0000
  0
SEQEND
  8
0
  0
POLYLINE
  8
16
 66
1
 10
0.0000
 20
0.0000
 30
0.0000
 40
0.0000
 41
0.0000
 70
1
  0
VERTEX
  8
16
 10
9.0043
 20
25.0825
 30
0.0000
  0
VERTEX
  8
16
 10
9.0043
 20
24.9090
 30
0.0000
 42
1.0000
  0
VERTEX
  8
16
 10
9.4107
 20
24.9090
 30
0.0000
  0
VERTEX
  8
16
 10
9.4107
 20
25.0825
 30
0.0000
 42
1.0000
  0
SEQEND
  8
0
  0
POLYLINE
  8
16
 66
1
 10
0.0000
 20
0.0000
 30
0.0000
 40
0.0000
 41
0.0000
 70
1
  0
VERTEX
  8
16
 10
9.0638
 20
24.7653
 30
0.0000
  0
VERTEX
  8
16
 10
12.4993
 20
21.3298
 30
0.0000
 42
1.0000
  0
VERTEX
  8
16
 10
12.7867
 20
21.6171
 30
0.0000
  0
VERTEX
  8
16
 10
9.3512
 20
25.0526
 30
0.0000
 42
1.0000
  0
SEQEND
  8
0
  0
POLYLINE
  8
16
 66
1
 10
0.0000
 20
0.0000
 30
0.0000
 40
0.0000
 41
0.0000
 70
1
  0
VERTEX
  8
16
 10
14.0000
 20
18.7968
 30
0.0000
  0
VERTEX
  8
16
 10
15.0000
 20
18.7968
 30
0.0000
 42
1.0000
  0
VERTEX
  8
16
 10
15.0000
 20
19.2032
 30
0.0000
  0
VERTEX
  8
16
 10
14.0000
 20
19.2032
 30
0.0000
 42
1.0000
  0
SEQEND
  8
0
  0
POLYLINE
  8
16
 66
1
 10
0.0000
 20
0.0000
 30
0.0000
 40
0.0000
 41
0.0000
 70
1
  0
VERTEX
  8
16
 10
15.2032
 20
19.0000
 30
0.0000
  0
VERTEX
  8
16
 10
15.2032
 20
19.5000
 30
0.0000
 42
1.0000
  0
VERTEX
  8
16
 10
14.7968
 20
19.5000
 30
0.0000
  0
VERTEX
  8
16
 10
14.7968
 20
19.0000
 30
0.0000
 42
1.0000
  0
SEQEND
  8
0
  0
POLYLINE
  8
16
 66
1
 10
0.0000
 20
0.0000
 30
0.0000
 40
0.0000
 41
0.0000
 70
1
  0
VERTEX
  8
16
 10
15.1437
 20
19.3563
 30
0.0000
  0
VERTEX
  8
16
 10
16.3937
 20
20.6063
 30
0.0000
 42
1.0000
  0
VERTEX
  8
16
 10
16.1063
 20
20.8937
 30
0.0000
  0
VERTEX
  8
16
 10
14.8563
 20
19.6437
 30
0.0000
 42
1.0000
  0
SEQEND
  8
0
  0
INSERT
  8
18
  2
ROUNDV
 10
9.2075
 20
25.0825
 30
0.0000
 41
1.5240
 42
1.5240
 43
1.0000
 50
0.0000
  0
INSERT
  8
18
  2
ROUNDV
 10
27.9400
 20
42.5450
 30
0.0000
 41
1.5240
 42
1.5240
 43
1.0000
 50
0.0000
  0
INSERT
  8
18
  2
ROUNDV
 10
27.9400
 20
61.5950
 30
0.0000
 41
1.5240
 42
1.5240
 43
1.0000
 50
0.0000
  0
INSERT
  8
18
  2
ROUNDV
 10
20.9550
 20
76.2000
 30
0.0000
 41
1.5240
 42
1.5240
 43
1.0000
 50
0.0000
  0
INSERT
  8
18
  2
ROUNDV
 10
16.5100
 20
27.9400
 30
0.0000
 41
1.5240
 42
1.5240
 43
1.0000
 50
0.0000
  0
INSERT
  8
18
  2
ROUNDV
 10
20.6375
 20
42.5450
 30
0.0000
 41
1.5240
 42
1.5240
 43
1.0000
 50
0.0000
  0
INSERT
  8
18
  2
ROUNDV
 10
24.4475
 20
62.2300
 30
0.0000
 41
1.5240
 42
1.5240
 43
1.0000
 50
0.0000
  0
INSERT
  8
18
  2
ROUNDV
 10
20.3200
 20
67.6275
 30
0.0000
 41
1.5240
 42
1.5240
 43
1.0000
 50
0.0000
  0
INSERT
  8
18
  2
ROUNDV
 10
20.3200
 20
62.2300
 30
0.0000
 41
1.5240
 42
1.5240
 43
1.0000
 50
0.0000
  0
POLYLINE
  8
16
 66
1
 10
0.0000
 20
0.0000
 30
0.0000
 40
0.0000
 41
0.0000
 70
1
  0
VERTEX
  8
16
 10
30.6832
 20
38.1000
 30
0.0000
  0
VERTEX
  8
16
 10
30.6832
 20
42.5450
 30
0.0000
 42
1.0000
  0
VERTEX
  8
16
 10
30.2768
 20
42.5450
 30
0.0000
  0
VERTEX
  8
16
 10
30.2768
 20
38.1000
 30
0.0000
 42
1.0000
  0
SEQEND
  8
0
  0
POLYLINE
  8
16
 66
1
 10
0.0000
 20
0.0000
 30
0.0000
 40
0.0000
 41
0.0000
 70
1
  0
VERTEX
  8
16
 10
40.8432
 20
19.0500
 30
0.0000
  0
VERTEX
  8
16
 10
40.8432
 20
23.1775
 30
0.0000
 42
1.0000
  0
VERTEX
  8
16
 10
40.4368
 20
23.1775
 30
0.0000
  0
VERTEX
  8
16
 10
40.4368
 20
19.0500
 30
0.0000
 42
1.0000
  0
SEQEND
  8
0
  0
POLYLINE
  8
16
 66
1
 10
0.0000
 20
0.0000
 30
0.0000
 40
0.0000
 41
0.0000
 70
1
  0
VERTEX
  8
16
 10
40.7837
 20
23.3212
 30
0.0000
  0
VERTEX
  8
16
 10
40.1487
 20
23.9562
 30
0.0000
 42
1.0000
  0
VERTEX
  8
16
 10
39.8613
 20
23.6688
 30
0.0000
  0
VERTEX
  8
16
 10
40.4963
 20
23.0338
 30
0.0000
 42
1.0000
  0
SEQEND
  8
0
  0
POLYLINE
  8
16
 66
1
 10
0.0000
 20
0.0000
 30
0.0000
 40
0.0000
 41
0.0000
 70
1
  0
VERTEX
  8
16
 10
30.4800
 20
42.3418
 30
0.0000
  0
VERTEX
  8
16
 10
40.0050
 20
42.3418
 30
0.0000
 42
1.0000
  0
VERTEX
  8
16
 10
40.0050
 20
42.7482
 30
0.0000
  0
VERTEX
  8
16
 10
30.4800
 20
42.7482
 30
0.0000
 42
1.0000
  0
SEQEND
  8
0
  0
INSERT
  8
18
  2
ROUNDV
 10
40.0050
 20
23.8125
 30
0.0000
 41
1.5240
 42
1.5240
 43
1.0000
 50
0.0000
  0
INSERT
  8
18
  2
ROUNDV
 10
40.0050
 20
42.5450
 30
0.0000
 41
1.5240
 42
1.5240
 43
1.0000
 50
0.0000
  0
POLYLINE
  8
16
 66
1
 10
0.0000
 20
0.0000
 30
0.0000
 40
0.0000
 41
0.0000
 70
1
  0
VERTEX
  8
16
 10
40.8432
 20
16.5100
 30
0.0000
  0
VERTEX
  8
16
 10
40.8432
 20
17.3976
 30
0.0000
 42
1.0000
  0
VERTEX
  8
16
 10
40.4368
 20
17.3976
 30
0.0000
  0
VERTEX
  8
16
 10
40.4368
 20
16.5100
 30
0.0000
 42
1.0000
  0
SEQEND
  8
0
  0
POLYLINE
  8
16
 66
1
 10
0.0000
 20
0.0000
 30
0.0000
 40
0.0000
 41
0.0000
 70
1
  0
VERTEX
  8
16
 10
40.7837
 20
17.2539
 30
0.0000
  0
VERTEX
  8
16
 10
41.9521
 20
18.4223
 30
0.0000
 42
1.0000
  0
VERTEX
  8
16
 10
41.6647
 20
18.7097
 30
0.0000
  0
VERTEX
  8
16
 10
40.4963
 20
17.5413
 30
0.0000
 42
1.0000
  0
SEQEND
  8
0
  0
POLYLINE
  8
16
 66
1
 10
0.0000
 20
0.0000
 30
0.0000
 40
0.0000
 41
0.0000
 70
1
  0
VERTEX
  8
16
 10
42.0116
 20
18.5660
 30
0.0000
  0
VERTEX
  8
16
 10
42.0116
 20
21.8059
 30
0.0000
 42
1.0000
  0
VERTEX
  8
16
 10
41.6052
 20
21.8059
 30
0.0000
  0
VERTEX
  8
16
 10
41.6052
 20
18.5660
 30
0.0000
 42
1.0000
  0
SEQEND
  8
0
  0
POLYLINE
  8
16
 66
1
 10
0.0000
 20
0.0000
 30
0.0000
 40
0.0000
 41
0.0000
 70
1
  0
VERTEX
  8
16
 10
58.5216
 20
29.3356
 30
0.0000
  0
VERTEX
  8
16
 10
58.5216
 20
31.6244
 30
0.0000
 42
1.0000
  0
VERTEX
  8
16
 10
58.1152
 20
31.6244
 30
0.0000
  0
VERTEX
  8
16
 10
58.1152
 20
29.3356
 30
0.0000
 42
1.0000
  0
SEQEND
  8
0
  0
POLYLINE
  8
16
 66
1
 10
0.0000
 20
0.0000
 30
0.0000
 40
0.0000
 41
0.0000
 70
1
  0
VERTEX
  8
16
 10
52.6845
 20
35.2329
 30
0.0000
  0
VERTEX
  8
16
 10
49.6737
 20
38.2437
 30
0.0000
 42
1.0000
  0
VERTEX
  8
16
 10
49.3863
 20
37.9563
 30
0.0000
  0
VERTEX
  8
16
 10
52.3971
 20
34.9455
 30
0.0000
 42
1.0000
  0
SEQEND
  8
0
  0
POLYLINE
  8
16
 66
1
 10
0.0000
 20
0.0000
 30
0.0000
 40
0.0000
 41
0.0000
 70
1
  0
VERTEX
  8
16
 10
45.4533
 20
25.2476
 30
0.0000
  0
VERTEX
  8
16
 10
54.4336
 20
25.2476
 30
0.0000
 42
1.0000
  0
VERTEX
  8
16
 10
54.4336
 20
25.6540
 30
0.0000
  0
VERTEX
  8
16
 10
45.4533
 20
25.6540
 30
0.0000
 42
1.0000
  0
SEQEND
  8
0
  0
POLYLINE
  8
16
 66
1
 10
0.0000
 20
0.0000
 30
0.0000
 40
0.0000
 41
0.0000
 70
1
  0
VERTEX
  8
16
 10
54.5773
 20
25.3071
 30
0.0000
  0
VERTEX
  8
16
 10
58.4621
 20
29.1919
 30
0.0000
 42
1.0000
  0
VERTEX
  8
16
 10
58.1747
 20
29.4793
 30
0.0000
  0
VERTEX
  8
16
 10
54.2899
 20
25.5945
 30
0.0000
 42
1.0000
  0
SEQEND
  8
0
  0
POLYLINE
  8
16
 66
1
 10
0.0000
 20
0.0000
 30
0.0000
 40
0.0000
 41
0.0000
 70
1
  0
VERTEX
  8
16
 10
58.4621
 20
31.7681
 30
0.0000
  0
VERTEX
  8
16
 10
54.9973
 20
35.2329
 30
0.0000
 42
1.0000
  0
VERTEX
  8
16
 10
54.7099
 20
34.9455
 30
0.0000
  0
VERTEX
  8
16
 10
58.1747
 20
31.4807
 30
0.0000
 42
1.0000
  0
SEQEND
  8
0
  0
POLYLINE
  8
16
 66
1
 10
0.0000
 20
0.0000
 30
0.0000
 40
0.0000
 41
0.0000
 70
1
  0
VERTEX
  8
16
 10
54.8536
 20
35.2924
 30
0.0000
  0
VERTEX
  8
16
 10
52.5408
 20
35.2924
 30
0.0000
 42
1.0000
  0
VERTEX
  8
16
 10
52.5408
 20
34.8860
 30
0.0000
  0
VERTEX
  8
16
 10
54.8536
 20
34.8860
 30
0.0000
 42
1.0000
  0
SEQEND
  8
0
  0
POLYLINE
  8
16
 66
1
 10
0.0000
 20
0.0000
 30
0.0000
 40
0.0000
 41
0.0000
 70
1
  0
VERTEX
  8
16
 10
41.9521
 20
21.6622
 30
0.0000
  0
VERTEX
  8
16
 10
45.5970
 20
25.3071
 30
0.0000
 42
1.0000
  0
VERTEX
  8
16
 10
45.3096
 20
25.5945
 30
0.0000
  0
VERTEX
  8
16
 10
41.6647
 20
21.9496
 30
0.0000
 42
1.0000
  0
SEQEND
  8
0
  0
POLYLINE
  8
16
 66
1
 10
0.0000
 20
0.0000
 30
0.0000
 40
0.0000
 41
0.0000
 70
1
  0
VERTEX
  8
16
 10
30.6832
 20
57.1500
 30
0.0000
  0
VERTEX
  8
16
 10
30.6832
 20
61.5950
 30
0.0000
 42
1.0000
  0
VERTEX
  8
16
 10
30.2768
 20
61.5950
 30
0.0000
  0
VERTEX
  8
16
 10
30.2768
 20
57.1500
 30
0.0000
 42
1.0000
  0
SEQEND
  8
0
  0
POLYLINE
  8
16
 66
1
 10
0.0000
 20
0.0000
 30
0.0000
 40
0.0000
 41
0.0000
 70
1
  0
VERTEX
  8
16
 10
59.1733
 20
60.6084
 30
0.0000
  0
VERTEX
  8
16
 10
58.8812
 20
60.9005
 30
0.0000
 42
1.0000
  0
VERTEX
  8
16
 10
58.5938
 20
60.6131
 30
0.0000
  0
VERTEX
  8
16
 10
58.8859
 20
60.3210
 30
0.0000
 42
1.0000
  0
SEQEND
  8
0
  0
POLYLINE
  8
16
 66
1
 10
0.0000
 20
0.0000
 30
0.0000
 40
0.0000
 41
0.0000
 70
1
  0
VERTEX
  8
16
 10
58.9407
 20
60.7568
 30
0.0000
  0
VERTEX
  8
16
 10
58.9407
 20
61.5950
 30
0.0000
 42
1.0000
  0
VERTEX
  8
16
 10
58.5343
 20
61.5950
 30
0.0000
  0
VERTEX
  8
16
 10
58.5343
 20
60.7568
 30
0.0000
 42
1.0000
  0
SEQEND
  8
0
  0
POLYLINE
  8
16
 66
1
 10
0.0000
 20
0.0000
 30
0.0000
 40
0.0000
 41
0.0000
 70
1
  0
VERTEX
  8
16
 10
45.4738
 20
15.1979
 30
0.0000
  0
VERTEX
  8
16
 10
59.1733
 20
28.8974
 30
0.0000
 42
1.0000
  0
VERTEX
  8
16
 10
58.8859
 20
29.1847
 30
0.0000
  0
VERTEX
  8
16
 10
45.1865
 20
15.4853
 30
0.0000
 42
1.0000
  0
SEQEND
  8
0
  0
POLYLINE
  8
16
 66
1
 10
0.0000
 20
0.0000
 30
0.0000
 40
0.0000
 41
0.0000
 70
1
  0
VERTEX
  8
16
 10
59.2328
 20
29.0410
 30
0.0000
  0
VERTEX
  8
16
 10
59.2328
 20
60.4647
 30
0.0000
 42
1.0000
  0
VERTEX
  8
16
 10
58.8264
 20
60.4647
 30
0.0000
  0
VERTEX
  8
16
 10
58.8264
 20
29.0410
 30
0.0000
 42
1.0000
  0
SEQEND
  8
0
  0
POLYLINE
  8
16
 66
1
 10
0.0000
 20
0.0000
 30
0.0000
 40
0.0000
 41
0.0000
 70
1
  0
VERTEX
  8
16
 10
40.7837
 20
13.8263
 30
0.0000
  0
VERTEX
  8
16
 10
42.1553
 20
15.1979
 30
0.0000
 42
1.0000
  0
VERTEX
  8
16
 10
41.8679
 20
15.4853
 30
0.0000
  0
VERTEX
  8
16
 10
40.4963
 20
14.1137
 30
0.0000
 42
1.0000
  0
SEQEND
  8
0
  0
POLYLINE
  8
16
 66
1
 10
0.0000
 20
0.0000
 30
0.0000
 40
0.0000
 41
0.0000
 70
1
  0
VERTEX
  8
16
 10
42.0116
 20
15.1384
 30
0.0000
  0
VERTEX
  8
16
 10
45.3302
 20
15.1384
 30
0.0000
 42
1.0000
  0
VERTEX
  8
16
 10
45.3302
 20
15.5448
 30
0.0000
  0
VERTEX
  8
16
 10
42.0116
 20
15.5448
 30
0.0000
 42
1.0000
  0
SEQEND
  8
0
  0
POLYLINE
  8
16
 66
1
 10
0.0000
 20
0.0000
 30
0.0000
 40
0.0000
 41
0.0000
 70
1
  0
VERTEX
  8
16
 10
58.5938
 20
61.4513
 30
0.0000
  0
VERTEX
  8
16
 10
58.9113
 20
61.1338
 30
0.0000
 42
1.0000
  0
VERTEX
  8
16
 10
59.1987
 20
61.4212
 30
0.0000
  0
VERTEX
  8
16
 10
58.8812
 20
61.7387
 30
0.0000
 42
1.0000
  0
SEQEND
  8
0
  0
INSERT
  8
18
  2
ROUNDV
 10
30.4800
 20
61.5950
 30
0.0000
 41
1.5240
 42
1.5240
 43
1.0000
 50
0.0000
  0
INSERT
  8
18
  2
ROUNDV
 10
59.0550
 20
61.2775
 30
0.0000
 41
1.5240
 42
1.5240
 43
1.0000
 50
0.0000
  0
POLYLINE
  8
16
 66
1
 10
0.0000
 20
0.0000
 30
0.0000
 40
0.0000
 41
0.0000
 70
1
  0
VERTEX
  8
16
 10
49.5300
 20
76.4032
 30
0.0000
  0
VERTEX
  8
16
 10
49.2125
 20
76.4032
 30
0.0000
 42
1.0000
  0
VERTEX
  8
16
 10
49.2125
 20
75.9968
 30
0.0000
  0
VERTEX
  8
16
 10
49.5300
 20
75.9968
 30
0.0000
 42
1.0000
  0
SEQEND
  8
0
  0
POLYLINE
  8
16
 66
1
 10
0.0000
 20
0.0000
 30
0.0000
 40
0.0000
 41
0.0000
 70
1
  0
VERTEX
  8
16
 10
49.0688
 20
76.3437
 30
0.0000
  0
VERTEX
  8
16
 10
47.4813
 20
74.7562
 30
0.0000
 42
1.0000
  0
VERTEX
  8
16
 10
47.7687
 20
74.4688
 30
0.0000
  0
VERTEX
  8
16
 10
49.3562
 20
76.0563
 30
0.0000
 42
1.0000
  0
SEQEND
  8
0
  0
POLYLINE
  8
16
 66
1
 10
0.0000
 20
0.0000
 30
0.0000
 40
0.0000
 41
0.0000
 70
1
  0
VERTEX
  8
16
 10
47.6250
 20
74.8157
 30
0.0000
  0
VERTEX
  8
16
 10
41.5925
 20
74.8157
 30
0.0000
 42
1.0000
  0
VERTEX
  8
16
 10
41.5925
 20
74.4093
 30
0.0000
  0
VERTEX
  8
16
 10
47.6250
 20
74.4093
 30
0.0000
 42
1.0000
  0
SEQEND
  8
0
  0
POLYLINE
  8
16
 66
1
 10
0.0000
 20
0.0000
 30
0.0000
 40
0.0000
 41
0.0000
 70
1
  0
VERTEX
  8
16
 10
41.4488
 20
74.7562
 30
0.0000
  0
VERTEX
  8
16
 10
40.1788
 20
73.4862
 30
0.0000
 42
1.0000
  0
VERTEX
  8
16
 10
40.4662
 20
73.1988
 30
0.0000
  0
VERTEX
  8
16
 10
41.7362
 20
74.4688
 30
0.0000
 42
1.0000
  0
SEQEND
  8
0
  0
POLYLINE
  8
16
 66
1
 10
0.0000
 20
0.0000
 30
0.0000
 40
0.0000
 41
0.0000
 70
1
  0
VERTEX
  8
16
 10
40.4662
 20
73.4862
 30
0.0000
  0
VERTEX
  8
16
 10
40.1487
 20
73.8037
 30
0.0000
 42
1.0000
  0
VERTEX
  8
16
 10
39.8613
 20
73.5163
 30
0.0000
  0
VERTEX
  8
16
 10
40.1788
 20
73.1988
 30
0.0000
 42
1.0000
  0
SEQEND
  8
0
  0
POLYLINE
  8
16
 66
1
 10
0.0000
 20
0.0000
 30
0.0000
 40
0.0000
 41
0.0000
 70
1
  0
VERTEX
  8
16
 10
40.6400
 20
8.6868
 30
0.0000
  0
VERTEX
  8
16
 10
42.8625
 20
8.6868
 30
0.0000
 42
1.0000
  0
VERTEX
  8
16
 10
42.8625
 20
9.0932
 30
0.0000
  0
VERTEX
  8
16
 10
40.6400
 20
9.0932
 30
0.0000
 42
1.0000
  0
SEQEND
  8
0
  0
POLYLINE
  8
16
 66
1
 10
0.0000
 20
0.0000
 30
0.0000
 40
0.0000
 41
0.0000
 70
1
  0
VERTEX
  8
16
 10
43.0062
 20
8.7463
 30
0.0000
  0
VERTEX
  8
16
 10
45.7049
 20
11.4451
 30
0.0000
 42
1.0000
  0
VERTEX
  8
16
 10
45.4176
 20
11.7324
 30
0.0000
  0
VERTEX
  8
16
 10
42.7188
 20
9.0337
 30
0.0000
 42
1.0000
  0
SEQEND
  8
0
  0
POLYLINE
  8
16
 66
1
 10
0.0000
 20
0.0000
 30
0.0000
 40
0.0000
 41
0.0000
 70
1
  0
VERTEX
  8
16
 10
45.5763
 20
11.8912
 30
0.0000
  0
VERTEX
  8
16
 10
45.4176
 20
11.7324
 30
0.0000
 42
1.0000
  0
VERTEX
  8
16
 10
45.7049
 20
11.4451
 30
0.0000
  0
VERTEX
  8
16
 10
45.8637
 20
11.6038
 30
0.0000
 42
1.0000
  0
SEQEND
  8
0
  0
POLYLINE
  8
16
 66
1
 10
0.0000
 20
0.0000
 30
0.0000
 40
0.0000
 41
0.0000
 70
1
  0
VERTEX
  8
16
 10
45.7049
 20
11.4451
 30
0.0000
  0
VERTEX
  8
16
 10
45.8637
 20
11.6038
 30
0.0000
 42
1.0000
  0
VERTEX
  8
16
 10
45.5763
 20
11.8912
 30
0.0000
  0
VERTEX
  8
16
 10
45.4176
 20
11.7324
 30
0.0000
 42
1.0000
  0
SEQEND
  8
0
  0
INSERT
  8
18
  2
ROUNDV
 10
40.0050
 20
73.6600
 30
0.0000
 41
1.5240
 42
1.5240
 43
1.0000
 50
0.0000
  0
INSERT
  8
18
  2
ROUNDV
 10
45.5613
 20
11.5888
 30
0.0000
 41
1.5240
 42
1.5240
 43
1.0000
 50
0.0000
  0
POLYLINE
  8
16
 66
1
 10
0.0000
 20
0.0000
 30
0.0000
 40
0.0000
 41
0.0000
 70
1
  0
VERTEX
  8
16
 10
30.3363
 20
76.3437
 30
0.0000
  0
VERTEX
  8
16
 10
28.7488
 20
74.7562
 30
0.0000
 42
1.0000
  0
VERTEX
  8
16
 10
29.0362
 20
74.4688
 30
0.0000
  0
VERTEX
  8
16
 10
30.6237
 20
76.0563
 30
0.0000
 42
1.0000
  0
SEQEND
  8
0
  0
POLYLINE
  8
16
 66
1
 10
0.0000
 20
0.0000
 30
0.0000
 40
0.0000
 41
0.0000
 70
1
  0
VERTEX
  8
16
 10
28.8925
 20
74.8157
 30
0.0000
  0
VERTEX
  8
16
 10
21.9075
 20
74.8157
 30
0.0000
 42
1.0000
  0
VERTEX
  8
16
 10
21.9075
 20
74.4093
 30
0.0000
  0
VERTEX
  8
16
 10
28.8925
 20
74.4093
 30
0.0000
 42
1.0000
  0
SEQEND
  8
0
  0
POLYLINE
  8
16
 66
1
 10
0.0000
 20
0.0000
 30
0.0000
 40
0.0000
 41
0.0000
 70
1
  0
VERTEX
  8
16
 10
21.7638
 20
74.7562
 30
0.0000
  0
VERTEX
  8
16
 10
20.8113
 20
73.8037
 30
0.0000
 42
1.0000
  0
VERTEX
  8
16
 10
21.0987
 20
73.5163
 30
0.0000
  0
VERTEX
  8
16
 10
22.0512
 20
74.4688
 30
0.0000
 42
1.0000
  0
SEQEND
  8
0
  0
POLYLINE
  8
16
 66
1
 10
0.0000
 20
0.0000
 30
0.0000
 40
0.0000
 41
0.0000
 70
1
  0
VERTEX
  8
16
 10
40.6400
 20
6.5532
 30
0.0000
  0
VERTEX
  8
16
 10
38.1000
 20
6.5532
 30
0.0000
 42
1.0000
  0
VERTEX
  8
16
 10
38.1000
 20
6.1468
 30
0.0000
  0
VERTEX
  8
16
 10
40.6400
 20
6.1468
 30
0.0000
 42
1.0000
  0
SEQEND
  8
0
  0
POLYLINE
  8
16
 66
1
 10
0.0000
 20
0.0000
 30
0.0000
 40
0.0000
 41
0.0000
 70
1
  0
VERTEX
  8
16
 10
38.2437
 20
6.4937
 30
0.0000
  0
VERTEX
  8
16
 10
36.6562
 20
8.0812
 30
0.0000
 42
1.0000
  0
VERTEX
  8
16
 10
36.3688
 20
7.7938
 30
0.0000
  0
VERTEX
  8
16
 10
37.9563
 20
6.2063
 30
0.0000
 42
1.0000
  0
SEQEND
  8
0
  0
POLYLINE
  8
16
 66
1
 10
0.0000
 20
0.0000
 30
0.0000
 40
0.0000
 41
0.0000
 70
1
  0
VERTEX
  8
16
 10
36.7157
 20
7.9375
 30
0.0000
  0
VERTEX
  8
16
 10
36.7157
 20
21.5900
 30
0.0000
 42
1.0000
  0
VERTEX
  8
16
 10
36.3093
 20
21.5900
 30
0.0000
  0
VERTEX
  8
16
 10
36.3093
 20
7.9375
 30
0.0000
 42
1.0000
  0
SEQEND
  8
0
  0
POLYLINE
  8
16
 66
1
 10
0.0000
 20
0.0000
 30
0.0000
 40
0.0000
 41
0.0000
 70
1
  0
VERTEX
  8
16
 10
36.6562
 20
21.4463
 30
0.0000
  0
VERTEX
  8
16
 10
36.9737
 20
21.7638
 30
0.0000
 42
1.0000
  0
VERTEX
  8
16
 10
36.6863
 20
22.0512
 30
0.0000
  0
VERTEX
  8
16
 10
36.3688
 20
21.7337
 30
0.0000
 42
1.0000
  0
SEQEND
  8
0
  0
INSERT
  8
18
  2
ROUNDV
 10
20.9550
 20
73.6600
 30
0.0000
 41
1.5240
 42
1.5240
 43
1.0000
 50
0.0000
  0
INSERT
  8
18
  2
ROUNDV
 10
36.8300
 20
21.9075
 30
0.0000
 41
1.5240
 42
1.5240
 43
1.0000
 50
0.0000
  0
POLYLINE
  8
16
 66
1
 10
0.0000
 20
0.0000
 30
0.0000
 40
0.0000
 41
0.0000
 70
1
  0
VERTEX
  8
16
 10
49.7332
 20
57.1500
 30
0.0000
  0
VERTEX
  8
16
 10
49.7332
 20
61.5950
 30
0.0000
 42
1.0000
  0
VERTEX
  8
16
 10
49.3268
 20
61.5950
 30
0.0000
  0
VERTEX
  8
16
 10
49.3268
 20
57.1500
 30
0.0000
 42
1.0000
  0
SEQEND
  8
0
  0
POLYLINE
  8
16
 66
1
 10
0.0000
 20
0.0000
 30
0.0000
 40
0.0000
 41
0.0000
 70
1
  0
VERTEX
  8
16
 10
40.6400
 20
11.2268
 30
0.0000
  0
VERTEX
  8
16
 10
43.1800
 20
11.2268
 30
0.0000
 42
1.0000
  0
VERTEX
  8
16
 10
43.1800
 20
11.6332
 30
0.0000
  0
VERTEX
  8
16
 10
40.6400
 20
11.6332
 30
0.0000
 42
1.0000
  0
SEQEND
  8
0
  0
POLYLINE
  8
16
 66
1
 10
0.0000
 20
0.0000
 30
0.0000
 40
0.0000
 41
0.0000
 70
1
  0
VERTEX
  8
16
 10
43.3237
 20
11.2863
 30
0.0000
  0
VERTEX
  8
16
 10
59.1987
 20
27.1613
 30
0.0000
 42
1.0000
  0
VERTEX
  8
16
 10
58.9113
 20
27.4487
 30
0.0000
  0
VERTEX
  8
16
 10
43.0363
 20
11.5737
 30
0.0000
 42
1.0000
  0
SEQEND
  8
0
  0
POLYLINE
  8
16
 66
1
 10
0.0000
 20
0.0000
 30
0.0000
 40
0.0000
 41
0.0000
 70
1
  0
VERTEX
  8
16
 10
58.8518
 20
27.3050
 30
0.0000
  0
VERTEX
  8
16
 10
58.8518
 20
26.9875
 30
0.0000
 42
1.0000
  0
VERTEX
  8
16
 10
59.2582
 20
26.9875
 30
0.0000
  0
VERTEX
  8
16
 10
59.2582
 20
27.3050
 30
0.0000
 42
1.0000
  0
SEQEND
  8
0
  0
POLYLINE
  8
16
 66
1
 10
0.0000
 20
0.0000
 30
0.0000
 40
0.0000
 41
0.0000
 70
1
  0
VERTEX
  8
16
 10
58.9113
 20
27.1312
 30
0.0000
  0
VERTEX
  8
16
 10
58.5938
 20
26.8137
 30
0.0000
 42
1.0000
  0
VERTEX
  8
16
 10
58.8812
 20
26.5263
 30
0.0000
  0
VERTEX
  8
16
 10
59.1987
 20
26.8438
 30
0.0000
 42
1.0000
  0
SEQEND
  8
0
  0
INSERT
  8
18
  2
ROUNDV
 10
49.5300
 20
61.5950
 30
0.0000
 41
1.5240
 42
1.5240
 43
1.0000
 50
0.0000
  0
INSERT
  8
18
  2
ROUNDV
 10
58.7375
 20
26.6700
 30
0.0000
 41
1.5240
 42
1.5240
 43
1.0000
 50
0.0000
  0
POLYLINE
  8
16
 66
1
 10
0.0000
 20
0.0000
 30
0.0000
 40
0.0000
 41
0.0000
 70
1
  0
VERTEX
  8
16
 10
2.5400
 20
42.9768
 30
0.0000
  0
VERTEX
  8
16
 10
3.8100
 20
42.9768
 30
0.0000
 42
1.0000
  0
VERTEX
  8
16
 10
3.8100
 20
43.3832
 30
0.0000
  0
VERTEX
  8
16
 10
2.5400
 20
43.3832
 30
0.0000
 42
1.0000
  0
SEQEND
  8
0
  0
POLYLINE
  8
16
 66
1
 10
0.0000
 20
0.0000
 30
0.0000
 40
0.0000
 41
0.0000
 70
1
  0
VERTEX
  8
16
 10
3.6663
 20
43.0363
 30
0.0000
  0
VERTEX
  8
16
 10
4.2251
 20
42.4775
 30
0.0000
 42
1.0000
  0
VERTEX
  8
16
 10
4.5125
 20
42.7649
 30
0.0000
  0
VERTEX
  8
16
 10
3.9537
 20
43.3237
 30
0.0000
 42
1.0000
  0
SEQEND
  8
0
  0
POLYLINE
  8
16
 66
1
 10
0.0000
 20
0.0000
 30
0.0000
 40
0.0000
 41
0.0000
 70
1
  0
VERTEX
  8
16
 10
3.8100
 20
32.8168
 30
0.0000
  0
VERTEX
  8
16
 10
4.3688
 20
32.8168
 30
0.0000
 42
1.0000
  0
VERTEX
  8
16
 10
4.3688
 20
33.2232
 30
0.0000
  0
VERTEX
  8
16
 10
3.8100
 20
33.2232
 30
0.0000
 42
1.0000
  0
SEQEND
  8
0
  0
POLYLINE
  8
16
 66
1
 10
0.0000
 20
0.0000
 30
0.0000
 40
0.0000
 41
0.0000
 70
1
  0
VERTEX
  8
16
 10
2.7432
 20
29.2100
 30
0.0000
  0
VERTEX
  8
16
 10
2.7432
 20
31.7500
 30
0.0000
 42
1.0000
  0
VERTEX
  8
16
 10
2.3368
 20
31.7500
 30
0.0000
  0
VERTEX
  8
16
 10
2.3368
 20
29.2100
 30
0.0000
 42
1.0000
  0
SEQEND
  8
0
  0
POLYLINE
  8
16
 66
1
 10
0.0000
 20
0.0000
 30
0.0000
 40
0.0000
 41
0.0000
 70
1
  0
VERTEX
  8
16
 10
2.6837
 20
31.6063
 30
0.0000
  0
VERTEX
  8
16
 10
3.9537
 20
32.8763
 30
0.0000
 42
1.0000
  0
VERTEX
  8
16
 10
3.6663
 20
33.1637
 30
0.0000
  0
VERTEX
  8
16
 10
2.3963
 20
31.8937
 30
0.0000
 42
1.0000
  0
SEQEND
  8
0
  0
POLYLINE
  8
16
 66
1
 10
0.0000
 20
0.0000
 30
0.0000
 40
0.0000
 41
0.0000
 70
1
  0
VERTEX
  8
16
 10
4.1656
 20
42.6212
 30
0.0000
  0
VERTEX
  8
16
 10
4.1656
 20
33.5788
 30
0.0000
 42
1.0000
  0
VERTEX
  8
16
 10
4.5720
 20
33.5788
 30
0.0000
  0
VERTEX
  8
16
 10
4.5720
 20
42.6212
 30
0.0000
 42
1.0000
  0
SEQEND
  8
0
  0
POLYLINE
  8
16
 66
1
 10
0.0000
 20
0.0000
 30
0.0000
 40
0.0000
 41
0.0000
 70
1
  0
VERTEX
  8
16
 10
4.2251
 20
33.7225
 30
0.0000
  0
VERTEX
  8
16
 10
3.6663
 20
33.1637
 30
0.0000
 42
1.0000
  0
VERTEX
  8
16
 10
3.9537
 20
32.8763
 30
0.0000
  0
VERTEX
  8
16
 10
4.5125
 20
33.4351
 30
0.0000
 42
1.0000
  0
SEQEND
  8
0
  0
POLYLINE
  8
16
 66
1
 10
0.0000
 20
0.0000
 30
0.0000
 40
0.0000
 41
0.0000
 70
1
  0
VERTEX
  8
16
 10
3.0842
 20
17.5226
 30
0.0000
  0
VERTEX
  8
16
 10
0.4517
 20
19.8376
 30
0.0000
 42
1.0000
  0
VERTEX
  8
16
 10
0.1833
 20
19.5324
 30
0.0000
  0
VERTEX
  8
16
 10
2.8158
 20
17.2174
 30
0.0000
 42
1.0000
  0
SEQEND
  8
0
  0
POLYLINE
  8
16
 66
1
 10
0.0000
 20
0.0000
 30
0.0000
 40
0.0000
 41
0.0000
 70
1
  0
VERTEX
  8
16
 10
0.5207
 20
19.6850
 30
0.0000
  0
VERTEX
  8
16
 10
0.5207
 20
27.9400
 30
0.0000
 42
1.0000
  0
VERTEX
  8
16
 10
0.1143
 20
27.9400
 30
0.0000
  0
VERTEX
  8
16
 10
0.1143
 20
19.6850
 30
0.0000
 42
1.0000
  0
SEQEND
  8
0
  0
POLYLINE
  8
16
 66
1
 10
0.0000
 20
0.0000
 30
0.0000
 40
0.0000
 41
0.0000
 70
1
  0
VERTEX
  8
16
 10
0.4444
 20
27.7813
 30
0.0000
  0
VERTEX
  8
16
 10
2.0319
 20
29.0513
 30
0.0000
 42
1.0000
  0
VERTEX
  8
16
 10
1.7781
 20
29.3687
 30
0.0000
  0
VERTEX
  8
16
 10
0.1906
 20
28.0987
 30
0.0000
 42
1.0000
  0
SEQEND
  8
0
  0
POLYLINE
  8
16
 66
1
 10
0.0000
 20
0.0000
 30
0.0000
 40
0.0000
 41
0.0000
 70
1
  0
VERTEX
  8
16
 10
1.9050
 20
29.0068
 30
0.0000
  0
VERTEX
  8
16
 10
2.5400
 20
29.0068
 30
0.0000
 42
1.0000
  0
VERTEX
  8
16
 10
2.5400
 20
29.4132
 30
0.0000
  0
VERTEX
  8
16
 10
1.9050
 20
29.4132
 30
0.0000
 42
1.0000
  0
SEQEND
  8
0
  0
POLYLINE
  8
16
 66
1
 10
0.0000
 20
0.0000
 30
0.0000
 40
0.0000
 41
0.0000
 70
1
  0
VERTEX
  8
16
 10
33.2232
 20
6.3500
 30
0.0000
  0
VERTEX
  8
16
 10
33.2232
 20
8.8900
 30
0.0000
 42
1.0000
  0
VERTEX
  8
16
 10
32.8168
 20
8.8900
 30
0.0000
  0
VERTEX
  8
16
 10
32.8168
 20
6.3500
 30
0.0000
 42
1.0000
  0
SEQEND
  8
0
  0
POLYLINE
  8
16
 66
1
 10
0.0000
 20
0.0000
 30
0.0000
 40
0.0000
 41
0.0000
 70
1
  0
VERTEX
  8
16
 10
33.2232
 20
8.8900
 30
0.0000
  0
VERTEX
  8
16
 10
33.2232
 20
11.4300
 30
0.0000
 42
1.0000
  0
VERTEX
  8
16
 10
32.8168
 20
11.4300
 30
0.0000
  0
VERTEX
  8
16
 10
32.8168
 20
8.8900
 30
0.0000
 42
1.0000
  0
SEQEND
  8
0
  0
POLYLINE
  8
16
 66
1
 10
0.0000
 20
0.0000
 30
0.0000
 40
0.0000
 41
0.0000
 70
1
  0
VERTEX
  8
16
 10
33.2232
 20
11.4300
 30
0.0000
  0
VERTEX
  8
16
 10
33.2232
 20
13.9700
 30
0.0000
 42
1.0000
  0
VERTEX
  8
16
 10
32.8168
 20
13.9700
 30
0.0000
  0
VERTEX
  8
16
 10
32.8168
 20
11.4300
 30
0.0000
 42
1.0000
  0
SEQEND
  8
0
  0
POLYLINE
  8
16
 66
1
 10
0.0000
 20
0.0000
 30
0.0000
 40
0.0000
 41
0.0000
 70
1
  0
VERTEX
  8
16
 10
33.2232
 20
13.9700
 30
0.0000
  0
VERTEX
  8
16
 10
33.2232
 20
16.5100
 30
0.0000
 42
1.0000
  0
VERTEX
  8
16
 10
32.8168
 20
16.5100
 30
0.0000
  0
VERTEX
  8
16
 10
32.8168
 20
13.9700
 30
0.0000
 42
1.0000
  0
SEQEND
  8
0
  0
POLYLINE
  8
16
 66
1
 10
0.0000
 20
0.0000
 30
0.0000
 40
0.0000
 41
0.0000
 70
1
  0
VERTEX
  8
16
 10
32.8168
 20
19.0500
 30
0.0000
  0
VERTEX
  8
16
 10
32.8168
 20
16.5100
 30
0.0000
 42
1.0000
  0
VERTEX
  8
16
 10
33.2232
 20
16.5100
 30
0.0000
  0
VERTEX
  8
16
 10
33.2232
 20
19.0500
 30
0.0000
 42
1.0000
  0
SEQEND
  8
0
  0
POLYLINE
  8
16
 66
1
 10
0.0000
 20
0.0000
 30
0.0000
 40
0.0000
 41
0.0000
 70
1
  0
VERTEX
  8
16
 10
11.2968
 20
21.0000
 30
0.0000
  0
VERTEX
  8
16
 10
11.2968
 20
18.5000
 30
0.0000
 42
1.0000
  0
VERTEX
  8
16
 10
11.7032
 20
18.5000
 30
0.0000
  0
VERTEX
  8
16
 10
11.7032
 20
21.0000
 30
0.0000
 42
1.0000
  0
SEQEND
  8
0
  0
POLYLINE
  8
16
 66
1
 10
0.0000
 20
0.0000
 30
0.0000
 40
0.0000
 41
0.0000
 70
1
  0
VERTEX
  8
16
 10
11.3563
 20
18.6437
 30
0.0000
  0
VERTEX
  8
16
 10
6.8563
 20
14.1437
 30
0.0000
 42
1.0000
  0
VERTEX
  8
16
 10
7.1437
 20
13.8563
 30
0.0000
  0
VERTEX
  8
16
 10
11.6437
 20
18.3563
 30
0.0000
 42
1.0000
  0
SEQEND
  8
0
  0
POLYLINE
  8
16
 66
1
 10
0.0000
 20
0.0000
 30
0.0000
 40
0.0000
 41
0.0000
 70
1
  0
VERTEX
  8
16
 10
7.0000
 20
14.2032
 30
0.0000
  0
VERTEX
  8
16
 10
6.0000
 20
14.2032
 30
0.0000
 42
1.0000
  0
VERTEX
  8
16
 10
6.0000
 20
13.7968
 30
0.0000
  0
VERTEX
  8
16
 10
7.0000
 20
13.7968
 30
0.0000
 42
1.0000
  0
SEQEND
  8
0
  0
POLYLINE
  8
16
 66
1
 10
0.0000
 20
0.0000
 30
0.0000
 40
0.0000
 41
0.0000
 70
1
  0
VERTEX
  8
16
 10
6.1437
 20
14.1437
 30
0.0000
  0
VERTEX
  8
16
 10
5.6437
 20
14.6437
 30
0.0000
 42
1.0000
  0
VERTEX
  8
16
 10
5.3563
 20
14.3563
 30
0.0000
  0
VERTEX
  8
16
 10
5.8563
 20
13.8563
 30
0.0000
 42
1.0000
  0
SEQEND
  8
0
  0
POLYLINE
  8
16
 66
1
 10
0.0000
 20
0.0000
 30
0.0000
 40
0.0000
 41
0.0000
 70
1
  0
VERTEX
  8
16
 10
5.7032
 20
14.5000
 30
0.0000
  0
VERTEX
  8
16
 10
5.7032
 20
14.8200
 30
0.0000
 42
1.0000
  0
VERTEX
  8
16
 10
5.2968
 20
14.8200
 30
0.0000
  0
VERTEX
  8
16
 10
5.2968
 20
14.5000
 30
0.0000
 42
1.0000
  0
SEQEND
  8
0
  0
POLYLINE
  8
16
 66
1
 10
0.0000
 20
0.0000
 30
0.0000
 40
0.0000
 41
0.0000
 70
1
  0
VERTEX
  8
16
 10
5.6437
 20
14.9637
 30
0.0000
  0
VERTEX
  8
16
 10
3.0937
 20
17.5137
 30
0.0000
 42
1.0000
  0
VERTEX
  8
16
 10
2.8063
 20
17.2263
 30
0.0000
  0
VERTEX
  8
16
 10
5.3563
 20
14.6763
 30
0.0000
 42
1.0000
  0
SEQEND
  8
0
  0
POLYLINE
  8
16
 66
1
 10
0.0000
 20
0.0000
 30
0.0000
 40
0.0000
 41
0.0000
 70
1
  0
VERTEX
  8
16
 10
5.7032
 20
14.5000
 30
0.0000
  0
VERTEX
  8
16
 10
5.7032
 20
17.5000
 30
0.0000
 42
1.0000
  0
VERTEX
  8
16
 10
5.2968
 20
17.5000
 30
0.0000
  0
VERTEX
  8
16
 10
5.2968
 20
14.5000
 30
0.0000
 42
1.0000
  0
SEQEND
  8
0
  0
POLYLINE
  8
16
 66
1
 10
0.0000
 20
0.0000
 30
0.0000
 40
0.0000
 41
0.0000
 70
1
  0
VERTEX
  8
16
 10
5.6437
 20
17.3563
 30
0.0000
  0
VERTEX
  8
16
 10
6.1437
 20
17.8563
 30
0.0000
 42
1.0000
  0
VERTEX
  8
16
 10
5.8563
 20
18.1437
 30
0.0000
  0
VERTEX
  8
16
 10
5.3563
 20
17.6437
 30
0.0000
 42
1.0000
  0
SEQEND
  8
0
  0
POLYLINE
  8
16
 66
1
 10
0.0000
 20
0.0000
 30
0.0000
 40
0.0000
 41
0.0000
 70
1
  0
VERTEX
  8
16
 10
30.0000
 20
18.7968
 30
0.0000
  0
VERTEX
  8
16
 10
32.9700
 20
18.7968
 30
0.0000
 42
1.0000
  0
VERTEX
  8
16
 10
32.9700
 20
19.2032
 30
0.0000
  0
VERTEX
  8
16
 10
30.0000
 20
19.2032
 30
0.0000
 42
1.0000
  0
SEQEND
  8
0
  0
POLYLINE
  8
16
 66
1
 10
0.0000
 20
0.0000
 30
0.0000
 40
0.0000
 41
0.0000
 70
1
  0
VERTEX
  8
16
 10
33.1137
 20
18.8563
 30
0.0000
  0
VERTEX
  8
16
 10
33.1637
 20
18.9063
 30
0.0000
 42
1.0000
  0
VERTEX
  8
16
 10
32.8763
 20
19.1937
 30
0.0000
  0
VERTEX
  8
16
 10
32.8263
 20
19.1437
 30
0.0000
 42
1.0000
  0
SEQEND
  8
0
  0
INSERT
  8
18
  2
ROUNDV
 10
3.8100
 20
33.0200
 30
0.0000
 41
1.5240
 42
1.5240
 43
1.0000
 50
0.0000
  0
INSERT
  8
18
  2
ROUNDV
 10
6.0000
 20
18.0000
 30
0.0000
 41
1.5240
 42
1.5240
 43
1.0000
 50
0.0000
  0
INSERT
  8
18
  2
ROUNDV
 10
30.0000
 20
19.0000
 30
0.0000
 41
1.5240
 42
1.5240
 43
1.0000
 50
0.0000
  0
ENDSEC
  0
EOF
