  0
SECTION
  2
HEADER
  9
$ACADVER
  1
AC1009
  9
$INSBASE
 10
0.0
 20
0.0
 30
0.0
  9
$EXTMIN
 10
0.0
 20
0.0
 30
0.0
  9
$EXTMAX
 10
160.0
 20
100.0
 30
0.0
  9
$LIMMIN
 10
0.0
 20
0.0
  9
$LIMMAX
 10
12.0
 20
9.0
  9
$ORTHOMODE
 70
     0
  9
$REGENMODE
 70
     1
  9
$FILLMODE
 70
     0
  9
$QTEXTMODE
 70
     0
  9
$MIRRTEXT
 70
     0
  9
$DRAGMODE
 70
     2
  9
$LTSCALE
 40
1.0
  9
$OSMODE
 70
    39
  9
$ATTMODE
 70
     1
  9
$TEXTSIZE
 40
0.2
  9
$TRACEWID
 40
0.05
  9
$TEXTSTYLE
  7
STANDARD
  9
$CLAYER
  8
0
  9
$CELTYPE
  6
CONTINUOUS
  9
$CECOLOR
 62
   256
  9
$DIMSCALE
 40
1.0
  9
$DIMASZ
 40
0.18
  9
$DIMEXO
 40
0.0625
  9
$DIMDLI
 40
0.38
  9
$DIMRND
 40
0.0
  9
$DIMDLE
 40
0.0
  9
$DIMEXE
 40
0.18
  9
$DIMTP
 40
0.0
  9
$DIMTM
 40
0.0
  9
$DIMTXT
 40
0.18
  9
$DIMCEN
 40
0.09
  9
$DIMTSZ
 40
0.0
  9
$DIMTOL
 70
     0
  9
$DIMLIM
 70
     0
  9
$DIMTIH
 70
     1
  9
$DIMTOH
 70
     1
  9
$DIMSE1
 70
     0
  9
$DIMSE2
 70
     0
  9
$DIMTAD
 70
     0
  9
$DIMZIN
 70
     0
  9
$DIMBLK
  1

  9
$DIMASO
 70
     1
  9
$DIMSHO
 70
     1
  9
$DIMPOST
  1

  9
$DIMAPOST
  1

  9
$DIMALT
 70
     0
  9
$DIMALTD
 70
     2
  9
$DIMALTF
 40
25.399999999999999
  9
$DIMLFAC
 40
1.0
  9
$DIMTOFL
 70
     0
  9
$DIMTVP
 40
0.0
  9
$DIMTIX
 70
     0
  9
$DIMSOXD
 70
     0
  9
$DIMSAH
 70
     0
  9
$DIMBLK1
  1

  9
$DIMBLK2
  1

  9
$DIMSTYLE
  2
STANDARD
  9
$DIMCLRD
 70
     0
  9
$DIMCLRE
 70
     0
  9
$DIMCLRT
 70
     0
  9
$DIMTFAC
 40
1.0
  9
$DIMGAP
 40
0.09
  9
$LUNITS
 70
     2
  9
$LUPREC
 70
     4
  9
$SKETCHINC
 40
0.1
  9
$FILLETRAD
 40
0.0
  9
$AUNITS
 70
     0
  9
$AUPREC
 70
     0
  9
$MENU
  1
.
  9
$ELEVATION
 40
0.0
  9
$PELEVATION
 40
0.0
  9
$THICKNESS
 40
0.0
  9
$LIMCHECK
 70
     0
  9
$BLIPMODE
 70
     0
  9
$CHAMFERA
 40
0.0
  9
$CHAMFERB
 40
0.0
  9
$SKPOLY
 70
     0
  9
$TDCREATE
 40
2459369.0571891088
  9
$TDUPDATE
 40
2459369.0715597342
  9
$TDINDWG
 40
0.0143719444
  9
$TDUSRTIMER
 40
0.0143719444
  9
$USRTIMER
 70
     1
  9
$ANGBASE
 50
0.0
  9
$ANGDIR
 70
     0
  9
$PDMODE
 70
     0
  9
$PDSIZE
 40
0.0
  9
$PLINEWID
 40
0.0
  9
$COORDS
 70
     1
  9
$SPLFRAME
 70
     0
  9
$SPLINETYPE
 70
     6
  9
$SPLINESEGS
 70
     8
  9
$ATTDIA
 70
     0
  9
$ATTREQ
 70
     1
  9
$HANDLING
 70
     1
  9
$HANDSEED
  5
4C28
  9
$SURFTAB1
 70
     6
  9
$SURFTAB2
 70
     6
  9
$SURFTYPE
 70
     6
  9
$SURFU
 70
     6
  9
$SURFV
 70
     6
  9
$UCSNAME
  2

  9
$UCSORG
 10
0.0
 20
0.0
 30
0.0
  9
$UCSXDIR
 10
1.0
 20
0.0
 30
0.0
  9
$UCSYDIR
 10
0.0
 20
1.0
 30
0.0
  9
$PUCSNAME
  2

  9
$PUCSORG
 10
0.0
 20
0.0
 30
0.0
  9
$PUCSXDIR
 10
1.0
 20
0.0
 30
0.0
  9
$PUCSYDIR
 10
0.0
 20
1.0
 30
0.0
  9
$USERI1
 70
     0
  9
$USERI2
 70
     0
  9
$USERI3
 70
     0
  9
$USERI4
 70
     0
  9
$USERI5
 70
     0
  9
$USERR1
 40
0.0
  9
$USERR2
 40
0.0
  9
$USERR3
 40
0.0
  9
$USERR4
 40
0.0
  9
$USERR5
 40
0.0
  9
$WORLDVIEW
 70
     1
  9
$SHADEDGE
 70
     3
  9
$SHADEDIF
 70
    70
  9
$TILEMODE
 70
     1
  9
$MAXACTVP
 70
    64
  9
$PLIMCHECK
 70
     0
  9
$PEXTMIN
 10
1.0000000000000000E+020
 20
1.0000000000000000E+020
 30
1.0000000000000000E+020
  9
$PEXTMAX
 10
-1.0000000000000000E+020
 20
-1.0000000000000000E+020
 30
-1.0000000000000000E+020
  9
$PLIMMIN
 10
0.0
 20
0.0
  9
$PLIMMAX
 10
12.0
 20
9.0
  9
$UNITMODE
 70
     0
  9
$VISRETAIN
 70
     1
  9
$PLINEGEN
 70
     0
  9
$PSLTSCALE
 70
     1
  0
ENDSEC
  0
SECTION
  2
TABLES
  0
TABLE
  2
VPORT
 70
     1
  0
VPORT
  2
*ACTIVE
 70
     0
 10
0.0
 20
0.0
 11
1.0
 21
1.0
 12
-74.082254461172312
 22
-23.182854536345019
 13
0.0
 23
0.0
 14
1.0
 24
1.0
 15
0.0
 25
0.0
 16
-0.0000000000001421
 26
0.0
 36
620.32654676131745
 17
80.0
 27
50.0
 37
0.0
 40
185.71435978465101
 41
2.5397877984084878
 42
50.0
 43
0.0
 44
0.0
 50
0.0
 51
0.0
 71
     0
 72
   100
 73
     1
 74
     1
 75
     0
 76
     0
 77
     0
 78
     0
  0
ENDTAB
  0
TABLE
  2
LTYPE
 70
     2
  0
LTYPE
  2
CONTINUOUS
 70
     0
  3
Solid line
 72
    65
 73
     0
 40
0.0
  0
ENDTAB
  0
TABLE
  2
LAYER
 70
    13
  0
LAYER
  2
0
 70
     0
 62
     7
  6
CONTINUOUS
  0
LAYER
  2
20
 70
     0
 62
     7
  6
CONTINUOUS
  0
LAYER
  2
21
 70
     0
 62
   253
  6
CONTINUOUS
  0
LAYER
  2
39
 70
     0
 62
    22
  6
CONTINUOUS
  0
LAYER
  2
40
 70
     0
 62
   175
  6
CONTINUOUS
  0
LAYER
  2
41
 70
     0
 62
    22
  6
CONTINUOUS
  0
LAYER
  2
42
 70
     0
 62
   175
  6
CONTINUOUS
  0
LAYER
  2
43
 70
     0
 62
    82
  6
CONTINUOUS
  0
LAYER
  2
48
 70
     0
 62
   253
  6
CONTINUOUS
  0
LAYER
  2
49
 70
     0
 62
   253
  6
CONTINUOUS
  0
LAYER
  2
51
 70
     0
 62
   253
  6
CONTINUOUS
  0
LAYER
  2
52
 70
     0
 62
   253
  6
CONTINUOUS
  0
LAYER
  2
100
 70
     0
 62
     6
  6
CONTINUOUS
  0
ENDTAB
  0
TABLE
  2
STYLE
 70
     2
  0
STYLE
  2
STANDARD
 70
     0
 40
0.0
 41
1.0
 50
0.0
 71
     0
 42
0.2
  3
txt
  4

  0
STYLE
  2
ANNOTATIVE
 70
     0
 40
0.0
 41
1.0
 50
0.0
 71
     0
 42
0.2
  3
txt
  4

  0
ENDTAB
  0
TABLE
  2
VIEW
 70
     4
  0
ENDTAB
  0
TABLE
  2
UCS
 70
     0
  0
ENDTAB
  0
TABLE
  2
APPID
 70
     5
  0
APPID
  2
ACAD
 70
     0
  0
APPID
  2
ACADANNOTATIVE
 70
     0
  0
APPID
  2
ACAD_EXEMPT_FROM_CAD_STANDARDS
 70
     0
  0
APPID
  2
ACAD_NAV_VCDISPLAY
 70
     0
  0
APPID
  2
ACAD_MLEADERVER
 70
     0
  0
ENDTAB
  0
TABLE
  2
DIMSTYLE
 70
     3
  0
DIMSTYLE
  2
STANDARD
 70
     0
  3

  4

  5

  6

  7

 40
1.0
 41
0.18
 42
0.0625
 43
0.38
 44
0.18
 45
0.0
 46
0.0
 47
0.0
 48
0.0
140
0.18
141
0.09
142
0.0
143
25.399999999999999
144
1.0
145
0.0
146
1.0
147
0.09
 71
     0
 72
     0
 73
     1
 74
     1
 75
     0
 76
     0
 77
     0
 78
     0
170
     0
171
     2
172
     0
173
     0
174
     0
175
     0
176
     0
177
     0
178
     0
  0
DIMSTYLE
  2
ANNOTATIVE
 70
     0
  3

  4

  5

  6

  7

 40
1.0
 41
0.18
 42
0.0625
 43
0.38
 44
0.18
 45
0.0
 46
0.0
 47
0.0
 48
0.0
140
0.18
141
0.09
142
0.0
143
25.399999999999999
144
1.0
145
0.0
146
1.0
147
0.09
 71
     0
 72
     0
 73
     1
 74
     1
 75
     0
 76
     0
 77
     0
 78
     0
170
     0
171
     2
172
     0
173
     0
174
     0
175
     0
176
     0
177
     0
178
     0
  0
ENDTAB
  0
ENDSEC
  0
SECTION
  2
BLOCKS
  0
BLOCK
  8
0
  2
$MODEL_SPACE
 70
     0
 10
0.0
 20
0.0
 30
0.0
  3
$MODEL_SPACE
  1

  0
ENDBLK
  5
6D
  8
0
  0
BLOCK
 67
     1
  8
0
  2
$PAPER_SPACE
 70
     0
 10
0.0
 20
0.0
 30
0.0
  3
$PAPER_SPACE
  1

  0
ENDBLK
  5
69
 67
     1
  8
0
  0
BLOCK
  8
0
  2
RECT
 70
     0
 10
0.0
 20
0.0
 30
0.0
  3
RECT
  1

  0
SOLID
  5
7F
  8
0
 10
-0.5
 20
-0.5
 30
0.0
 11
0.5
 21
-0.5
 31
0.0
 12
-0.5
 22
0.5
 32
0.0
 13
0.5
 23
0.5
 33
0.0
  0
ENDBLK
  5
80
  8
0
  0
BLOCK
  8
0
  2
PIE
 70
     0
 10
0.0
 20
0.0
 30
0.0
  3
PIE
  1

  0
CIRCLE
  5
83
  8
0
 10
0.0
 20
0.0
 30
0.0
 40
0.5
  0
ENDBLK
  5
84
  8
0
  0
BLOCK
  8
0
  2
OCTAGONP
 70
     0
 10
0.0
 20
0.0
 30
0.0
  3
OCTAGONP
  1

  0
POLYLINE
  5
87
  8
0
 66
     1
 10
0.0
 20
0.0
 30
0.0
 70
     1
  0
VERTEX
  5
4B7D
  8
0
 10
-0.5
 20
-0.2071
 30
0.0
  0
VERTEX
  5
4B7E
  8
0
 10
-0.5
 20
0.2071
 30
0.0
  0
VERTEX
  5
4B7F
  8
0
 10
-0.2071
 20
0.5
 30
0.0
  0
VERTEX
  5
4B80
  8
0
 10
0.2071
 20
0.5
 30
0.0
  0
VERTEX
  5
4B81
  8
0
 10
0.5
 20
0.2071
 30
0.0
  0
VERTEX
  5
4B82
  8
0
 10
0.5
 20
-0.2071
 30
0.0
  0
VERTEX
  5
4B83
  8
0
 10
0.2071
 20
-0.5
 30
0.0
  0
VERTEX
  5
4B84
  8
0
 10
-0.2071
 20
-0.5
 30
0.0
  0
SEQEND
  5
4B85
  8
0
  0
ENDBLK
  5
91
  8
0
  0
BLOCK
  8
0
  2
SQUAREP
 70
     0
 10
0.0
 20
0.0
 30
0.0
  3
SQUAREP
  1

  0
SOLID
  5
94
  8
0
 10
-0.5
 20
-0.5
 30
0.0
 11
0.5
 21
-0.5
 31
0.0
 12
-0.5
 22
0.5
 32
0.0
 13
0.5
 23
0.5
 33
0.0
  0
ENDBLK
  5
95
  8
0
  0
BLOCK
  8
0
  2
ROUNDP
 70
     0
 10
0.0
 20
0.0
 30
0.0
  3
ROUNDP
  1

  0
CIRCLE
  5
98
  8
0
 10
0.0
 20
0.0
 30
0.0
 40
0.5
  0
ENDBLK
  5
99
  8
0
  0
BLOCK
  8
0
  2
ANNULUSP
 70
     0
 10
0.0
 20
0.0
 30
0.0
  3
ANNULUSP
  1

  0
CIRCLE
  5
9C
  8
0
 10
0.0
 20
0.0
 30
0.0
 40
0.5
  0
ENDBLK
  5
9D
  8
0
  0
BLOCK
  8
0
  2
THERMALP
 70
     0
 10
0.0
 20
0.0
 30
0.0
  3
THERMALP
  1

  0
POLYLINE
  5
A0
  8
0
 66
     1
 10
0.0
 20
0.0
 30
0.0
 70
     1
  0
VERTEX
  5
4B86
  8
0
 10
-0.2379
 20
0.4
 30
0.0
  0
VERTEX
  5
4B87
  8
0
 10
0.2379
 20
0.4
 30
0.0
 42
1.0
  0
VERTEX
  5
4B88
  8
0
 10
0.2379
 20
0.5
 30
0.0
  0
VERTEX
  5
4B89
  8
0
 10
-0.2379
 20
0.5
 30
0.0
 42
1.0
  0
SEQEND
  5
4B8A
  8
0
  0
POLYLINE
  5
A6
  8
0
 66
     1
 10
0.0
 20
0.0
 30
0.0
 70
     1
  0
VERTEX
  5
4B8B
  8
0
 10
0.4
 20
0.2379
 30
0.0
  0
VERTEX
  5
4B8C
  8
0
 10
0.4
 20
-0.2379
 30
0.0
 42
1.0
  0
VERTEX
  5
4B8D
  8
0
 10
0.5
 20
-0.2379
 30
0.0
  0
VERTEX
  5
4B8E
  8
0
 10
0.5
 20
0.2379
 30
0.0
 42
1.0
  0
SEQEND
  5
4B8F
  8
0
  0
POLYLINE
  5
AC
  8
0
 66
     1
 10
0.0
 20
0.0
 30
0.0
 70
     1
  0
VERTEX
  5
4B90
  8
0
 10
0.2379
 20
-0.4
 30
0.0
  0
VERTEX
  5
4B91
  8
0
 10
-0.2379
 20
-0.4
 30
0.0
 42
1.0
  0
VERTEX
  5
4B92
  8
0
 10
-0.2379
 20
-0.5
 30
0.0
  0
VERTEX
  5
4B93
  8
0
 10
0.2379
 20
-0.5
 30
0.0
 42
1.0
  0
SEQEND
  5
4B94
  8
0
  0
POLYLINE
  5
B2
  8
0
 66
     1
 10
0.0
 20
0.0
 30
0.0
 70
     1
  0
VERTEX
  5
4B95
  8
0
 10
-0.4
 20
-0.2379
 30
0.0
  0
VERTEX
  5
4B96
  8
0
 10
-0.4
 20
0.2379
 30
0.0
 42
1.0
  0
VERTEX
  5
4B97
  8
0
 10
-0.5
 20
0.2379
 30
0.0
  0
VERTEX
  5
4B98
  8
0
 10
-0.5
 20
-0.2379
 30
0.0
 42
1.0
  0
SEQEND
  5
4B99
  8
0
  0
ENDBLK
  5
B8
  8
0
  0
BLOCK
  8
0
  2
OCTAGONV
 70
     0
 10
0.0
 20
0.0
 30
0.0
  3
OCTAGONV
  1

  0
POLYLINE
  5
BB
  8
0
 66
     1
 10
0.0
 20
0.0
 30
0.0
 70
     1
  0
VERTEX
  5
4B9A
  8
0
 10
-0.5
 20
-0.2071
 30
0.0
  0
VERTEX
  5
4B9B
  8
0
 10
-0.5
 20
0.2071
 30
0.0
  0
VERTEX
  5
4B9C
  8
0
 10
-0.2071
 20
0.5
 30
0.0
  0
VERTEX
  5
4B9D
  8
0
 10
0.2071
 20
0.5
 30
0.0
  0
VERTEX
  5
4B9E
  8
0
 10
0.5
 20
0.2071
 30
0.0
  0
VERTEX
  5
4B9F
  8
0
 10
0.5
 20
-0.2071
 30
0.0
  0
VERTEX
  5
4BA0
  8
0
 10
0.2071
 20
-0.5
 30
0.0
  0
VERTEX
  5
4BA1
  8
0
 10
-0.2071
 20
-0.5
 30
0.0
  0
SEQEND
  5
4BA2
  8
0
  0
ENDBLK
  5
C5
  8
0
  0
BLOCK
  8
0
  2
SQUAREV
 70
     0
 10
0.0
 20
0.0
 30
0.0
  3
SQUAREV
  1

  0
SOLID
  5
C8
  8
0
 10
-0.5
 20
-0.5
 30
0.0
 11
0.5
 21
-0.5
 31
0.0
 12
-0.5
 22
0.5
 32
0.0
 13
0.5
 23
0.5
 33
0.0
  0
ENDBLK
  5
C9
  8
0
  0
BLOCK
  8
0
  2
ROUNDV
 70
     0
 10
0.0
 20
0.0
 30
0.0
  3
ROUNDV
  1

  0
CIRCLE
  5
CC
  8
0
 10
0.0
 20
0.0
 30
0.0
 40
0.5
  0
ENDBLK
  5
CD
  8
0
  0
BLOCK
  8
0
  2
ANNULUSV
 70
     0
 10
0.0
 20
0.0
 30
0.0
  3
ANNULUSV
  1

  0
CIRCLE
  5
D0
  8
0
 10
0.0
 20
0.0
 30
0.0
 40
0.5
  0
ENDBLK
  5
D1
  8
0
  0
BLOCK
  8
0
  2
THERMALV
 70
     0
 10
0.0
 20
0.0
 30
0.0
  3
THERMALV
  1

  0
POLYLINE
  5
D4
  8
0
 66
     1
 10
0.0
 20
0.0
 30
0.0
 70
     1
  0
VERTEX
  5
4BA3
  8
0
 10
-0.2379
 20
0.4
 30
0.0
  0
VERTEX
  5
4BA4
  8
0
 10
0.2379
 20
0.4
 30
0.0
 42
1.0
  0
VERTEX
  5
4BA5
  8
0
 10
0.2379
 20
0.5
 30
0.0
  0
VERTEX
  5
4BA6
  8
0
 10
-0.2379
 20
0.5
 30
0.0
 42
1.0
  0
SEQEND
  5
4BA7
  8
0
  0
POLYLINE
  5
DA
  8
0
 66
     1
 10
0.0
 20
0.0
 30
0.0
 70
     1
  0
VERTEX
  5
4BA8
  8
0
 10
0.4
 20
0.2379
 30
0.0
  0
VERTEX
  5
4BA9
  8
0
 10
0.4
 20
-0.2379
 30
0.0
 42
1.0
  0
VERTEX
  5
4BAA
  8
0
 10
0.5
 20
-0.2379
 30
0.0
  0
VERTEX
  5
4BAB
  8
0
 10
0.5
 20
0.2379
 30
0.0
 42
1.0
  0
SEQEND
  5
4BAC
  8
0
  0
POLYLINE
  5
E0
  8
0
 66
     1
 10
0.0
 20
0.0
 30
0.0
 70
     1
  0
VERTEX
  5
4BAD
  8
0
 10
0.2379
 20
-0.4
 30
0.0
  0
VERTEX
  5
4BAE
  8
0
 10
-0.2379
 20
-0.4
 30
0.0
 42
1.0
  0
VERTEX
  5
4BAF
  8
0
 10
-0.2379
 20
-0.5
 30
0.0
  0
VERTEX
  5
4BB0
  8
0
 10
0.2379
 20
-0.5
 30
0.0
 42
1.0
  0
SEQEND
  5
4BB1
  8
0
  0
POLYLINE
  5
E6
  8
0
 66
     1
 10
0.0
 20
0.0
 30
0.0
 70
     1
  0
VERTEX
  5
4BB2
  8
0
 10
-0.4
 20
-0.2379
 30
0.0
  0
VERTEX
  5
4BB3
  8
0
 10
-0.4
 20
0.2379
 30
0.0
 42
1.0
  0
VERTEX
  5
4BB4
  8
0
 10
-0.5
 20
0.2379
 30
0.0
  0
VERTEX
  5
4BB5
  8
0
 10
-0.5
 20
-0.2379
 30
0.0
 42
1.0
  0
SEQEND
  5
4BB6
  8
0
  0
ENDBLK
  5
EC
  8
0
  0
BLOCK
  8
0
  2
LONGP100
 70
     0
 10
0.0
 20
0.0
 30
0.0
  3
LONGP100
  1

  0
POLYLINE
  5
EF
  8
0
 66
     1
 10
0.0
 20
0.0
 30
0.0
 70
     1
  0
VERTEX
  5
4BB7
  8
0
 10
-0.5
 20
-0.5
 30
0.0
  0
VERTEX
  5
4BB8
  8
0
 10
0.5
 20
-0.5
 30
0.0
 42
1.0
  0
VERTEX
  5
4BB9
  8
0
 10
0.5
 20
0.5
 30
0.0
  0
VERTEX
  5
4BBA
  8
0
 10
-0.5
 20
0.5
 30
0.0
 42
1.0
  0
SEQEND
  5
4BBB
  8
0
  0
ENDBLK
  5
F5
  8
0
  0
ENDSEC
  0
SECTION
  2
ENTITIES
  0
LINE
  5
F6
  8
20
 10
0.0
 20
0.0
 30
0.0
 11
160.0
 21
0.0
 31
0.0
  0
LINE
  5
F7
  8
20
 10
160.0
 20
0.0
 30
0.0
 11
160.0
 21
100.0
 31
0.0
  0
LINE
  5
F8
  8
20
 10
160.0
 20
100.0
 30
0.0
 11
0.0
 21
100.0
 31
0.0
  0
LINE
  5
F9
  8
20
 10
0.0
 20
100.0
 30
0.0
 11
0.0
 21
0.0
 31
0.0
  0
POLYLINE
  5
4A73
  8
0
  6
CONTINUOUS
 66
     1
 10
0.0
 20
0.0
 30
0.0
 70
     1
  0
VERTEX
  5
4BBC
  8
0
  6
CONTINUOUS
 10
64.661258906506305
 20
26.186499999999999
 30
0.0
  0
VERTEX
  5
4BBD
  8
0
  6
CONTINUOUS
 10
72.417939150000009
 20
26.186499999999999
 30
0.0
  0
VERTEX
  5
4BBE
  8
0
  6
CONTINUOUS
 10
72.417939150000009
 20
23.112060849999999
 30
0.0
  0
VERTEX
  5
4BBF
  8
0
  6
CONTINUOUS
 10
64.661258906506305
 20
23.112060849999999
 30
0.0
  0
SEQEND
  5
4BC0
  8
0
  6
CONTINUOUS
  0
POLYLINE
  5
4A7C
  8
0
  6
CONTINUOUS
 66
     1
 10
0.0
 20
0.0
 30
0.0
 70
     1
  0
VERTEX
  5
4BC4
  8
0
  6
CONTINUOUS
 10
37.99125890650631
 20
64.28649999999999
 30
0.0
  0
VERTEX
  5
4BC5
  8
0
  6
CONTINUOUS
 10
45.747939150000001
 20
64.28649999999999
 30
0.0
  0
VERTEX
  5
4BC6
  8
0
  6
CONTINUOUS
 10
45.747939150000001
 20
61.212060849999993
 30
0.0
  0
VERTEX
  5
4BC7
  8
0
  6
CONTINUOUS
 10
37.99125890650631
 20
61.212060849999993
 30
0.0
  0
SEQEND
  5
4BC8
  8
0
  6
CONTINUOUS
  0
POLYLINE
  5
4A7D
  8
0
  6
CONTINUOUS
 66
     1
 10
0.0
 20
0.0
 30
0.0
 70
     1
  0
VERTEX
  5
4BC9
  8
0
  6
CONTINUOUS
 10
37.99125890650631
 20
83.336500000000001
 30
0.0
  0
VERTEX
  5
4BCA
  8
0
  6
CONTINUOUS
 10
45.747939150000001
 20
83.336500000000001
 30
0.0
  0
VERTEX
  5
4BCB
  8
0
  6
CONTINUOUS
 10
45.747939150000001
 20
80.262060849999997
 30
0.0
  0
VERTEX
  5
4BCC
  8
0
  6
CONTINUOUS
 10
37.99125890650631
 20
80.262060849999997
 30
0.0
  0
SEQEND
  5
4BCD
  8
0
  6
CONTINUOUS
  0
POLYLINE
  5
4A7E
  8
0
  6
CONTINUOUS
 66
     1
 10
0.0
 20
0.0
 30
0.0
 70
     1
  0
VERTEX
  5
4BCE
  8
0
  6
CONTINUOUS
 10
57.0412589065063
 20
87.146500000000003
 30
0.0
  0
VERTEX
  5
4BCF
  8
0
  6
CONTINUOUS
 10
64.797939150000005
 20
87.146500000000003
 30
0.0
  0
VERTEX
  5
4BD0
  8
0
  6
CONTINUOUS
 10
64.797939150000005
 20
84.07206085
 30
0.0
  0
VERTEX
  5
4BD1
  8
0
  6
CONTINUOUS
 10
57.0412589065063
 20
84.07206085
 30
0.0
  0
SEQEND
  5
4BD2
  8
0
  6
CONTINUOUS
  0
POLYLINE
  5
4A7F
  8
0
  6
CONTINUOUS
 66
     1
 10
0.0
 20
0.0
 30
0.0
 70
     1
  0
VERTEX
  5
4BD3
  8
0
  6
CONTINUOUS
 10
57.0412589065063
 20
68.096499999999992
 30
0.0
  0
VERTEX
  5
4BD4
  8
0
  6
CONTINUOUS
 10
64.797939150000005
 20
68.096499999999992
 30
0.0
  0
VERTEX
  5
4BD5
  8
0
  6
CONTINUOUS
 10
64.797939150000005
 20
65.022060850000003
 30
0.0
  0
VERTEX
  5
4BD6
  8
0
  6
CONTINUOUS
 10
57.0412589065063
 20
65.022060850000003
 30
0.0
  0
SEQEND
  5
4BD7
  8
0
  6
CONTINUOUS
  0
POLYLINE
  5
4A80
  8
0
  6
CONTINUOUS
 66
     1
 10
0.0
 20
0.0
 30
0.0
 70
     1
  0
VERTEX
  5
4BD8
  8
0
  6
CONTINUOUS
 10
57.0412589065063
 20
49.046500000000002
 30
0.0
  0
VERTEX
  5
4BD9
  8
0
  6
CONTINUOUS
 10
64.797939150000005
 20
49.046500000000002
 30
0.0
  0
VERTEX
  5
4BDA
  8
0
  6
CONTINUOUS
 10
64.797939150000005
 20
45.972060849999977
 30
0.0
  0
VERTEX
  5
4BDB
  8
0
  6
CONTINUOUS
 10
57.0412589065063
 20
45.972060849999977
 30
0.0
  0
SEQEND
  5
4BDC
  8
0
  6
CONTINUOUS
  0
POLYLINE
  5
4A81
  8
0
  6
CONTINUOUS
 66
     1
 10
0.0
 20
0.0
 30
0.0
 70
     1
  0
VERTEX
  5
4BDD
  8
0
  6
CONTINUOUS
 10
76.091258906506312
 20
52.856499999999997
 30
0.0
  0
VERTEX
  5
4BDE
  8
0
  6
CONTINUOUS
 10
83.847939150000016
 20
52.856499999999997
 30
0.0
  0
VERTEX
  5
4BDF
  8
0
  6
CONTINUOUS
 10
83.847939150000016
 20
49.782060850000001
 30
0.0
  0
VERTEX
  5
4BE0
  8
0
  6
CONTINUOUS
 10
76.091258906506312
 20
49.782060850000001
 30
0.0
  0
SEQEND
  5
4BE1
  8
0
  6
CONTINUOUS
  0
POLYLINE
  5
4A82
  8
0
  6
CONTINUOUS
 66
     1
 10
0.0
 20
0.0
 30
0.0
 70
     1
  0
VERTEX
  5
4BE2
  8
0
  6
CONTINUOUS
 10
76.091258906506312
 20
71.906499999999994
 30
0.0
  0
VERTEX
  5
4BE3
  8
0
  6
CONTINUOUS
 10
83.847939150000016
 20
71.906499999999994
 30
0.0
  0
VERTEX
  5
4BE4
  8
0
  6
CONTINUOUS
 10
83.847939150000016
 20
68.832060849999991
 30
0.0
  0
VERTEX
  5
4BE5
  8
0
  6
CONTINUOUS
 10
76.091258906506312
 20
68.832060849999991
 30
0.0
  0
SEQEND
  5
4BE6
  8
0
  6
CONTINUOUS
  0
POLYLINE
  5
4A83
  8
0
  6
CONTINUOUS
 66
     1
 10
0.0
 20
0.0
 30
0.0
 70
     1
  0
VERTEX
  5
4BE7
  8
0
  6
CONTINUOUS
 10
76.091258906506312
 20
90.956499999999991
 30
0.0
  0
VERTEX
  5
4BE8
  8
0
  6
CONTINUOUS
 10
83.847939150000016
 20
90.956499999999991
 30
0.0
  0
VERTEX
  5
4BE9
  8
0
  6
CONTINUOUS
 10
83.847939150000016
 20
87.882060849999974
 30
0.0
  0
VERTEX
  5
4BEA
  8
0
  6
CONTINUOUS
 10
76.091258906506312
 20
87.882060849999974
 30
0.0
  0
SEQEND
  5
4BEB
  8
0
  6
CONTINUOUS
  0
POLYLINE
  5
4A84
  8
0
  6
CONTINUOUS
 66
     1
 10
0.0
 20
0.0
 30
0.0
 70
     1
  0
VERTEX
  5
4BEC
  8
0
  6
CONTINUOUS
 10
95.141258906506295
 20
87.146500000000003
 30
0.0
  0
VERTEX
  5
4BED
  8
0
  6
CONTINUOUS
 10
102.89793915
 20
87.146500000000003
 30
0.0
  0
VERTEX
  5
4BEE
  8
0
  6
CONTINUOUS
 10
102.89793915
 20
84.07206085
 30
0.0
  0
VERTEX
  5
4BEF
  8
0
  6
CONTINUOUS
 10
95.141258906506295
 20
84.07206085
 30
0.0
  0
SEQEND
  5
4BF0
  8
0
  6
CONTINUOUS
  0
POLYLINE
  5
4A85
  8
0
  6
CONTINUOUS
 66
     1
 10
0.0
 20
0.0
 30
0.0
 70
     1
  0
VERTEX
  5
4BF1
  8
0
  6
CONTINUOUS
 10
95.141258906506295
 20
68.096499999999992
 30
0.0
  0
VERTEX
  5
4BF2
  8
0
  6
CONTINUOUS
 10
102.89793915
 20
68.096499999999992
 30
0.0
  0
VERTEX
  5
4BF3
  8
0
  6
CONTINUOUS
 10
102.89793915
 20
65.022060850000003
 30
0.0
  0
VERTEX
  5
4BF4
  8
0
  6
CONTINUOUS
 10
95.141258906506295
 20
65.022060850000003
 30
0.0
  0
SEQEND
  5
4BF5
  8
0
  6
CONTINUOUS
  0
POLYLINE
  5
4A86
  8
0
  6
CONTINUOUS
 66
     1
 10
0.0
 20
0.0
 30
0.0
 70
     1
  0
VERTEX
  5
4BF6
  8
0
  6
CONTINUOUS
 10
95.141258906506295
 20
49.046500000000002
 30
0.0
  0
VERTEX
  5
4BF7
  8
0
  6
CONTINUOUS
 10
102.89793915
 20
49.046500000000002
 30
0.0
  0
VERTEX
  5
4BF8
  8
0
  6
CONTINUOUS
 10
102.89793915
 20
45.972060849999977
 30
0.0
  0
VERTEX
  5
4BF9
  8
0
  6
CONTINUOUS
 10
95.141258906506295
 20
45.972060849999977
 30
0.0
  0
SEQEND
  5
4BFA
  8
0
  6
CONTINUOUS
  0
POLYLINE
  5
4A87
  8
0
  6
CONTINUOUS
 66
     1
 10
0.0
 20
0.0
 30
0.0
 70
     1
  0
VERTEX
  5
4BFB
  8
0
  6
CONTINUOUS
 10
114.19125890650631
 20
64.28649999999999
 30
0.0
  0
VERTEX
  5
4BFC
  8
0
  6
CONTINUOUS
 10
121.94793915
 20
64.28649999999999
 30
0.0
  0
VERTEX
  5
4BFD
  8
0
  6
CONTINUOUS
 10
121.94793915
 20
61.212060849999993
 30
0.0
  0
VERTEX
  5
4BFE
  8
0
  6
CONTINUOUS
 10
114.19125890650631
 20
61.212060849999993
 30
0.0
  0
SEQEND
  5
4BFF
  8
0
  6
CONTINUOUS
  0
POLYLINE
  5
4A88
  8
0
  6
CONTINUOUS
 66
     1
 10
0.0
 20
0.0
 30
0.0
 70
     1
  0
VERTEX
  5
4C00
  8
0
  6
CONTINUOUS
 10
114.19125890650631
 20
83.336500000000001
 30
0.0
  0
VERTEX
  5
4C01
  8
0
  6
CONTINUOUS
 10
121.94793915
 20
83.336500000000001
 30
0.0
  0
VERTEX
  5
4C02
  8
0
  6
CONTINUOUS
 10
121.94793915
 20
80.262060849999997
 30
0.0
  0
VERTEX
  5
4C03
  8
0
  6
CONTINUOUS
 10
114.19125890650631
 20
80.262060849999997
 30
0.0
  0
SEQEND
  5
4C04
  8
0
  6
CONTINUOUS
  0
POLYLINE
  5
4A89
  8
0
  6
CONTINUOUS
 66
     1
 10
0.0
 20
0.0
 30
0.0
 70
     1
  0
VERTEX
  5
4C05
  8
0
  6
CONTINUOUS
 10
133.24125890650629
 20
83.336500000000001
 30
0.0
  0
VERTEX
  5
4C06
  8
0
  6
CONTINUOUS
 10
140.99793915000001
 20
83.336500000000001
 30
0.0
  0
VERTEX
  5
4C07
  8
0
  6
CONTINUOUS
 10
140.99793915000001
 20
80.262060849999997
 30
0.0
  0
VERTEX
  5
4C08
  8
0
  6
CONTINUOUS
 10
133.24125890650629
 20
80.262060849999997
 30
0.0
  0
SEQEND
  5
4C09
  8
0
  6
CONTINUOUS
  0
POLYLINE
  5
4A8A
  8
0
  6
CONTINUOUS
 66
     1
 10
0.0
 20
0.0
 30
0.0
 70
     1
  0
VERTEX
  5
4C0A
  8
0
  6
CONTINUOUS
 10
133.24125890650629
 20
64.28649999999999
 30
0.0
  0
VERTEX
  5
4C0B
  8
0
  6
CONTINUOUS
 10
140.99793915000001
 20
64.28649999999999
 30
0.0
  0
VERTEX
  5
4C0C
  8
0
  6
CONTINUOUS
 10
140.99793915000001
 20
61.212060849999993
 30
0.0
  0
VERTEX
  5
4C0D
  8
0
  6
CONTINUOUS
 10
133.24125890650629
 20
61.212060849999993
 30
0.0
  0
SEQEND
  5
4C0E
  8
0
  6
CONTINUOUS
  0
POLYLINE
  5
4A8B
  8
0
  6
CONTINUOUS
 66
     1
 10
0.0
 20
0.0
 30
0.0
 70
     1
  0
VERTEX
  5
4C0F
  8
0
  6
CONTINUOUS
 10
133.24125890650629
 20
45.236499999999992
 30
0.0
  0
VERTEX
  5
4C10
  8
0
  6
CONTINUOUS
 10
140.99793915000001
 20
45.236499999999992
 30
0.0
  0
VERTEX
  5
4C11
  8
0
  6
CONTINUOUS
 10
140.99793915000001
 20
42.162060849999989
 30
0.0
  0
VERTEX
  5
4C12
  8
0
  6
CONTINUOUS
 10
133.24125890650629
 20
42.162060849999989
 30
0.0
  0
SEQEND
  5
4C13
  8
0
  6
CONTINUOUS
  0
POLYLINE
  5
4A8C
  8
0
  6
CONTINUOUS
 66
     1
 10
0.0
 20
0.0
 30
0.0
 70
     1
  0
VERTEX
  5
4C14
  8
0
  6
CONTINUOUS
 10
114.19125890650631
 20
45.236499999999992
 30
0.0
  0
VERTEX
  5
4C15
  8
0
  6
CONTINUOUS
 10
121.94793915
 20
45.236499999999992
 30
0.0
  0
VERTEX
  5
4C16
  8
0
  6
CONTINUOUS
 10
121.94793915
 20
42.162060849999989
 30
0.0
  0
VERTEX
  5
4C17
  8
0
  6
CONTINUOUS
 10
114.19125890650631
 20
42.162060849999989
 30
0.0
  0
SEQEND
  5
4C18
  8
0
  6
CONTINUOUS
  0
POLYLINE
  5
4AB8
  8
0
  6
CONTINUOUS
 66
     1
 10
0.0
 20
0.0
 30
0.0
 70
     1
  0
VERTEX
  5
4C19
  8
0
  6
CONTINUOUS
 10
41.891553169159828
 20
24.127598279737931
 30
0.0
  0
VERTEX
  5
4C1A
  8
0
  6
CONTINUOUS
 10
49.530392010589047
 20
25.474531668765689
 30
0.0
  0
VERTEX
  5
4C1B
  8
0
  6
CONTINUOUS
 10
50.064262766334409
 20
22.44680015768143
 30
0.0
  0
VERTEX
  5
4C1C
  8
0
  6
CONTINUOUS
 10
42.425423924905189
 20
21.099866768653659
 30
0.0
  0
SEQEND
  5
4C1D
  8
0
  6
CONTINUOUS
  0
POLYLINE
  5
4AB9
  8
0
  6
CONTINUOUS
 66
     1
 10
0.0
 20
0.0
 30
0.0
 70
     1
  0
VERTEX
  5
4C1E
  8
0
  6
CONTINUOUS
 10
18.497724655880031
 20
27.469084831489891
 30
0.0
  0
VERTEX
  5
4C1F
  8
0
  6
CONTINUOUS
 10
25.99010242933678
 20
29.476661405276509
 30
0.0
  0
VERTEX
  5
4C20
  8
0
  6
CONTINUOUS
 10
26.785825834365589
 20
26.506981228937299
 30
0.0
  0
VERTEX
  5
4C21
  8
0
  6
CONTINUOUS
 10
19.29344806090884
 20
24.499404655150681
 30
0.0
  0
SEQEND
  5
4C22
  8
0
  6
CONTINUOUS
  0
POLYLINE
  5
4AE5
  8
0
  6
CONTINUOUS
 66
     1
 10
0.0
 20
0.0
 30
0.0
 70
     1
  0
VERTEX
  5
4C23
  8
0
  6
CONTINUOUS
 10
37.99125890650631
 20
45.236499999999992
 30
0.0
  0
VERTEX
  5
4C24
  8
0
  6
CONTINUOUS
 10
45.747939150000001
 20
45.236499999999992
 30
0.0
  0
VERTEX
  5
4C25
  8
0
  6
CONTINUOUS
 10
45.747939150000001
 20
42.162060849999989
 30
0.0
  0
VERTEX
  5
4C26
  8
0
  6
CONTINUOUS
 10
37.99125890650631
 20
42.162060849999989
 30
0.0
  0
SEQEND
  5
4C27
  8
0
  6
CONTINUOUS
  0
LINE
  5
4AE6
  8
0
  6
CONTINUOUS
 10
20.244700000000002
 20
1.660899999999998
 30
0.0
 11
37.709099999999999
 21
6.2746999999999948
 31
0.0
  0
LINE
  5
4AE7
  8
0
  6
CONTINUOUS
 10
37.709099999999999
 20
6.2746999999999948
 30
0.0
 11
39.627049999999997
 21
7.3428499999999977
 31
0.0
  0
LINE
  5
4AE8
  8
0
  6
CONTINUOUS
 10
39.627049999999997
 20
7.3428499999999977
 30
0.0
 11
57.427156329006927
 21
10.41700993213234
 31
0.0
  0
LINE
  5
4AE9
  8
0
  6
CONTINUOUS
 10
57.427156329006927
 20
10.41700993213234
 30
0.0
 11
59.579999999999998
 21
9.9864999999999995
 31
0.0
  0
LINE
  5
4AEA
  8
0
  6
CONTINUOUS
 10
59.579999999999998
 20
9.9864999999999995
 30
0.0
 11
77.643500000000003
 21
10.04999999999999
 31
0.0
  0
LINE
  5
4AEB
  8
0
  6
CONTINUOUS
 10
77.643500000000003
 20
10.04999999999999
 30
0.0
 11
77.579999999999998
 21
28.113500000000009
 31
0.0
  0
LINE
  5
4AEC
  8
0
  6
CONTINUOUS
 10
77.579999999999998
 20
28.113500000000009
 30
0.0
 11
89.996499999999997
 21
32.909999999999997
 31
0.0
  0
LINE
  5
4AED
  8
0
  6
CONTINUOUS
 10
89.996499999999997
 20
32.909999999999997
 30
0.0
 11
108.12350000000001
 21
32.909999999999997
 31
0.0
  0
LINE
  5
4AEE
  8
0
  6
CONTINUOUS
 10
108.12350000000001
 20
32.909999999999997
 30
0.0
 11
109.04649999999999
 21
29.100000000000001
 31
0.0
  0
LINE
  5
4AEF
  8
0
  6
CONTINUOUS
 10
109.04649999999999
 20
29.100000000000001
 30
0.0
 11
146.2235
 21
29.099999999999969
 31
0.0
  0
LINE
  5
4AF0
  8
0
  6
CONTINUOUS
 10
146.2235
 20
29.099999999999969
 30
0.0
 11
146.16
 21
85.263499999999979
 31
0.0
  0
LINE
  5
4AF1
  8
0
  6
CONTINUOUS
 10
146.16
 20
85.263499999999979
 30
0.0
 11
109.04649999999999
 21
85.200000000000017
 31
0.0
  0
LINE
  5
4AF2
  8
0
  6
CONTINUOUS
 10
109.04649999999999
 20
85.200000000000017
 30
0.0
 11
108.12350000000001
 21
89.010000000000005
 31
0.0
  0
LINE
  5
4AF3
  8
0
  6
CONTINUOUS
 10
108.12350000000001
 20
89.010000000000005
 30
0.0
 11
90.060000000000002
 21
89.073499999999996
 31
0.0
  0
LINE
  5
4AF4
  8
0
  6
CONTINUOUS
 10
90.060000000000002
 20
89.073499999999996
 30
0.0
 11
89.073499999999996
 21
92.820000000000007
 31
0.0
  0
LINE
  5
4AF5
  8
0
  6
CONTINUOUS
 10
89.073499999999996
 20
92.820000000000007
 30
0.0
 11
71.010000000000005
 21
92.756500000000003
 31
0.0
  0
LINE
  5
4AF6
  8
0
  6
CONTINUOUS
 10
71.010000000000005
 20
92.756500000000003
 30
0.0
 11
69.959999999999994
 21
89.073499999999996
 31
0.0
  0
LINE
  5
4AF7
  8
0
  6
CONTINUOUS
 10
69.959999999999994
 20
89.073499999999996
 30
0.0
 11
51.960000000000001
 21
89.073499999999996
 31
0.0
  0
LINE
  5
4AF8
  8
0
  6
CONTINUOUS
 10
51.960000000000001
 20
89.073499999999996
 30
0.0
 11
50.909999999999997
 21
85.263499999999979
 31
0.0
  0
LINE
  5
4AF9
  8
0
  6
CONTINUOUS
 10
50.909999999999997
 20
85.263499999999979
 30
0.0
 11
32.909999999999997
 21
85.263499999999993
 31
0.0
  0
LINE
  5
4AFA
  8
0
  6
CONTINUOUS
 10
32.909999999999997
 20
85.263499999999993
 30
0.0
 11
32.909999999999997
 21
47.01019999999999
 31
0.0
  0
LINE
  5
4AFB
  8
0
  6
CONTINUOUS
 10
32.909999999999997
 20
47.01019999999999
 30
0.0
 11
27.937499999974921
 21
41.563999999993271
 31
0.0
  0
LINE
  5
4AFC
  8
0
  6
CONTINUOUS
 10
27.937499999974921
 20
41.563999999993271
 30
0.0
 11
10.550899999998061
 21
36.905299999999478
 31
0.0
  0
LINE
  5
4AFD
  8
0
  6
CONTINUOUS
 10
10.550899999998061
 20
36.905299999999478
 30
0.0
 11
20.244700000000002
 21
1.660899999999998
 31
0.0
  0
CIRCLE
  5
4B13
  8
0
  6
CONTINUOUS
 10
7.0710678118654728
 20
92.928932188134524
 30
0.0
 40
1.5
  0
CIRCLE
  5
4B14
  8
0
  6
CONTINUOUS
 10
7.0710678118654746
 20
7.0710678118654737
 30
0.0
 40
1.5
  0
CIRCLE
  5
4B15
  8
0
  6
CONTINUOUS
 10
152.9289321881345
 20
7.0710678118654746
 30
0.0
 40
1.5
  0
CIRCLE
  5
4B16
  8
0
  6
CONTINUOUS
 10
152.9289321881345
 20
92.928932188134524
 30
0.0
 40
1.5
  0
ENDSEC
  0
EOF
